RecursiveSans-StrictExtraBoldItalic.ufo
<glyph name="exclam" format="1">
  <advance width="350"/>
  <unicode hex="0021"/>
  <outline>
    <contour>
      <point x="234" y="290" type="line"/>
      <point x="264" y="361"/>
      <point x="293" y="431"/>
      <point x="323" y="502" type="curve"/>
      <point x="370" y="689" type="line" smooth="yes"/>
      <point x="372" y="696"/>
      <point x="368" y="700"/>
      <point x="362" y="700" type="curve" smooth="yes"/>
      <point x="290" y="700"/>
      <point x="234" y="700"/>
      <point x="193" y="700" type="curve"/>
      <point x="183" y="662"/>
      <point x="174" y="627"/>
      <point x="165" y="590" type="curve" smooth="yes"/>
      <point x="143" y="502" type="line"/>
      <point x="125" y="299"/>
      <point x="126" y="297"/>
      <point x="129" y="293" type="curve" smooth="yes"/>
      <point x="130" y="291"/>
      <point x="132" y="290"/>
      <point x="136" y="290" type="curve"/>
    </contour>
    <contour>
      <point x="205" y="-10" type="curve"/>
      <point x="252" y="179" type="line" smooth="yes"/>
      <point x="254" y="185"/>
      <point x="250" y="190"/>
      <point x="244" y="190" type="curve" smooth="yes"/>
      <point x="181" y="190"/>
      <point x="118" y="190"/>
      <point x="55" y="190" type="curve"/>
      <point x="8" y="1" type="line" smooth="yes"/>
      <point x="6" y="-5"/>
      <point x="10" y="-10"/>
      <point x="16" y="-10" type="curve" smooth="yes"/>
      <point x="79" y="-10"/>
      <point x="142" y="-10"/>
    </contour>
  </outline>
</glyph>
<glyph name="quotedbl" format="1">
  <advance width="600"/>
  <unicode hex="0022"/>
  <outline>
    <contour>
      <point x="280" y="450" type="curve"/>
      <point x="375" y="737" type="line" smooth="yes"/>
      <point x="378" y="746"/>
      <point x="374" y="750"/>
      <point x="368" y="750" type="curve" smooth="yes"/>
      <point x="320" y="750"/>
      <point x="267" y="750"/>
      <point x="209" y="750" type="curve"/>
      <point x="203" y="714"/>
      <point x="197" y="683"/>
      <point x="192" y="648" type="curve" smooth="yes"/>
      <point x="160" y="461" type="line" smooth="yes"/>
      <point x="159" y="454"/>
      <point x="163" y="450"/>
      <point x="169" y="450" type="curve" smooth="yes"/>
      <point x="207" y="450"/>
      <point x="242" y="450"/>
    </contour>
    <contour>
      <point x="532" y="450" type="curve"/>
      <point x="627" y="737" type="line" smooth="yes"/>
      <point x="630" y="746"/>
      <point x="626" y="750"/>
      <point x="620" y="750" type="curve" smooth="yes"/>
      <point x="572" y="750"/>
      <point x="519" y="750"/>
      <point x="461" y="750" type="curve"/>
      <point x="412" y="461" type="line"/>
      <point x="411" y="454"/>
      <point x="415" y="450"/>
      <point x="421" y="450" type="curve" smooth="yes"/>
      <point x="459" y="450"/>
      <point x="494" y="450"/>
    </contour>
  </outline>
</glyph>
<glyph name="numbersign" format="1">
  <advance width="600"/>
  <unicode hex="0023"/>
  <outline>
    <contour>
      <point x="318" y="720" type="curve"/>
      <point x="207" y="474"/>
      <point x="95" y="226"/>
      <point x="-16" y="-20" type="curve"/>
      <point x="19" y="-20"/>
      <point x="54" y="-20"/>
      <point x="89" y="-20" type="curve"/>
      <point x="96" y="-20"/>
      <point x="102" y="-19"/>
      <point x="106" y="-9" type="curve" smooth="yes"/>
      <point x="214" y="230"/>
      <point x="323" y="470"/>
      <point x="430" y="709" type="curve" smooth="yes"/>
      <point x="434" y="718"/>
      <point x="431" y="720"/>
      <point x="424" y="720" type="curve" smooth="yes"/>
      <point x="390" y="720"/>
      <point x="352" y="720"/>
    </contour>
    <contour>
      <point x="544" y="720" type="curve"/>
      <point x="433" y="474"/>
      <point x="321" y="226"/>
      <point x="210" y="-20" type="curve"/>
      <point x="243" y="-20"/>
      <point x="282" y="-20"/>
      <point x="315" y="-20" type="curve"/>
      <point x="322" y="-20"/>
      <point x="328" y="-19"/>
      <point x="332" y="-9" type="curve" smooth="yes"/>
      <point x="440" y="230"/>
      <point x="549" y="470"/>
      <point x="656" y="709" type="curve" smooth="yes"/>
      <point x="660" y="718"/>
      <point x="657" y="720"/>
      <point x="650" y="720" type="curve" smooth="yes"/>
      <point x="617" y="720"/>
      <point x="576" y="720"/>
    </contour>
    <contour>
      <point x="623" y="435" type="line"/>
      <point x="627" y="448"/>
      <point x="646" y="526"/>
      <point x="649" y="539" type="curve" smooth="yes"/>
      <point x="650" y="542"/>
      <point x="650" y="545"/>
      <point x="648" y="547" type="curve" smooth="yes"/>
      <point x="647" y="549"/>
      <point x="644" y="550"/>
      <point x="641" y="550" type="curve"/>
      <point x="132" y="550" type="line"/>
      <point x="129" y="537"/>
      <point x="109" y="459"/>
      <point x="106" y="446" type="curve" smooth="yes"/>
      <point x="105" y="440"/>
      <point x="108" y="435"/>
      <point x="114" y="435" type="curve"/>
    </contour>
    <contour>
      <point x="18" y="255" type="line"/>
      <point x="15" y="242"/>
      <point x="-2" y="174"/>
      <point x="-5" y="161" type="curve" smooth="yes"/>
      <point x="-6" y="158"/>
      <point x="-6" y="155"/>
      <point x="-4" y="153" type="curve" smooth="yes"/>
      <point x="-3" y="151"/>
      <point x="0" y="150"/>
      <point x="3" y="150" type="curve"/>
      <point x="512" y="150" type="line"/>
      <point x="515" y="163"/>
      <point x="532" y="231"/>
      <point x="535" y="244" type="curve" smooth="yes"/>
      <point x="537" y="250"/>
      <point x="533" y="255"/>
      <point x="527" y="255" type="curve"/>
    </contour>
  </outline>
</glyph>
<glyph name="quotesingle" format="1">
  <advance width="250"/>
  <unicode hex="0027"/>
  <outline>
    <contour>
      <point x="236" y="450" type="curve"/>
      <point x="331" y="737" type="line" smooth="yes"/>
      <point x="334" y="746"/>
      <point x="330" y="750"/>
      <point x="324" y="750" type="curve" smooth="yes"/>
      <point x="273" y="750"/>
      <point x="217" y="750"/>
      <point x="155" y="750" type="curve"/>
      <point x="149" y="714"/>
      <point x="144" y="683"/>
      <point x="138" y="648" type="curve" smooth="yes"/>
      <point x="106" y="461" type="line" smooth="yes"/>
      <point x="105" y="454"/>
      <point x="109" y="450"/>
      <point x="115" y="450" type="curve" smooth="yes"/>
      <point x="156" y="450"/>
      <point x="195" y="450"/>
    </contour>
  </outline>
</glyph>
<glyph name="parenleft" format="1">
  <advance width="400"/>
  <unicode hex="0028"/>
  <outline>
    <contour>
      <point x="342" y="742" type="curve" smooth="yes"/>
      <point x="198" y="627"/>
      <point x="111" y="492"/>
      <point x="68" y="323" type="curve" smooth="yes"/>
      <point x="66" y="314" type="line" smooth="yes"/>
      <point x="24" y="145"/>
      <point x="44" y="10"/>
      <point x="130" y="-105" type="curve" smooth="yes"/>
      <point x="136" y="-113"/>
      <point x="141" y="-113"/>
      <point x="148" y="-113" type="curve" smooth="yes"/>
      <point x="205" y="-113"/>
      <point x="247" y="-113"/>
      <point x="309" y="-113" type="curve"/>
      <point x="314" y="-93" type="line"/>
      <point x="214" y="25"/>
      <point x="182" y="157"/>
      <point x="221" y="314" type="curve" smooth="yes"/>
      <point x="223" y="323" type="line" smooth="yes"/>
      <point x="263" y="480"/>
      <point x="361" y="612"/>
      <point x="520" y="730" type="curve"/>
      <point x="525" y="750" type="line"/>
      <point x="463" y="750"/>
      <point x="421" y="750"/>
      <point x="364" y="750" type="curve" smooth="yes"/>
      <point x="357" y="750"/>
      <point x="352" y="750"/>
    </contour>
  </outline>
</glyph>
<glyph name="parenright" format="1">
  <advance width="400"/>
  <unicode hex="0029"/>
  <outline>
    <contour>
      <point x="82" y="-105" type="curve" smooth="yes"/>
      <point x="226" y="10"/>
      <point x="314" y="145"/>
      <point x="356" y="314" type="curve" smooth="yes"/>
      <point x="358" y="323" type="line" smooth="yes"/>
      <point x="401" y="492"/>
      <point x="380" y="627"/>
      <point x="294" y="742" type="curve" smooth="yes"/>
      <point x="288" y="750"/>
      <point x="283" y="750"/>
      <point x="276" y="750" type="curve" smooth="yes"/>
      <point x="219" y="750"/>
      <point x="177" y="750"/>
      <point x="115" y="750" type="curve"/>
      <point x="110" y="730" type="line"/>
      <point x="211" y="612"/>
      <point x="243" y="480"/>
      <point x="203" y="323" type="curve" smooth="yes"/>
      <point x="201" y="314" type="line" smooth="yes"/>
      <point x="162" y="157"/>
      <point x="64" y="25"/>
      <point x="-96" y="-93" type="curve"/>
      <point x="-101" y="-113" type="line"/>
      <point x="-39" y="-113"/>
      <point x="3" y="-113"/>
      <point x="60" y="-113" type="curve" smooth="yes"/>
      <point x="67" y="-113"/>
      <point x="72" y="-113"/>
    </contour>
  </outline>
</glyph>
<glyph name="asterisk" format="1">
  <advance width="500"/>
  <unicode hex="002A"/>
  <outline>
    <contour>
      <point x="320" y="770" type="curve"/>
      <point x="318" y="739"/>
      <point x="318" y="708"/>
      <point x="316" y="676" type="curve" smooth="yes"/>
      <point x="310" y="563" type="line"/>
      <point x="220" y="364" type="line" smooth="yes"/>
      <point x="217" y="359"/>
      <point x="219" y="356"/>
      <point x="224" y="356" type="curve"/>
      <point x="259" y="356"/>
      <point x="294" y="356"/>
      <point x="328" y="356" type="curve"/>
      <point x="329" y="387"/>
      <point x="330" y="418"/>
      <point x="332" y="449" type="curve" smooth="yes"/>
      <point x="337" y="563" type="line"/>
      <point x="428" y="762" type="line" smooth="yes"/>
      <point x="430" y="767"/>
      <point x="429" y="770"/>
      <point x="424" y="770" type="curve" smooth="yes"/>
      <point x="390" y="770"/>
      <point x="354" y="770"/>
    </contour>
    <contour>
      <point x="513" y="715" type="curve"/>
      <point x="321" y="575" type="line"/>
      <point x="112" y="512" type="line" smooth="yes"/>
      <point x="106" y="510"/>
      <point x="104" y="506"/>
      <point x="106" y="500" type="curve"/>
      <point x="115" y="470"/>
      <point x="125" y="441"/>
      <point x="135" y="412" type="curve"/>
      <point x="328" y="552" type="line"/>
      <point x="535" y="615" type="line" smooth="yes"/>
      <point x="542" y="616"/>
      <point x="545" y="621"/>
      <point x="542" y="627" type="curve" smooth="yes"/>
      <point x="534" y="656"/>
      <point x="523" y="685"/>
    </contour>
    <contour>
      <point x="517" y="508" type="curve"/>
      <point x="333" y="575" type="line"/>
      <point x="216" y="711" type="line" smooth="yes"/>
      <point x="213" y="714"/>
      <point x="209" y="713"/>
      <point x="204" y="708" type="curve"/>
      <point x="179" y="678"/>
      <point x="155" y="649"/>
      <point x="131" y="620" type="curve"/>
      <point x="315" y="552" type="line"/>
      <point x="431" y="417" type="line" smooth="yes"/>
      <point x="435" y="413"/>
      <point x="440" y="414"/>
      <point x="445" y="420" type="curve"/>
      <point x="469" y="449"/>
      <point x="493" y="479"/>
    </contour>
  </outline>
</glyph>
<glyph name="plus" format="1">
  <advance width="600"/>
  <unicode hex="002B"/>
  <outline>
    <contour>
      <point x="86" y="374" type="line"/>
      <point x="75" y="328"/>
      <point x="63" y="283"/>
      <point x="52" y="237" type="curve" smooth="yes"/>
      <point x="51" y="234"/>
      <point x="51" y="231"/>
      <point x="53" y="229" type="curve" smooth="yes"/>
      <point x="54" y="227"/>
      <point x="57" y="226"/>
      <point x="60" y="226" type="curve"/>
      <point x="529" y="226" type="line"/>
      <point x="541" y="272"/>
      <point x="552" y="317"/>
      <point x="563" y="363" type="curve" smooth="yes"/>
      <point x="565" y="369"/>
      <point x="561" y="374"/>
      <point x="555" y="374" type="curve"/>
    </contour>
    <contour>
      <point x="323" y="62" type="curve"/>
      <point x="439" y="527" type="line" smooth="yes"/>
      <point x="440" y="530"/>
      <point x="440" y="533"/>
      <point x="438" y="535" type="curve" smooth="yes"/>
      <point x="437" y="537"/>
      <point x="434" y="538"/>
      <point x="431" y="538" type="curve" smooth="yes"/>
      <point x="386" y="538"/>
      <point x="347" y="538"/>
      <point x="292" y="538" type="curve"/>
      <point x="285" y="510"/>
      <point x="277" y="476"/>
      <point x="268" y="440" type="curve" smooth="yes"/>
      <point x="176" y="73" type="line" smooth="yes"/>
      <point x="174" y="67"/>
      <point x="178" y="62"/>
      <point x="184" y="62" type="curve" smooth="yes"/>
      <point x="234" y="62"/>
      <point x="273" y="62"/>
    </contour>
  </outline>
</glyph>
<glyph name="comma" format="1">
  <advance width="350"/>
  <unicode hex="002C"/>
  <outline>
    <contour>
      <point x="65" y="-190" type="curve" smooth="yes"/>
      <point x="70" y="-190"/>
      <point x="74" y="-189"/>
      <point x="77" y="-183" type="curve"/>
      <point x="145" y="-74"/>
      <point x="225" y="54"/>
      <point x="280" y="140" type="curve"/>
      <point x="285" y="148"/>
      <point x="283" y="153"/>
      <point x="275" y="153" type="curve" smooth="yes"/>
      <point x="204" y="153"/>
      <point x="162" y="153"/>
      <point x="79" y="153" type="curve"/>
      <point x="27" y="39"/>
      <point x="-26" y="-76"/>
      <point x="-79" y="-190" type="curve"/>
      <point x="-41" y="-190"/>
      <point x="2" y="-190"/>
    </contour>
  </outline>
</glyph>
<glyph name="period" format="1">
  <advance width="300"/>
  <unicode hex="002E"/>
  <outline>
    <contour>
      <point x="180" y="-10" type="curve"/>
      <point x="227" y="179" type="line" smooth="yes"/>
      <point x="229" y="185"/>
      <point x="225" y="190"/>
      <point x="219" y="190" type="curve" smooth="yes"/>
      <point x="156" y="190"/>
      <point x="93" y="190"/>
      <point x="30" y="190" type="curve"/>
      <point x="-17" y="1" type="line" smooth="yes"/>
      <point x="-19" y="-5"/>
      <point x="-15" y="-10"/>
      <point x="-9" y="-10" type="curve" smooth="yes"/>
      <point x="54" y="-10"/>
      <point x="117" y="-10"/>
    </contour>
  </outline>
</glyph>
<glyph name="zero" format="1">
  <advance width="600"/>
  <unicode hex="0030"/>
  <outline>
    <contour>
      <point x="396" y="720" type="curve" smooth="yes"/>
      <point x="258" y="720"/>
      <point x="141" y="636"/>
      <point x="99" y="468" type="curve" smooth="yes"/>
      <point x="51" y="274" type="line" smooth="yes"/>
      <point x="5" y="88"/>
      <point x="105" y="-20"/>
      <point x="241" y="-20" type="curve"/>
      <point x="241" y="-20"/>
      <point x="256" y="-5"/>
      <point x="260" y="115" type="curve"/>
      <point x="204" y="115"/>
      <point x="171" y="154"/>
      <point x="200" y="270" type="curve" smooth="yes"/>
      <point x="247" y="460" type="line" smooth="yes"/>
      <point x="271" y="555"/>
      <point x="319" y="585"/>
      <point x="377" y="585" type="curve" smooth="yes"/>
      <point x="424" y="585"/>
      <point x="468" y="585"/>
      <point x="494" y="585" type="curve"/>
      <point x="515" y="669"/>
      <point x="481" y="720"/>
    </contour>
    <contour>
      <point x="241" y="-20" type="curve" smooth="yes"/>
      <point x="379" y="-20"/>
      <point x="495" y="60"/>
      <point x="537" y="229" type="curve" smooth="yes"/>
      <point x="586" y="425" type="line" smooth="yes"/>
      <point x="632" y="612"/>
      <point x="533" y="720"/>
      <point x="396" y="720" type="curve"/>
      <point x="396" y="720"/>
      <point x="381" y="705"/>
      <point x="377" y="585" type="curve"/>
      <point x="433" y="585"/>
      <point x="466" y="546"/>
      <point x="437" y="430" type="curve" smooth="yes"/>
      <point x="390" y="240" type="line" smooth="yes"/>
      <point x="366" y="145"/>
      <point x="318" y="115"/>
      <point x="246" y="115" type="curve" smooth="yes"/>
      <point x="187" y="115"/>
      <point x="169" y="115"/>
      <point x="143" y="115" type="curve"/>
      <point x="122" y="31"/>
      <point x="156" y="-20"/>
    </contour>
  </outline>
</glyph>
<glyph name="five" format="1">
  <advance width="600"/>
  <unicode hex="0035"/>
  <outline>
    <contour>
      <point x="262" y="700" type="line"/>
      <point x="251" y="654"/>
      <point x="242" y="620"/>
      <point x="231" y="574" type="curve" smooth="yes"/>
      <point x="230" y="571"/>
      <point x="230" y="568"/>
      <point x="232" y="566" type="curve" smooth="yes"/>
      <point x="233" y="564"/>
      <point x="236" y="563"/>
      <point x="239" y="563" type="curve" smooth="yes"/>
      <point x="593" y="563" type="line"/>
      <point x="600" y="593"/>
      <point x="611" y="635"/>
      <point x="624" y="689" type="curve" smooth="yes"/>
      <point x="626" y="695"/>
      <point x="622" y="700"/>
      <point x="616" y="700" type="curve" smooth="yes"/>
    </contour>
    <contour>
      <point x="230" y="293" type="line"/>
      <point x="368" y="676" type="line" smooth="yes"/>
      <point x="374" y="691"/>
      <point x="353" y="700"/>
      <point x="276" y="700" type="curve" smooth="yes"/>
      <point x="226" y="700" type="line"/>
      <point x="91" y="313" type="line" smooth="yes"/>
      <point x="87" y="301"/>
      <point x="86" y="293"/>
      <point x="98" y="293" type="curve" smooth="yes"/>
    </contour>
    <contour>
      <point x="223" y="369" type="curve"/>
      <point x="185" y="336"/>
      <point x="191" y="293"/>
      <point x="230" y="293" type="curve"/>
      <point x="256" y="305"/>
      <point x="290" y="316"/>
      <point x="324" y="316" type="curve" smooth="yes"/>
      <point x="392" y="316"/>
      <point x="397" y="262"/>
      <point x="387" y="220" type="curve" smooth="yes"/>
      <point x="383" y="205"/>
      <point x="380" y="193"/>
      <point x="375" y="174" type="curve"/>
      <point x="421" y="174"/>
      <point x="529" y="186"/>
      <point x="539" y="228" type="curve" smooth="yes"/>
      <point x="571" y="356"/>
      <point x="508" y="438"/>
      <point x="406" y="438" type="curve" smooth="yes"/>
      <point x="323" y="438"/>
      <point x="269" y="410"/>
    </contour>
    <contour>
      <point x="216" y="-20" type="curve" smooth="yes"/>
      <point x="401" y="-20"/>
      <point x="497" y="59"/>
      <point x="529" y="188" type="curve" smooth="yes"/>
      <point x="539" y="228" type="line" smooth="yes"/>
      <point x="551" y="277"/>
      <point x="480" y="321"/>
      <point x="407" y="300" type="curve"/>
      <point x="400" y="270"/>
      <point x="394" y="248"/>
      <point x="387" y="220" type="curve" smooth="yes"/>
      <point x="382" y="200" type="line" smooth="yes"/>
      <point x="370" y="152"/>
      <point x="328" y="125"/>
      <point x="235" y="125" type="curve" smooth="yes"/>
      <point x="155" y="125"/>
      <point x="115" y="133"/>
      <point x="64" y="155" type="curve"/>
      <point x="44" y="155" type="line"/>
      <point x="34" y="115"/>
      <point x="23" y="73"/>
      <point x="10" y="20" type="curve" smooth="yes"/>
      <point x="9" y="17"/>
      <point x="9" y="15"/>
      <point x="10" y="13" type="curve" smooth="yes"/>
      <point x="19" y="2"/>
      <point x="102" y="-20"/>
    </contour>
  </outline>
</glyph>
<glyph name="eight" format="1">
  <advance width="600"/>
  <unicode hex="0038"/>
  <outline>
    <contour>
      <point x="418" y="375" type="curve" smooth="yes"/>
      <point x="301" y="421" type="line" smooth="yes"/>
      <point x="270" y="433"/>
      <point x="258" y="465"/>
      <point x="267" y="498" type="curve" smooth="yes"/>
      <point x="272" y="519"/>
      <point x="278" y="544"/>
      <point x="286" y="577" type="curve"/>
      <point x="210" y="576"/>
      <point x="143" y="568"/>
      <point x="130" y="513" type="curve" smooth="yes"/>
      <point x="107" y="419"/>
      <point x="135" y="358"/>
      <point x="243" y="314" type="curve" smooth="yes"/>
      <point x="352" y="269" type="line" smooth="yes"/>
      <point x="393" y="252"/>
      <point x="400" y="232"/>
      <point x="391" y="194" type="curve" smooth="yes"/>
      <point x="378" y="144"/>
      <point x="375" y="132"/>
      <point x="368" y="105" type="curve"/>
      <point x="447" y="105"/>
      <point x="514" y="131"/>
      <point x="530" y="189" type="curve"/>
      <point x="551" y="274"/>
      <point x="519" y="335"/>
    </contour>
    <contour>
      <point x="236" y="-20" type="curve" smooth="yes"/>
      <point x="434" y="-20"/>
      <point x="498" y="64"/>
      <point x="520" y="153" type="curve" smooth="yes"/>
      <point x="530" y="189" type="line" smooth="yes"/>
      <point x="540" y="229"/>
      <point x="490" y="263"/>
      <point x="408" y="265" type="curve"/>
      <point x="407" y="260"/>
      <point x="399" y="228"/>
      <point x="388" y="184" type="curve" smooth="yes"/>
      <point x="379" y="146"/>
      <point x="337" y="115"/>
      <point x="260" y="115" type="curve" smooth="yes"/>
      <point x="199" y="115"/>
      <point x="174" y="115"/>
      <point x="138" y="115" type="curve"/>
      <point x="120" y="44"/>
      <point x="166" y="-20"/>
    </contour>
    <contour>
      <point x="412" y="720" type="curve" smooth="yes"/>
      <point x="264" y="720"/>
      <point x="165" y="645"/>
      <point x="138" y="543" type="curve" smooth="yes"/>
      <point x="130" y="513" type="line" smooth="yes"/>
      <point x="119" y="471"/>
      <point x="150" y="430"/>
      <point x="250" y="430" type="curve"/>
      <point x="254" y="448"/>
      <point x="260" y="471"/>
      <point x="270" y="513" type="curve" smooth="yes"/>
      <point x="280" y="552"/>
      <point x="316" y="585"/>
      <point x="380" y="585" type="curve" smooth="yes"/>
      <point x="452" y="585"/>
      <point x="469" y="585"/>
      <point x="502" y="585" type="curve"/>
      <point x="524" y="672"/>
      <point x="485" y="720"/>
    </contour>
    <contour>
      <point x="409" y="349" type="curve" smooth="yes"/>
      <point x="465" y="349"/>
      <point x="567" y="423"/>
      <point x="586" y="500" type="curve" smooth="yes"/>
      <point x="594" y="530" type="line" smooth="yes"/>
      <point x="621" y="638"/>
      <point x="552" y="720"/>
      <point x="412" y="720" type="curve" smooth="yes"/>
      <point x="390" y="720"/>
      <point x="383" y="712"/>
      <point x="380" y="585" type="curve"/>
      <point x="447" y="585"/>
      <point x="460" y="556"/>
      <point x="449" y="513" type="curve" smooth="yes"/>
      <point x="446" y="498" type="line" smooth="yes"/>
      <point x="436" y="458"/>
      <point x="409" y="414"/>
      <point x="322" y="393" type="curve"/>
      <point x="341" y="366"/>
      <point x="374" y="349"/>
    </contour>
    <contour>
      <point x="260" y="115" type="curve"/>
      <point x="186" y="115"/>
      <point x="158" y="144"/>
      <point x="168" y="184" type="curve" smooth="yes"/>
      <point x="171" y="194" type="line" smooth="yes"/>
      <point x="181" y="234"/>
      <point x="217" y="285"/>
      <point x="322" y="304" type="curve"/>
      <point x="302" y="334"/>
      <point x="284" y="348"/>
      <point x="222" y="348" type="curve" smooth="yes"/>
      <point x="160" y="348"/>
      <point x="53" y="282"/>
      <point x="32" y="200" type="curve" smooth="yes"/>
      <point x="22" y="160" type="line" smooth="yes"/>
      <point x="-5" y="51"/>
      <point x="85" y="-20"/>
      <point x="236" y="-20" type="curve" smooth="yes"/>
      <point x="252" y="-20"/>
      <point x="273" y="7"/>
    </contour>
  </outline>
</glyph>
<glyph name="colon" format="1">
  <advance width="300"/>
  <unicode hex="003A"/>
  <outline>
    <contour>
      <point x="270" y="350" type="curve"/>
      <point x="317" y="539" type="line" smooth="yes"/>
      <point x="319" y="545"/>
      <point x="315" y="550"/>
      <point x="309" y="550" type="curve" smooth="yes"/>
      <point x="246" y="550"/>
      <point x="183" y="550"/>
      <point x="120" y="550" type="curve"/>
      <point x="73" y="361" type="line" smooth="yes"/>
      <point x="71" y="355"/>
      <point x="75" y="350"/>
      <point x="81" y="350" type="curve" smooth="yes"/>
      <point x="144" y="350"/>
      <point x="207" y="350"/>
    </contour>
    <contour>
      <point x="180" y="-10" type="curve"/>
      <point x="227" y="179" type="line" smooth="yes"/>
      <point x="229" y="185"/>
      <point x="225" y="190"/>
      <point x="219" y="190" type="curve" smooth="yes"/>
      <point x="156" y="190"/>
      <point x="93" y="190"/>
      <point x="30" y="190" type="curve"/>
      <point x="-17" y="1" type="line" smooth="yes"/>
      <point x="-19" y="-5"/>
      <point x="-15" y="-10"/>
      <point x="-9" y="-10" type="curve" smooth="yes"/>
      <point x="54" y="-10"/>
      <point x="117" y="-10"/>
    </contour>
  </outline>
</glyph>
<glyph name="semicolon" format="1">
  <advance width="350"/>
  <unicode hex="003B"/>
  <outline>
    <contour>
      <point x="295" y="350" type="curve"/>
      <point x="342" y="539" type="line" smooth="yes"/>
      <point x="344" y="545"/>
      <point x="340" y="550"/>
      <point x="334" y="550" type="curve" smooth="yes"/>
      <point x="271" y="550"/>
      <point x="208" y="550"/>
      <point x="145" y="550" type="curve"/>
      <point x="98" y="361" type="line" smooth="yes"/>
      <point x="96" y="355"/>
      <point x="100" y="350"/>
      <point x="106" y="350" type="curve" smooth="yes"/>
      <point x="169" y="350"/>
      <point x="232" y="350"/>
    </contour>
    <contour>
      <point x="32" y="-240" type="curve" smooth="yes"/>
      <point x="37" y="-240"/>
      <point x="41" y="-239"/>
      <point x="45" y="-233" type="curve"/>
      <point x="113" y="-124"/>
      <point x="193" y="4"/>
      <point x="247" y="90" type="curve"/>
      <point x="252" y="98"/>
      <point x="251" y="103"/>
      <point x="243" y="103" type="curve" smooth="yes"/>
      <point x="172" y="103"/>
      <point x="130" y="103"/>
      <point x="47" y="103" type="curve"/>
      <point x="-6" y="-11"/>
      <point x="-59" y="-126"/>
      <point x="-111" y="-240" type="curve"/>
      <point x="-73" y="-240"/>
      <point x="-31" y="-240"/>
    </contour>
  </outline>
</glyph>
<glyph name="equal" format="1">
  <advance width="600"/>
  <unicode hex="003D"/>
  <outline>
    <contour>
      <point x="118" y="500" type="line"/>
      <point x="106" y="454"/>
      <point x="96" y="415"/>
      <point x="85" y="369" type="curve" smooth="yes"/>
      <point x="84" y="366"/>
      <point x="84" y="363"/>
      <point x="86" y="361" type="curve" smooth="yes"/>
      <point x="87" y="359"/>
      <point x="90" y="358"/>
      <point x="93" y="358" type="curve"/>
      <point x="562" y="358" type="line"/>
      <point x="574" y="404"/>
      <point x="583" y="443"/>
      <point x="595" y="489" type="curve" smooth="yes"/>
      <point x="596" y="495"/>
      <point x="593" y="500"/>
      <point x="587" y="500" type="curve"/>
    </contour>
    <contour>
      <point x="497" y="98" type="line"/>
      <point x="508" y="144"/>
      <point x="518" y="183"/>
      <point x="530" y="229" type="curve" smooth="yes"/>
      <point x="530" y="232"/>
      <point x="530" y="235"/>
      <point x="529" y="237" type="curve" smooth="yes"/>
      <point x="527" y="239"/>
      <point x="524" y="240"/>
      <point x="521" y="240" type="curve"/>
      <point x="52" y="240" type="line"/>
      <point x="41" y="194"/>
      <point x="31" y="155"/>
      <point x="20" y="109" type="curve" smooth="yes"/>
      <point x="18" y="103"/>
      <point x="22" y="98"/>
      <point x="28" y="98" type="curve"/>
    </contour>
  </outline>
</glyph>
<glyph name="greater" format="1">
  <advance width="600"/>
  <unicode hex="003E"/>
  <outline>
    <contour>
      <point x="52" y="158" type="curve"/>
      <point x="17" y="20" type="line"/>
      <point x="16" y="14"/>
      <point x="18" y="10"/>
      <point x="24" y="10" type="curve" smooth="yes"/>
      <point x="28" y="10"/>
      <point x="32" y="11"/>
      <point x="49" y="17" type="curve" smooth="yes"/>
      <point x="99" y="37"/>
      <point x="346" y="134"/>
      <point x="502" y="195" type="curve"/>
      <point x="547" y="374" type="line"/>
      <point x="524" y="348"/>
      <point x="498" y="329"/>
      <point x="428" y="302" type="curve"/>
      <point x="303" y="254"/>
      <point x="177" y="206"/>
    </contour>
    <contour>
      <point x="162" y="594" type="curve"/>
      <point x="150" y="546"/>
      <point x="139" y="503"/>
      <point x="127" y="455" type="curve" smooth="yes"/>
      <point x="125" y="445"/>
      <point x="125" y="442"/>
      <point x="135" y="437" type="curve" smooth="yes"/>
      <point x="214" y="400"/>
      <point x="297" y="360"/>
      <point x="375" y="323" type="curve" smooth="yes"/>
      <point x="384" y="319"/>
      <point x="386" y="314"/>
      <point x="384" y="304" type="curve" smooth="yes"/>
      <point x="378" y="283"/>
      <point x="372" y="257"/>
      <point x="362" y="219" type="curve"/>
      <point x="468" y="219"/>
      <point x="528" y="299"/>
      <point x="544" y="363" type="curve" smooth="yes"/>
      <point x="552" y="393" type="line" smooth="yes"/>
      <point x="554" y="403"/>
      <point x="551" y="411"/>
      <point x="542" y="414" type="curve" smooth="yes"/>
      <point x="415" y="474"/>
      <point x="289" y="534"/>
    </contour>
  </outline>
</glyph>
<glyph name="question" format="1">
  <advance width="600"/>
  <unicode hex="003F"/>
  <outline>
    <contour>
      <point x="407" y="720" type="curve" smooth="yes"/>
      <point x="303" y="720"/>
      <point x="210" y="697"/>
      <point x="186" y="677" type="curve" smooth="yes"/>
      <point x="182" y="674"/>
      <point x="180" y="671"/>
      <point x="179" y="666" type="curve" smooth="yes"/>
      <point x="165" y="610"/>
      <point x="151" y="552"/>
      <point x="144" y="526" type="curve"/>
      <point x="164" y="526" type="line"/>
      <point x="229" y="558"/>
      <point x="294" y="570"/>
      <point x="368" y="570" type="curve" smooth="yes"/>
      <point x="454" y="570"/>
      <point x="454" y="550"/>
      <point x="448" y="527" type="curve" smooth="yes"/>
      <point x="442" y="502"/>
      <point x="437" y="483"/>
      <point x="430" y="455" type="curve"/>
      <point x="544" y="456"/>
      <point x="592" y="500"/>
      <point x="605" y="553" type="curve" smooth="yes"/>
      <point x="626" y="636"/>
      <point x="578" y="720"/>
    </contour>
    <contour>
      <point x="471" y="616" type="curve"/>
      <point x="465" y="594"/>
      <point x="456" y="559"/>
      <point x="448" y="527" type="curve" smooth="yes"/>
      <point x="440" y="492"/>
      <point x="432" y="484"/>
      <point x="367" y="446" type="curve" smooth="yes"/>
      <point x="340" y="430" type="line" smooth="yes"/>
      <point x="251" y="377"/>
      <point x="221" y="345"/>
      <point x="207" y="289" type="curve" smooth="yes"/>
      <point x="200" y="263" type="line" smooth="yes"/>
      <point x="198" y="254"/>
      <point x="200" y="252"/>
      <point x="208" y="252" type="curve" smooth="yes"/>
      <point x="349" y="252" type="line"/>
      <point x="351" y="258" type="line" smooth="yes"/>
      <point x="359" y="291"/>
      <point x="372" y="303"/>
      <point x="418" y="328" type="curve" smooth="yes"/>
      <point x="454" y="348" type="line" smooth="yes"/>
      <point x="548" y="401"/>
      <point x="578" y="446"/>
      <point x="597" y="522" type="curve" smooth="yes"/>
      <point x="605" y="553" type="line" smooth="yes"/>
      <point x="615" y="592"/>
      <point x="598" y="616"/>
    </contour>
    <contour>
      <point x="310" y="-10" type="curve"/>
      <point x="355" y="169" type="line" smooth="yes"/>
      <point x="356" y="175"/>
      <point x="352" y="180"/>
      <point x="346" y="180" type="curve" smooth="yes"/>
      <point x="283" y="180"/>
      <point x="220" y="180"/>
      <point x="157" y="180" type="curve"/>
      <point x="113" y="1" type="line" smooth="yes"/>
      <point x="111" y="-5"/>
      <point x="115" y="-10"/>
      <point x="121" y="-10" type="curve" smooth="yes"/>
      <point x="184" y="-10"/>
      <point x="247" y="-10"/>
    </contour>
  </outline>
</glyph>
<glyph name="at" format="1">
  <advance width="600"/>
  <unicode hex="0040"/>
  <outline>
    <contour>
      <point x="499" y="500" type="curve" smooth="yes"/>
      <point x="489" y="522"/>
      <point x="458" y="550"/>
      <point x="410" y="550" type="curve" smooth="yes"/>
      <point x="378" y="550"/>
      <point x="350" y="540"/>
      <point x="326" y="521" type="curve" smooth="yes"/>
      <point x="298" y="498"/>
      <point x="307" y="482"/>
      <point x="385" y="399" type="curve"/>
      <point x="394" y="432"/>
      <point x="410" y="442"/>
      <point x="431" y="442" type="curve" smooth="yes"/>
      <point x="464" y="442"/>
      <point x="480" y="437"/>
      <point x="496" y="421" type="curve"/>
      <point x="507" y="464"/>
      <point x="504" y="488"/>
    </contour>
    <contour>
      <point x="443" y="176" type="curve"/>
      <point x="412" y="144"/>
      <point x="362" y="130"/>
      <point x="332" y="130" type="curve" smooth="yes"/>
      <point x="322" y="130"/>
      <point x="319" y="136"/>
      <point x="323" y="150" type="curve" smooth="yes"/>
      <point x="385" y="399" type="line" smooth="yes"/>
      <point x="394" y="435"/>
      <point x="407" y="459"/>
      <point x="442" y="487" type="curve"/>
      <point x="371" y="535"/>
      <point x="357" y="546"/>
      <point x="326" y="521" type="curve" smooth="yes"/>
      <point x="293" y="495"/>
      <point x="276" y="462"/>
      <point x="265" y="419" type="curve" smooth="yes"/>
      <point x="190" y="119" type="line" smooth="yes"/>
      <point x="173" y="51"/>
      <point x="206" y="10"/>
      <point x="268" y="10" type="curve" smooth="yes"/>
      <point x="319" y="10"/>
      <point x="366" y="33"/>
      <point x="424" y="101" type="curve" smooth="yes"/>
      <point x="432" y="111"/>
      <point x="435" y="120"/>
    </contour>
    <contour>
      <point x="482" y="20" type="line"/>
      <point x="491" y="56"/>
      <point x="500" y="92"/>
      <point x="509" y="128" type="curve"/>
      <point x="613" y="540" type="line" smooth="yes"/>
      <point x="645" y="669"/>
      <point x="572" y="760"/>
      <point x="424" y="760" type="curve" smooth="yes"/>
      <point x="407" y="760"/>
      <point x="394" y="741"/>
      <point x="401" y="668" type="curve"/>
      <point x="479" y="668"/>
      <point x="511" y="635"/>
      <point x="491" y="555" type="curve" smooth="yes"/>
      <point x="380" y="111" type="line" smooth="yes"/>
      <point x="379" y="107"/>
      <point x="427" y="20"/>
      <point x="437" y="20" type="curve" smooth="yes"/>
    </contour>
    <contour>
      <point x="120" y="530" type="curve" smooth="yes"/>
      <point x="14" y="108" type="line" smooth="yes"/>
      <point x="-13" y="-3"/>
      <point x="-8" y="-78"/>
      <point x="26" y="-123" type="curve" smooth="yes"/>
      <point x="49" y="-155"/>
      <point x="181" y="-158"/>
      <point x="237" y="-101" type="curve"/>
      <point x="107" y="-101"/>
      <point x="75" y="-50"/>
      <point x="108" y="83" type="curve" smooth="yes"/>
      <point x="215" y="510" type="line" smooth="yes"/>
      <point x="236" y="595"/>
      <point x="306" y="668"/>
      <point x="401" y="668" type="curve" smooth="yes"/>
      <point x="455" y="668"/>
      <point x="491" y="654"/>
      <point x="520" y="622" type="curve"/>
      <point x="536" y="632"/>
      <point x="541" y="636"/>
      <point x="547" y="660" type="curve" smooth="yes"/>
      <point x="561" y="719"/>
      <point x="511" y="760"/>
      <point x="424" y="760" type="curve" smooth="yes"/>
      <point x="281" y="760"/>
      <point x="153" y="660"/>
    </contour>
    <contour>
      <point x="200" y="-191" type="curve" smooth="yes"/>
      <point x="268" y="-191"/>
      <point x="350" y="-175"/>
      <point x="366" y="-162" type="curve" smooth="yes"/>
      <point x="368" y="-160"/>
      <point x="370" y="-157"/>
      <point x="371" y="-154" type="curve" smooth="yes"/>
      <point x="391" y="-75" type="line"/>
      <point x="371" y="-75" type="line"/>
      <point x="331" y="-92"/>
      <point x="283" y="-101"/>
      <point x="237" y="-101" type="curve" smooth="yes"/>
      <point x="135" y="-101"/>
      <point x="105" y="-75"/>
      <point x="65" y="-19" type="curve"/>
      <point x="16" y="-71"/>
      <point x="12" y="-105"/>
      <point x="26" y="-123" type="curve"/>
      <point x="59" y="-167"/>
      <point x="113" y="-191"/>
    </contour>
  </outline>
</glyph>
<glyph name="D" format="1">
  <advance width="650"/>
  <unicode hex="0044"/>
  <outline>
    <contour>
      <point x="180" y="50" type="curve"/>
      <point x="327" y="639" type="line" smooth="yes"/>
      <point x="328" y="645"/>
      <point x="325" y="650"/>
      <point x="170" y="650" type="curve"/>
      <point x="22" y="61" type="line" smooth="yes"/>
      <point x="21" y="55"/>
      <point x="25" y="50"/>
    </contour>
    <contour>
      <point x="136" y="700" type="curve"/>
      <point x="126" y="657"/>
      <point x="115" y="612"/>
      <point x="104" y="569" type="curve"/>
      <point x="104" y="566"/>
      <point x="104" y="563"/>
      <point x="105" y="561" type="curve" smooth="yes"/>
      <point x="107" y="559"/>
      <point x="110" y="558"/>
      <point x="113" y="558" type="curve" smooth="yes"/>
      <point x="127" y="558"/>
      <point x="150" y="558"/>
      <point x="164" y="558" type="curve" smooth="yes"/>
      <point x="227" y="558"/>
      <point x="310" y="558"/>
      <point x="372" y="558" type="curve"/>
      <point x="437" y="558"/>
      <point x="461" y="558"/>
      <point x="498" y="558" type="curve"/>
      <point x="518" y="641"/>
      <point x="515" y="700"/>
      <point x="392" y="700" type="curve" smooth="yes"/>
      <point x="319" y="700"/>
      <point x="211" y="700"/>
    </contour>
    <contour>
      <point x="590" y="256" type="curve" smooth="yes"/>
      <point x="630" y="412" type="line" smooth="yes"/>
      <point x="677" y="600"/>
      <point x="570" y="700"/>
      <point x="392" y="700" type="curve" smooth="yes"/>
      <point x="382" y="700"/>
      <point x="381" y="691"/>
      <point x="372" y="558" type="curve"/>
      <point x="476" y="558"/>
      <point x="503" y="505"/>
      <point x="482" y="421" type="curve" smooth="yes"/>
      <point x="443" y="268" type="line" smooth="yes"/>
      <point x="420" y="176"/>
      <point x="359" y="142"/>
      <point x="278" y="142" type="curve" smooth="yes"/>
      <point x="229" y="142"/>
      <point x="84" y="142"/>
      <point x="43" y="142" type="curve"/>
      <point x="31" y="95"/>
      <point x="24" y="66"/>
      <point x="10" y="11" type="curve" smooth="yes"/>
      <point x="8" y="5"/>
      <point x="12" y="0"/>
      <point x="18" y="0" type="curve" smooth="yes"/>
      <point x="246" y="0" type="line" smooth="yes"/>
      <point x="432" y="0"/>
      <point x="545" y="75"/>
    </contour>
    <contour>
      <point x="422" y="711" type="move" name="top"/>
    </contour>
  </outline>
</glyph>
<glyph name="E" format="1">
  <advance width="550"/>
  <unicode hex="0045"/>
  <outline>
    <contour>
      <point x="137" y="700" type="line"/>
      <point x="126" y="657"/>
      <point x="115" y="612"/>
      <point x="104" y="569" type="curve" smooth="yes"/>
      <point x="104" y="566"/>
      <point x="104" y="563"/>
      <point x="105" y="561" type="curve" smooth="yes"/>
      <point x="107" y="559"/>
      <point x="110" y="558"/>
      <point x="113" y="558" type="curve" smooth="yes"/>
      <point x="572" y="558" type="line"/>
      <point x="582" y="601"/>
      <point x="594" y="646"/>
      <point x="604" y="689" type="curve" smooth="yes"/>
      <point x="605" y="692"/>
      <point x="605" y="695"/>
      <point x="603" y="697" type="curve" smooth="yes"/>
      <point x="602" y="699"/>
      <point x="599" y="700"/>
      <point x="596" y="700" type="curve" smooth="yes"/>
    </contour>
    <contour>
      <point x="192" y="100" type="curve"/>
      <point x="327" y="639" type="line" smooth="yes"/>
      <point x="328" y="645"/>
      <point x="325" y="650"/>
      <point x="170" y="650" type="curve"/>
      <point x="35" y="111" type="line"/>
      <point x="33" y="105"/>
      <point x="37" y="100"/>
    </contour>
    <contour>
      <point x="43" y="142" type="line"/>
      <point x="10" y="11" type="line" smooth="yes"/>
      <point x="8" y="5"/>
      <point x="12" y="0"/>
      <point x="18" y="0" type="curve" smooth="yes"/>
      <point x="432" y="0" type="line"/>
      <point x="443" y="43"/>
      <point x="454" y="88"/>
      <point x="465" y="131" type="curve" smooth="yes"/>
      <point x="466" y="137"/>
      <point x="463" y="142"/>
      <point x="457" y="142" type="curve" smooth="yes"/>
    </contour>
    <contour>
      <point x="182" y="420" type="line"/>
      <point x="150" y="291"/>
      <point x="153" y="282"/>
      <point x="159" y="282" type="curve" smooth="yes"/>
      <point x="443" y="282" type="line"/>
      <point x="452" y="320"/>
      <point x="463" y="363"/>
      <point x="474" y="409" type="curve" smooth="yes"/>
      <point x="475" y="412"/>
      <point x="475" y="415"/>
      <point x="473" y="417" type="curve" smooth="yes"/>
      <point x="472" y="419"/>
      <point x="469" y="420"/>
      <point x="466" y="420" type="curve" smooth="yes"/>
    </contour>
    <contour>
      <point x="370" y="711" type="move" name="top"/>
    </contour>
    <contour>
      <point x="422" y="-1" type="move" name="ogonek"/>
    </contour>
    <contour>
      <point x="192" y="-1" type="move" name="bottom"/>
    </contour>
  </outline>
</glyph>
<glyph name="F" format="1">
  <advance width="550"/>
  <unicode hex="0046"/>
  <outline>
    <contour>
      <point x="187" y="0" type="curve"/>
      <point x="194" y="28"/>
      <point x="203" y="62"/>
      <point x="212" y="98" type="curve" smooth="yes"/>
      <point x="345" y="632" type="line"/>
      <point x="348" y="643"/>
      <point x="336" y="649"/>
      <point x="189" y="649" type="curve"/>
      <point x="30" y="11" type="line" smooth="yes"/>
      <point x="28" y="5"/>
      <point x="32" y="0"/>
      <point x="38" y="0" type="curve" smooth="yes"/>
      <point x="88" y="0"/>
      <point x="137" y="0"/>
    </contour>
    <contour>
      <point x="157" y="700" type="line"/>
      <point x="146" y="657"/>
      <point x="135" y="612"/>
      <point x="124" y="569" type="curve" smooth="yes"/>
      <point x="124" y="566"/>
      <point x="124" y="563"/>
      <point x="125" y="561" type="curve" smooth="yes"/>
      <point x="127" y="559"/>
      <point x="130" y="558"/>
      <point x="133" y="558" type="curve"/>
      <point x="562" y="558" type="line"/>
      <point x="572" y="601"/>
      <point x="583" y="646"/>
      <point x="594" y="689" type="curve" smooth="yes"/>
      <point x="595" y="692"/>
      <point x="595" y="695"/>
      <point x="593" y="697" type="curve" smooth="yes"/>
      <point x="592" y="699"/>
      <point x="589" y="700"/>
      <point x="586" y="700" type="curve"/>
    </contour>
    <contour>
      <point x="195" y="390" type="line"/>
      <point x="165" y="273"/>
      <point x="161" y="248"/>
      <point x="170" y="248" type="curve"/>
      <point x="454" y="248" type="line"/>
      <point x="465" y="291"/>
      <point x="476" y="336"/>
      <point x="487" y="379" type="curve"/>
      <point x="488" y="382"/>
      <point x="487" y="385"/>
      <point x="486" y="387" type="curve" smooth="yes"/>
      <point x="484" y="389"/>
      <point x="482" y="390"/>
      <point x="479" y="390" type="curve"/>
    </contour>
  </outline>
</glyph>
<glyph name="H" format="1">
  <advance width="650"/>
  <unicode hex="0048"/>
  <outline>
    <contour>
      <point x="177" y="700" type="curve"/>
      <point x="168" y="664"/>
      <point x="159" y="629"/>
      <point x="150" y="593" type="curve" smooth="yes"/>
      <point x="5" y="11" type="line" smooth="yes"/>
      <point x="3" y="5"/>
      <point x="7" y="0"/>
      <point x="13" y="0" type="curve" smooth="yes"/>
      <point x="63" y="0"/>
      <point x="112" y="0"/>
      <point x="162" y="0" type="curve"/>
      <point x="334" y="689" type="line" smooth="yes"/>
      <point x="335" y="692"/>
      <point x="335" y="695"/>
      <point x="333" y="697" type="curve" smooth="yes"/>
      <point x="332" y="699"/>
      <point x="329" y="700"/>
      <point x="326" y="700" type="curve" smooth="yes"/>
      <point x="276" y="700"/>
      <point x="227" y="700"/>
    </contour>
    <contour>
      <point x="512" y="0" type="curve"/>
      <point x="520" y="32"/>
      <point x="530" y="70"/>
      <point x="540" y="110" type="curve" smooth="yes"/>
      <point x="684" y="689" type="line" smooth="yes"/>
      <point x="686" y="695"/>
      <point x="682" y="700"/>
      <point x="676" y="700" type="curve" smooth="yes"/>
      <point x="626" y="700"/>
      <point x="577" y="700"/>
      <point x="527" y="700" type="curve"/>
      <point x="355" y="11" type="line" smooth="yes"/>
      <point x="354" y="8"/>
      <point x="354" y="5"/>
      <point x="356" y="3" type="curve" smooth="yes"/>
      <point x="357" y="1"/>
      <point x="360" y="0"/>
      <point x="363" y="0" type="curve" smooth="yes"/>
      <point x="413" y="0"/>
      <point x="462" y="0"/>
    </contour>
    <contour>
      <point x="172" y="420" type="line"/>
      <point x="139" y="289" type="line" smooth="yes"/>
      <point x="139" y="286"/>
      <point x="139" y="283"/>
      <point x="140" y="281" type="curve" smooth="yes"/>
      <point x="142" y="279"/>
      <point x="145" y="278"/>
      <point x="148" y="278" type="curve"/>
      <point x="512" y="278" type="line"/>
      <point x="545" y="413"/>
      <point x="542" y="420"/>
      <point x="536" y="420" type="curve" smooth="yes"/>
    </contour>
    <contour>
      <point x="435" y="711" type="move" name="top"/>
    </contour>
  </outline>
</glyph>
<glyph name="I" format="1">
  <advance width="500"/>
  <unicode hex="0049"/>
  <outline>
    <contour>
      <point x="275" y="50" type="curve"/>
      <point x="422" y="639" type="line" smooth="yes"/>
      <point x="423" y="645"/>
      <point x="420" y="650"/>
      <point x="265" y="650" type="curve"/>
      <point x="117" y="61" type="line" smooth="yes"/>
      <point x="116" y="55"/>
      <point x="120" y="50"/>
    </contour>
    <contour>
      <point x="177" y="700" type="line"/>
      <point x="166" y="657"/>
      <point x="155" y="612"/>
      <point x="144" y="569" type="curve"/>
      <point x="144" y="566"/>
      <point x="144" y="563"/>
      <point x="145" y="561" type="curve" smooth="yes"/>
      <point x="147" y="559"/>
      <point x="150" y="558"/>
      <point x="153" y="558" type="curve" smooth="yes"/>
      <point x="502" y="558" type="line"/>
      <point x="512" y="601"/>
      <point x="524" y="646"/>
      <point x="534" y="689" type="curve" smooth="yes"/>
      <point x="536" y="695"/>
      <point x="532" y="700"/>
      <point x="526" y="700" type="curve" smooth="yes"/>
    </contour>
    <contour>
      <point x="38" y="142" type="line"/>
      <point x="27" y="99"/>
      <point x="16" y="54"/>
      <point x="5" y="11" type="curve"/>
      <point x="4" y="8"/>
      <point x="4" y="5"/>
      <point x="6" y="3" type="curve" smooth="yes"/>
      <point x="7" y="1"/>
      <point x="10" y="0"/>
      <point x="13" y="0" type="curve" smooth="yes"/>
      <point x="362" y="0" type="line"/>
      <point x="373" y="43"/>
      <point x="384" y="88"/>
      <point x="395" y="131" type="curve" smooth="yes"/>
      <point x="396" y="137"/>
      <point x="393" y="142"/>
      <point x="387" y="142" type="curve" smooth="yes"/>
    </contour>
    <contour>
      <point x="360" y="711" type="move" name="top"/>
    </contour>
    <contour>
      <point x="362" y="-1" type="move" name="ogonek"/>
    </contour>
    <contour>
      <point x="182" y="-1" type="move" name="bottom"/>
    </contour>
  </outline>
</glyph>
<glyph name="J" format="1">
  <advance width="500"/>
  <unicode hex="004A"/>
  <outline>
    <contour>
      <point x="198" y="700" type="line"/>
      <point x="187" y="657"/>
      <point x="176" y="612"/>
      <point x="165" y="569" type="curve" smooth="yes"/>
      <point x="165" y="566"/>
      <point x="165" y="563"/>
      <point x="166" y="561" type="curve" smooth="yes"/>
      <point x="168" y="559"/>
      <point x="171" y="558"/>
      <point x="174" y="558" type="curve" smooth="yes"/>
      <point x="462" y="558" type="line"/>
      <point x="476" y="614"/>
      <point x="475" y="700"/>
      <point x="422" y="700" type="curve"/>
    </contour>
    <contour>
      <point x="412" y="200" type="curve" smooth="yes"/>
      <point x="534" y="689" type="line" smooth="yes"/>
      <point x="536" y="695"/>
      <point x="532" y="700"/>
      <point x="526" y="700" type="curve" smooth="yes"/>
      <point x="387" y="700" type="line"/>
      <point x="269" y="226" type="line" smooth="yes"/>
      <point x="249" y="149"/>
      <point x="244" y="128"/>
      <point x="230" y="72" type="curve"/>
      <point x="304" y="72"/>
      <point x="383" y="85"/>
    </contour>
    <contour>
      <point x="154" y="130" type="curve" smooth="yes"/>
      <point x="108" y="130"/>
      <point x="71" y="141"/>
      <point x="32" y="160" type="curve"/>
      <point x="12" y="160" type="line"/>
      <point x="1" y="117"/>
      <point x="-8" y="79"/>
      <point x="-19" y="36" type="curve"/>
      <point x="-20" y="32"/>
      <point x="-20" y="30"/>
      <point x="-18" y="27" type="curve" smooth="yes"/>
      <point x="-7" y="13"/>
      <point x="64" y="-12"/>
      <point x="117" y="-12" type="curve" smooth="yes"/>
      <point x="141" y="-12" type="line" smooth="yes"/>
      <point x="291" y="-12"/>
      <point x="375" y="51"/>
      <point x="412" y="200" type="curve"/>
      <point x="415" y="211"/>
      <point x="413" y="242"/>
      <point x="269" y="226" type="curve"/>
      <point x="248" y="142"/>
      <point x="219" y="130"/>
    </contour>
    <contour>
      <point x="365" y="711" type="move" name="top"/>
    </contour>
  </outline>
</glyph>
<glyph name="L" format="1">
  <advance width="550"/>
  <unicode hex="004C"/>
  <outline>
    <contour>
      <point x="187" y="100" type="curve"/>
      <point x="334" y="689" type="line" smooth="yes"/>
      <point x="335" y="692"/>
      <point x="335" y="695"/>
      <point x="333" y="697" type="curve" smooth="yes"/>
      <point x="332" y="699"/>
      <point x="329" y="700"/>
      <point x="326" y="700" type="curve" smooth="yes"/>
      <point x="276" y="700"/>
      <point x="227" y="700"/>
      <point x="177" y="700" type="curve"/>
      <point x="169" y="667"/>
      <point x="160" y="633"/>
      <point x="152" y="600" type="curve" smooth="yes"/>
      <point x="30" y="111" type="line" smooth="yes"/>
      <point x="28" y="105"/>
      <point x="32" y="100"/>
    </contour>
    <contour>
      <point x="38" y="142" type="line"/>
      <point x="5" y="11" type="line" smooth="yes"/>
      <point x="3" y="5"/>
      <point x="7" y="0"/>
      <point x="13" y="0" type="curve" smooth="yes"/>
      <point x="432" y="0" type="line"/>
      <point x="443" y="43"/>
      <point x="454" y="88"/>
      <point x="465" y="131" type="curve" smooth="yes"/>
      <point x="466" y="137"/>
      <point x="463" y="142"/>
      <point x="457" y="142" type="curve" smooth="yes"/>
    </contour>
    <contour>
      <point x="485" y="550" type="move" name="caronslovak"/>
    </contour>
    <contour>
      <point x="260" y="711" type="move" name="top"/>
    </contour>
    <contour>
      <point x="467" y="400" type="move" name="dot"/>
    </contour>
    <contour>
      <point x="217" y="-1" type="move" name="bottom"/>
    </contour>
  </outline>
</glyph>
<glyph name="M" format="1">
  <advance width="800"/>
  <unicode hex="004D"/>
  <outline>
    <contour>
      <point x="148" y="0" type="curve"/>
      <point x="165" y="68"/>
      <point x="182" y="135"/>
      <point x="199" y="203" type="curve" smooth="yes"/>
      <point x="234" y="367"/>
      <point x="268" y="529"/>
      <point x="302" y="689" type="curve" smooth="yes"/>
      <point x="303" y="692"/>
      <point x="303" y="695"/>
      <point x="301" y="697" type="curve" smooth="yes"/>
      <point x="300" y="699"/>
      <point x="297" y="700"/>
      <point x="294" y="700" type="curve" smooth="yes"/>
      <point x="255" y="700"/>
      <point x="216" y="700"/>
      <point x="177" y="700" type="curve"/>
      <point x="168" y="662"/>
      <point x="158" y="625"/>
      <point x="149" y="587" type="curve" smooth="yes"/>
      <point x="101" y="395"/>
      <point x="53" y="203"/>
      <point x="5" y="11" type="curve" smooth="yes"/>
      <point x="4" y="8"/>
      <point x="4" y="5"/>
      <point x="6" y="3" type="curve" smooth="yes"/>
      <point x="7" y="1"/>
      <point x="10" y="0"/>
      <point x="13" y="0" type="curve" smooth="yes"/>
      <point x="58" y="0"/>
      <point x="103" y="0"/>
    </contour>
    <contour>
      <point x="662" y="0" type="curve"/>
      <point x="671" y="37"/>
      <point x="681" y="75"/>
      <point x="690" y="112" type="curve" smooth="yes"/>
      <point x="738" y="304"/>
      <point x="786" y="497"/>
      <point x="834" y="689" type="curve"/>
      <point x="835" y="692"/>
      <point x="835" y="695"/>
      <point x="833" y="697" type="curve" smooth="yes"/>
      <point x="832" y="699"/>
      <point x="829" y="700"/>
      <point x="826" y="700" type="curve" smooth="yes"/>
      <point x="708" y="700" type="line"/>
      <point x="704" y="683"/>
      <point x="699" y="665"/>
      <point x="694" y="648" type="curve"/>
      <point x="651" y="499"/>
      <point x="607" y="350"/>
      <point x="564" y="204" type="curve" smooth="yes"/>
      <point x="549" y="143"/>
      <point x="533" y="81"/>
      <point x="518" y="20" type="curve" smooth="yes"/>
      <point x="515" y="8"/>
      <point x="516" y="5"/>
      <point x="518" y="3" type="curve" smooth="yes"/>
      <point x="519" y="1"/>
      <point x="521" y="0"/>
      <point x="525" y="0" type="curve" smooth="yes"/>
      <point x="571" y="0"/>
      <point x="616" y="0"/>
    </contour>
    <contour>
      <point x="376" y="687" type="curve" smooth="yes"/>
      <point x="374" y="697"/>
      <point x="371" y="700"/>
      <point x="363" y="700" type="curve"/>
      <point x="236" y="700" type="line"/>
      <point x="240" y="673"/>
      <point x="249" y="648"/>
      <point x="252" y="621" type="curve" smooth="yes"/>
      <point x="270" y="463"/>
      <point x="287" y="305"/>
      <point x="305" y="147" type="curve"/>
      <point x="305" y="143"/>
      <point x="310" y="140"/>
      <point x="314" y="140" type="curve" smooth="yes"/>
      <point x="322" y="140"/>
      <point x="329" y="146"/>
      <point x="427" y="240" type="curve"/>
      <point x="410" y="389"/>
      <point x="393" y="538"/>
    </contour>
    <contour>
      <point x="630" y="700" type="curve"/>
      <point x="537" y="547"/>
      <point x="442" y="393"/>
      <point x="349" y="240" type="curve"/>
      <point x="305" y="158"/>
      <point x="320" y="146"/>
      <point x="314" y="140" type="curve"/>
      <point x="426" y="140" type="line"/>
      <point x="538" y="322"/>
      <point x="650" y="505"/>
      <point x="762" y="687" type="curve" smooth="yes"/>
      <point x="767" y="696"/>
      <point x="765" y="700"/>
      <point x="757" y="700" type="curve" smooth="yes"/>
      <point x="742" y="700"/>
      <point x="637" y="700"/>
    </contour>
  </outline>
</glyph>
<glyph name="N" format="1">
  <advance width="700"/>
  <unicode hex="004E"/>
  <outline>
    <contour>
      <point x="152" y="0" type="curve"/>
      <point x="193" y="163" type="line"/>
      <point x="268" y="534"/>
      <point x="297" y="692"/>
      <point x="293" y="697" type="curve" smooth="yes"/>
      <point x="292" y="699"/>
      <point x="289" y="700"/>
      <point x="286" y="700" type="curve"/>
      <point x="253" y="700"/>
      <point x="182" y="700"/>
      <point x="177" y="700" type="curve"/>
      <point x="165" y="653"/>
      <point x="154" y="607"/>
      <point x="142" y="560" type="curve" smooth="yes"/>
      <point x="5" y="11" type="line"/>
      <point x="3" y="5"/>
      <point x="7" y="0"/>
      <point x="13" y="0" type="curve"/>
      <point x="59" y="0"/>
      <point x="106" y="0"/>
    </contour>
    <contour>
      <point x="562" y="0" type="line"/>
      <point x="734" y="689" type="line"/>
      <point x="736" y="695"/>
      <point x="732" y="700"/>
      <point x="726" y="700" type="curve"/>
      <point x="587" y="700" type="line"/>
      <point x="536" y="494" type="line"/>
      <point x="483" y="194"/>
      <point x="452" y="5"/>
      <point x="454" y="3" type="curve" smooth="yes"/>
      <point x="455" y="1"/>
      <point x="458" y="0"/>
      <point x="461" y="0" type="curve"/>
    </contour>
    <contour>
      <point x="276" y="700" type="line"/>
      <point x="265" y="700"/>
      <point x="259" y="697"/>
      <point x="183" y="626" type="curve"/>
      <point x="263" y="420"/>
      <point x="343" y="214"/>
      <point x="423" y="8" type="curve"/>
      <point x="424" y="1"/>
      <point x="429" y="0"/>
      <point x="433" y="0" type="curve" smooth="yes"/>
      <point x="437" y="0"/>
      <point x="469" y="0"/>
      <point x="472" y="0" type="curve"/>
      <point x="487" y="0"/>
      <point x="513" y="100"/>
      <point x="527" y="155" type="curve"/>
      <point x="457" y="333"/>
      <point x="387" y="512"/>
      <point x="318" y="690" type="curve"/>
      <point x="315" y="699"/>
      <point x="313" y="700"/>
      <point x="302" y="700" type="curve"/>
    </contour>
    <contour>
      <point x="460" y="711" type="move" name="top"/>
    </contour>
    <contour>
      <point x="282" y="-1" type="move" name="bottom"/>
    </contour>
  </outline>
</glyph>
<glyph name="Q" format="1">
  <advance width="650"/>
  <unicode hex="0051"/>
  <outline>
    <contour>
      <point x="417" y="720" type="curve" smooth="yes"/>
      <point x="246" y="720"/>
      <point x="143" y="617"/>
      <point x="101" y="448" type="curve" smooth="yes"/>
      <point x="53" y="260" type="line" smooth="yes"/>
      <point x="8" y="77"/>
      <point x="113" y="-20"/>
      <point x="271" y="-20" type="curve" smooth="yes"/>
      <point x="280" y="-20"/>
      <point x="293" y="-2"/>
      <point x="293" y="122" type="curve"/>
      <point x="216" y="122"/>
      <point x="181" y="168"/>
      <point x="203" y="256" type="curve" smooth="yes"/>
      <point x="250" y="444" type="line" smooth="yes"/>
      <point x="273" y="538"/>
      <point x="324" y="578"/>
      <point x="397" y="578" type="curve" smooth="yes"/>
      <point x="463" y="578"/>
      <point x="501" y="578"/>
      <point x="530" y="578" type="curve"/>
      <point x="545" y="639"/>
      <point x="530" y="720"/>
    </contour>
    <contour>
      <point x="271" y="-20" type="curve" smooth="yes"/>
      <point x="435" y="-20"/>
      <point x="543" y="66"/>
      <point x="586" y="238" type="curve" smooth="yes"/>
      <point x="634" y="431" type="line" smooth="yes"/>
      <point x="681" y="618"/>
      <point x="575" y="720"/>
      <point x="417" y="720" type="curve" smooth="yes"/>
      <point x="408" y="720"/>
      <point x="396" y="707"/>
      <point x="397" y="578" type="curve"/>
      <point x="474" y="578"/>
      <point x="509" y="530"/>
      <point x="486" y="444" type="curve" smooth="yes"/>
      <point x="440" y="261" type="line" smooth="yes"/>
      <point x="418" y="168"/>
      <point x="366" y="122"/>
      <point x="293" y="122" type="curve" smooth="yes"/>
      <point x="227" y="122"/>
      <point x="189" y="122"/>
      <point x="160" y="122" type="curve"/>
      <point x="144" y="61"/>
      <point x="158" y="-20"/>
    </contour>
    <contour>
      <point x="455" y="127" type="line"/>
      <point x="316" y="78"/>
      <point x="306" y="69"/>
      <point x="315" y="46" type="curve" smooth="yes"/>
      <point x="359" y="-77" type="line" smooth="yes"/>
      <point x="380" y="-137"/>
      <point x="403" y="-160"/>
      <point x="478" y="-160" type="curve" smooth="yes"/>
      <point x="501" y="-160" type="line" smooth="yes"/>
      <point x="508" y="-160"/>
      <point x="513" y="-156"/>
      <point x="515" y="-149" type="curve" smooth="yes"/>
      <point x="527" y="-100"/>
      <point x="539" y="-50"/>
      <point x="552" y="0" type="curve"/>
      <point x="547" y="0" type="line"/>
      <point x="541" y="0"/>
      <point x="538" y="0"/>
      <point x="532" y="0" type="curve" smooth="yes"/>
      <point x="502" y="0"/>
      <point x="493" y="3"/>
      <point x="486" y="27" type="curve" smooth="yes"/>
    </contour>
  </outline>
</glyph>
<glyph name="U" format="1">
  <advance width="650"/>
  <unicode hex="0055"/>
  <outline>
    <contour>
      <point x="177" y="700" type="curve"/>
      <point x="169" y="667"/>
      <point x="160" y="633"/>
      <point x="152" y="600" type="curve" smooth="yes"/>
      <point x="47" y="178" type="line"/>
      <point x="29" y="107"/>
      <point x="90" y="108"/>
      <point x="189" y="108" type="curve"/>
      <point x="197" y="141"/>
      <point x="201" y="156"/>
      <point x="211" y="197" type="curve"/>
      <point x="334" y="689" type="line"/>
      <point x="336" y="695"/>
      <point x="332" y="700"/>
      <point x="326" y="700" type="curve"/>
      <point x="276" y="700"/>
      <point x="227" y="700"/>
    </contour>
    <contour>
      <point x="175" y="-10" type="curve" smooth="yes"/>
      <point x="241" y="-10"/>
      <point x="316" y="26"/>
      <point x="388" y="111" type="curve" smooth="yes"/>
      <point x="420" y="149"/>
      <point x="446" y="208"/>
      <point x="430" y="259" type="curve"/>
      <point x="357" y="182"/>
      <point x="297" y="142"/>
      <point x="247" y="142" type="curve" smooth="yes"/>
      <point x="208" y="142"/>
      <point x="201" y="157"/>
      <point x="211" y="197" type="curve"/>
      <point x="111" y="197"/>
      <point x="48" y="186"/>
      <point x="47" y="178" type="curve" smooth="yes"/>
      <point x="18" y="65"/>
      <point x="52" y="-10"/>
    </contour>
    <contour>
      <point x="512" y="0" type="curve"/>
      <point x="520" y="32"/>
      <point x="530" y="70"/>
      <point x="540" y="110" type="curve" smooth="yes"/>
      <point x="684" y="689" type="line" smooth="yes"/>
      <point x="686" y="695"/>
      <point x="682" y="700"/>
      <point x="676" y="700" type="curve" smooth="yes"/>
      <point x="626" y="700"/>
      <point x="577" y="700"/>
      <point x="527" y="700" type="curve"/>
      <point x="355" y="11" type="line" smooth="yes"/>
      <point x="354" y="8"/>
      <point x="354" y="5"/>
      <point x="356" y="3" type="curve" smooth="yes"/>
      <point x="357" y="1"/>
      <point x="360" y="0"/>
      <point x="363" y="0" type="curve" smooth="yes"/>
      <point x="413" y="0"/>
      <point x="462" y="0"/>
    </contour>
    <contour>
      <point x="435" y="711" type="move" name="top"/>
    </contour>
    <contour>
      <point x="512" y="-1" type="move" name="ogonek"/>
    </contour>
    <contour>
      <point x="435" y="711" type="move" name="ring"/>
    </contour>
    <contour>
      <point x="257" y="-1" type="move" name="bottom"/>
    </contour>
  </outline>
</glyph>
<glyph name="W" format="1">
  <advance width="900"/>
  <unicode hex="0057"/>
  <outline>
    <contour>
      <point x="133" y="700" type="curve"/>
      <point x="117" y="472"/>
      <point x="101" y="243"/>
      <point x="85" y="15" type="curve"/>
      <point x="83" y="5"/>
      <point x="92" y="0"/>
      <point x="102" y="0" type="curve"/>
      <point x="125" y="0" type="line" smooth="yes"/>
      <point x="156" y="0"/>
      <point x="212" y="20"/>
      <point x="228" y="35" type="curve"/>
      <point x="247" y="250"/>
      <point x="266" y="467"/>
      <point x="285" y="682" type="curve"/>
      <point x="286" y="692"/>
      <point x="286" y="695"/>
      <point x="284" y="697" type="curve" smooth="yes"/>
      <point x="283" y="699"/>
      <point x="280" y="700"/>
      <point x="276" y="700" type="curve"/>
      <point x="226" y="700"/>
      <point x="183" y="700"/>
    </contour>
    <contour>
      <point x="821" y="700" type="curve"/>
      <point x="739" y="501"/>
      <point x="656" y="300"/>
      <point x="574" y="101" type="curve"/>
      <point x="553" y="39"/>
      <point x="541" y="12"/>
      <point x="517" y="0" type="curve"/>
      <point x="681" y="0" type="line"/>
      <point x="779" y="229"/>
      <point x="878" y="458"/>
      <point x="976" y="687" type="curve" smooth="yes"/>
      <point x="978" y="693"/>
      <point x="978" y="695"/>
      <point x="976" y="697" type="curve" smooth="yes"/>
      <point x="975" y="699"/>
      <point x="974" y="700"/>
      <point x="970" y="700" type="curve"/>
      <point x="920" y="700"/>
      <point x="871" y="700"/>
    </contour>
    <contour>
      <point x="574" y="624" type="curve"/>
      <point x="462" y="624" type="line"/>
      <point x="377" y="450"/>
      <point x="291" y="275"/>
      <point x="205" y="101" type="curve"/>
      <point x="172" y="33"/>
      <point x="138" y="14"/>
      <point x="102" y="0" type="curve"/>
      <point x="287" y="0" type="line"/>
      <point x="385" y="201"/>
      <point x="484" y="404"/>
      <point x="582" y="605" type="curve" smooth="yes"/>
      <point x="588" y="616"/>
      <point x="585" y="624"/>
    </contour>
    <contour>
      <point x="595" y="624" type="curve"/>
      <point x="482" y="624" type="line"/>
      <point x="480" y="421"/>
      <point x="480" y="218"/>
      <point x="478" y="15" type="curve" smooth="yes"/>
      <point x="477" y="5"/>
      <point x="485" y="0"/>
      <point x="495" y="0" type="curve"/>
      <point x="565" y="0" type="line"/>
      <point x="577" y="0"/>
      <point x="603" y="10"/>
      <point x="602" y="24" type="curve"/>
      <point x="603" y="220"/>
      <point x="605" y="417"/>
      <point x="606" y="613" type="curve" smooth="yes"/>
      <point x="606" y="620"/>
      <point x="601" y="624"/>
    </contour>
    <contour>
      <point x="559" y="711" type="move" name="top"/>
    </contour>
  </outline>
</glyph>
<glyph name="X" format="1">
  <advance width="650"/>
  <unicode hex="0058"/>
  <outline>
    <contour>
      <point x="410" y="0" type="curve" smooth="yes"/>
      <point x="460" y="0"/>
      <point x="508" y="0"/>
      <point x="559" y="0" type="curve"/>
      <point x="511" y="128"/>
      <point x="462" y="257"/>
      <point x="414" y="385" type="curve" smooth="yes"/>
      <point x="406" y="410"/>
      <point x="390" y="419"/>
      <point x="382" y="441" type="curve" smooth="yes"/>
      <point x="354" y="525"/>
      <point x="327" y="607"/>
      <point x="299" y="690" type="curve" smooth="yes"/>
      <point x="296" y="697"/>
      <point x="291" y="700"/>
      <point x="282" y="700" type="curve" smooth="yes"/>
      <point x="136" y="700" type="line"/>
      <point x="179" y="573"/>
      <point x="223" y="446"/>
      <point x="266" y="319" type="curve" smooth="yes"/>
      <point x="273" y="296"/>
      <point x="293" y="283"/>
      <point x="301" y="260" type="curve" smooth="yes"/>
      <point x="331" y="177"/>
      <point x="363" y="92"/>
      <point x="394" y="10" type="curve" smooth="yes"/>
      <point x="397" y="2"/>
      <point x="402" y="0"/>
    </contour>
    <contour>
      <point x="724" y="700" type="curve" smooth="yes"/>
      <point x="560" y="700" type="line"/>
      <point x="474" y="595"/>
      <point x="388" y="489"/>
      <point x="302" y="384" type="curve"/>
      <point x="289" y="368"/>
      <point x="312" y="355"/>
      <point x="407" y="305" type="curve"/>
      <point x="515" y="430"/>
      <point x="621" y="555"/>
      <point x="728" y="681" type="curve"/>
      <point x="734" y="688"/>
      <point x="735" y="693"/>
      <point x="732" y="697" type="curve" smooth="yes"/>
      <point x="731" y="699"/>
      <point x="728" y="700"/>
    </contour>
    <contour>
      <point x="-43" y="0" type="curve"/>
      <point x="124" y="0" type="line"/>
      <point x="213" y="106"/>
      <point x="301" y="211"/>
      <point x="387" y="317" type="curve"/>
      <point x="399" y="331"/>
      <point x="375" y="346"/>
      <point x="282" y="395" type="curve"/>
      <point x="173" y="270"/>
      <point x="62" y="144"/>
      <point x="-47" y="19" type="curve" smooth="yes"/>
      <point x="-53" y="13"/>
      <point x="-54" y="7"/>
      <point x="-51" y="3" type="curve" smooth="yes"/>
      <point x="-50" y="1"/>
      <point x="-47" y="0"/>
    </contour>
  </outline>
</glyph>
<glyph name="bracketleft" format="1">
  <advance width="400"/>
  <unicode hex="005B"/>
  <outline>
    <contour>
      <point x="136" y="643" type="curve" smooth="yes"/>
      <point x="-22" y="11" type="line" smooth="yes"/>
      <point x="-25" y="1"/>
      <point x="10" y="0"/>
      <point x="135" y="0" type="curve"/>
      <point x="320" y="739" type="line" smooth="yes"/>
      <point x="321" y="745"/>
      <point x="315" y="750"/>
      <point x="288" y="750" type="curve" smooth="yes"/>
      <point x="238" y="750"/>
      <point x="213" y="750"/>
      <point x="163" y="750" type="curve"/>
      <point x="154" y="714"/>
      <point x="145" y="679"/>
    </contour>
    <contour>
      <point x="442" y="608" type="line"/>
      <point x="454" y="654"/>
      <point x="463" y="693"/>
      <point x="475" y="739" type="curve" smooth="yes"/>
      <point x="476" y="742"/>
      <point x="475" y="745"/>
      <point x="474" y="747" type="curve" smooth="yes"/>
      <point x="472" y="749"/>
      <point x="470" y="750"/>
      <point x="467" y="750" type="curve" smooth="yes"/>
      <point x="288" y="750" type="line"/>
      <point x="253" y="612"/>
      <point x="258" y="608"/>
      <point x="263" y="608" type="curve"/>
    </contour>
    <contour>
      <point x="257" y="-130" type="line"/>
      <point x="269" y="-84"/>
      <point x="279" y="-45"/>
      <point x="290" y="1" type="curve" smooth="yes"/>
      <point x="292" y="7"/>
      <point x="288" y="12"/>
      <point x="282" y="12" type="curve" smooth="yes"/>
      <point x="-22" y="12" type="line"/>
      <point x="-55" y="-119" type="line" smooth="yes"/>
      <point x="-56" y="-125"/>
      <point x="-53" y="-130"/>
      <point x="-47" y="-130" type="curve" smooth="yes"/>
    </contour>
  </outline>
</glyph>
<glyph name="backslash" format="1">
  <advance width="600"/>
  <unicode hex="005C"/>
  <outline>
    <contour>
      <point x="181" y="750" type="curve"/>
      <point x="220" y="461"/>
      <point x="257" y="170"/>
      <point x="296" y="-119" type="curve" smooth="yes"/>
      <point x="297" y="-127"/>
      <point x="302" y="-130"/>
      <point x="308" y="-130" type="curve" smooth="yes"/>
      <point x="358" y="-130"/>
      <point x="403" y="-130"/>
      <point x="453" y="-130" type="curve"/>
      <point x="448" y="-94"/>
      <point x="443" y="-57"/>
      <point x="438" y="-21" type="curve"/>
      <point x="405" y="233"/>
      <point x="371" y="489"/>
      <point x="337" y="743" type="curve"/>
      <point x="337" y="748"/>
      <point x="333" y="750"/>
      <point x="327" y="750" type="curve" smooth="yes"/>
      <point x="277" y="750"/>
      <point x="231" y="750"/>
    </contour>
  </outline>
</glyph>
<glyph name="bracketright" format="1">
  <advance width="400"/>
  <unicode hex="005D"/>
  <outline>
    <contour>
      <point x="284" y="-23" type="curve" smooth="yes"/>
      <point x="442" y="609" type="line" smooth="yes"/>
      <point x="445" y="619"/>
      <point x="410" y="620"/>
      <point x="285" y="620" type="curve"/>
      <point x="100" y="-119" type="line" smooth="yes"/>
      <point x="99" y="-125"/>
      <point x="105" y="-130"/>
      <point x="132" y="-130" type="curve" smooth="yes"/>
      <point x="182" y="-130"/>
      <point x="207" y="-130"/>
      <point x="257" y="-130" type="curve"/>
      <point x="266" y="-94"/>
      <point x="275" y="-59"/>
    </contour>
    <contour>
      <point x="-22" y="12" type="line"/>
      <point x="-34" y="-34"/>
      <point x="-43" y="-73"/>
      <point x="-55" y="-119" type="curve" smooth="yes"/>
      <point x="-56" y="-122"/>
      <point x="-55" y="-125"/>
      <point x="-54" y="-127" type="curve" smooth="yes"/>
      <point x="-52" y="-129"/>
      <point x="-50" y="-130"/>
      <point x="-47" y="-130" type="curve" smooth="yes"/>
      <point x="132" y="-130" type="line"/>
      <point x="167" y="8"/>
      <point x="162" y="12"/>
      <point x="157" y="12" type="curve"/>
    </contour>
    <contour>
      <point x="163" y="750" type="line"/>
      <point x="151" y="704"/>
      <point x="141" y="665"/>
      <point x="130" y="619" type="curve" smooth="yes"/>
      <point x="128" y="613"/>
      <point x="132" y="608"/>
      <point x="138" y="608" type="curve" smooth="yes"/>
      <point x="442" y="608" type="line"/>
      <point x="475" y="739" type="line" smooth="yes"/>
      <point x="476" y="745"/>
      <point x="473" y="750"/>
      <point x="467" y="750" type="curve" smooth="yes"/>
    </contour>
  </outline>
</glyph>
<glyph name="asciicircum" format="1">
  <advance width="600"/>
  <unicode hex="005E"/>
  <outline>
    <contour>
      <point x="198" y="355" type="line"/>
      <point x="275" y="468"/>
      <point x="321" y="536"/>
      <point x="397" y="649" type="curve"/>
      <point x="440" y="712"/>
      <point x="456" y="728"/>
      <point x="489" y="750" type="curve"/>
      <point x="315" y="750" type="line"/>
      <point x="219" y="609"/>
      <point x="97" y="432"/>
      <point x="65" y="387" type="curve" smooth="yes"/>
      <point x="56" y="372"/>
      <point x="54" y="368"/>
      <point x="53" y="364" type="curve" smooth="yes"/>
      <point x="51" y="358"/>
      <point x="54" y="355"/>
      <point x="60" y="355" type="curve"/>
    </contour>
    <contour>
      <point x="595" y="356" type="curve"/>
      <point x="570" y="498"/>
      <point x="555" y="593"/>
      <point x="530" y="735" type="curve" smooth="yes"/>
      <point x="530" y="745"/>
      <point x="523" y="750"/>
      <point x="513" y="750" type="curve" smooth="yes"/>
      <point x="480" y="750" type="line" smooth="yes"/>
      <point x="416" y="750"/>
      <point x="329" y="708"/>
      <point x="303" y="604" type="curve"/>
      <point x="341" y="604"/>
      <point x="367" y="604"/>
      <point x="388" y="604" type="curve" smooth="yes"/>
      <point x="398" y="604"/>
      <point x="402" y="601"/>
      <point x="403" y="591" type="curve" smooth="yes"/>
      <point x="418" y="503"/>
      <point x="426" y="456"/>
      <point x="441" y="368" type="curve" smooth="yes"/>
      <point x="443" y="357"/>
      <point x="446" y="356"/>
      <point x="456" y="356" type="curve" smooth="yes"/>
      <point x="504" y="356"/>
      <point x="547" y="356"/>
    </contour>
  </outline>
</glyph>
<glyph name="underscore" format="1">
  <advance width="600"/>
  <unicode hex="005F"/>
  <outline>
    <contour>
      <point x="-30" y="-50" type="line"/>
      <point x="-42" y="-96"/>
      <point x="-51" y="-135"/>
      <point x="-63" y="-181" type="curve" smooth="yes"/>
      <point x="-64" y="-184"/>
      <point x="-63" y="-187"/>
      <point x="-62" y="-189" type="curve" smooth="yes"/>
      <point x="-60" y="-191"/>
      <point x="-58" y="-192"/>
      <point x="-55" y="-192" type="curve"/>
      <point x="434" y="-192" type="line"/>
      <point x="446" y="-146"/>
      <point x="456" y="-107"/>
      <point x="467" y="-61" type="curve" smooth="yes"/>
      <point x="469" y="-55"/>
      <point x="465" y="-50"/>
      <point x="459" y="-50" type="curve"/>
    </contour>
  </outline>
</glyph>
<glyph name="grave" format="1">
  <advance width="600"/>
  <unicode hex="0060"/>
  <outline>
    <contour>
      <point x="448" y="368" type="curve"/>
      <point x="452" y="482"/>
      <point x="457" y="597"/>
      <point x="461" y="711" type="curve"/>
      <point x="378" y="711"/>
      <point x="336" y="711"/>
      <point x="265" y="711" type="curve" smooth="yes"/>
      <point x="257" y="711"/>
      <point x="253" y="706"/>
      <point x="254" y="698" type="curve" smooth="yes"/>
      <point x="266" y="612"/>
      <point x="282" y="484"/>
      <point x="295" y="375" type="curve" smooth="yes"/>
      <point x="296" y="369"/>
      <point x="299" y="368"/>
      <point x="304" y="368" type="curve" smooth="yes"/>
      <point x="367" y="368"/>
      <point x="410" y="368"/>
    </contour>
  </outline>
</glyph>
<glyph name="d" format="1">
  <advance width="600"/>
  <unicode hex="0064"/>
  <outline>
    <contour>
      <point x="286" y="552" type="curve" smooth="yes"/>
      <point x="182" y="552"/>
      <point x="109" y="491"/>
      <point x="75" y="350" type="curve" smooth="yes"/>
      <point x="32" y="182" type="line" smooth="yes"/>
      <point x="16" y="113"/>
      <point x="62" y="61"/>
      <point x="142" y="61" type="curve" smooth="yes"/>
      <point x="175" y="61"/>
      <point x="198" y="75"/>
      <point x="204" y="100" type="curve"/>
      <point x="189" y="126"/>
      <point x="176" y="137"/>
      <point x="187" y="180" type="curve" smooth="yes"/>
      <point x="227" y="338" type="line" smooth="yes"/>
      <point x="238" y="383"/>
      <point x="267" y="407"/>
      <point x="308" y="407" type="curve" smooth="yes"/>
      <point x="344" y="407"/>
      <point x="386" y="391"/>
      <point x="417" y="352" type="curve"/>
      <point x="433" y="364"/>
      <point x="440" y="376"/>
      <point x="444" y="392" type="curve" smooth="yes"/>
      <point x="459" y="452"/>
      <point x="388" y="552"/>
    </contour>
    <contour>
      <point x="141" y="-10" type="curve" smooth="yes"/>
      <point x="201" y="-10"/>
      <point x="263" y="18"/>
      <point x="328" y="80" type="curve" smooth="yes"/>
      <point x="390" y="138"/>
      <point x="407" y="188"/>
      <point x="394" y="217" type="curve"/>
      <point x="310" y="156"/>
      <point x="263" y="133"/>
      <point x="219" y="133" type="curve" smooth="yes"/>
      <point x="189" y="133"/>
      <point x="178" y="145"/>
      <point x="187" y="180" type="curve"/>
      <point x="119" y="210"/>
      <point x="33" y="184"/>
      <point x="32" y="182" type="curve" smooth="yes"/>
      <point x="3" y="65"/>
      <point x="46" y="-10"/>
    </contour>
    <contour>
      <point x="495" y="750" type="curve"/>
      <point x="486" y="717"/>
      <point x="478" y="683"/>
      <point x="470" y="650" type="curve" smooth="yes"/>
      <point x="310" y="11" type="line"/>
      <point x="309" y="8"/>
      <point x="309" y="5"/>
      <point x="311" y="3" type="curve" smooth="yes"/>
      <point x="312" y="1"/>
      <point x="315" y="0"/>
      <point x="318" y="0" type="curve" smooth="yes"/>
      <point x="366" y="0"/>
      <point x="414" y="0"/>
      <point x="462" y="0" type="curve"/>
      <point x="475" y="50"/>
      <point x="487" y="99"/>
      <point x="499" y="149" type="curve" smooth="yes"/>
      <point x="647" y="739" type="line"/>
      <point x="648" y="742"/>
      <point x="647" y="745"/>
      <point x="646" y="747" type="curve" smooth="yes"/>
      <point x="644" y="749"/>
      <point x="642" y="750"/>
      <point x="639" y="750" type="curve" smooth="yes"/>
      <point x="591" y="750"/>
      <point x="543" y="750"/>
    </contour>
    <contour>
      <point x="662" y="711" type="move" name="caronslovak"/>
    </contour>
  </outline>
</glyph>
<glyph name="f" format="1">
  <advance width="450"/>
  <unicode hex="0066"/>
  <outline>
    <contour>
      <point x="197" y="0" type="curve"/>
      <point x="205" y="33"/>
      <point x="214" y="67"/>
      <point x="222" y="100" type="curve" smooth="yes"/>
      <point x="332" y="540" type="line" smooth="yes"/>
      <point x="335" y="552"/>
      <point x="338" y="564"/>
      <point x="343" y="582" type="curve" smooth="yes"/>
      <point x="353" y="622"/>
      <point x="381" y="639"/>
      <point x="417" y="639" type="curve"/>
      <point x="460" y="762"/>
      <point x="445" y="770"/>
      <point x="429" y="770" type="curve" smooth="yes"/>
      <point x="304" y="770"/>
      <point x="223" y="707"/>
      <point x="193" y="584" type="curve" smooth="yes"/>
      <point x="50" y="11" type="line" smooth="yes"/>
      <point x="48" y="5"/>
      <point x="52" y="0"/>
      <point x="58" y="0" type="curve" smooth="yes"/>
      <point x="106" y="0"/>
      <point x="153" y="0"/>
    </contour>
    <contour>
      <point x="313" y="624" type="curve"/>
      <point x="350" y="638"/>
      <point x="370" y="639"/>
      <point x="417" y="639" type="curve" smooth="yes"/>
      <point x="453" y="639"/>
      <point x="479" y="634"/>
      <point x="508" y="623" type="curve"/>
      <point x="528" y="623" type="line"/>
      <point x="538" y="664"/>
      <point x="546" y="695"/>
      <point x="556" y="735" type="curve"/>
      <point x="557" y="739"/>
      <point x="557" y="741"/>
      <point x="555" y="743" type="curve" smooth="yes"/>
      <point x="545" y="754"/>
      <point x="482" y="770"/>
      <point x="429" y="770" type="curve" smooth="yes"/>
      <point x="326" y="770"/>
      <point x="292" y="686"/>
    </contour>
    <contour>
      <point x="107" y="540" type="curve"/>
      <point x="96" y="495"/>
      <point x="86" y="456"/>
      <point x="75" y="411" type="curve" smooth="yes"/>
      <point x="74" y="408"/>
      <point x="74" y="405"/>
      <point x="76" y="403" type="curve" smooth="yes"/>
      <point x="77" y="401"/>
      <point x="80" y="400"/>
      <point x="83" y="400" type="curve" smooth="yes"/>
      <point x="210" y="400"/>
      <point x="326" y="400"/>
      <point x="452" y="400" type="curve"/>
      <point x="463" y="445"/>
      <point x="473" y="484"/>
      <point x="484" y="529" type="curve" smooth="yes"/>
      <point x="486" y="535"/>
      <point x="482" y="540"/>
      <point x="476" y="540" type="curve" smooth="yes"/>
      <point x="355" y="540"/>
      <point x="227" y="540"/>
    </contour>
  </outline>
</glyph>
<glyph name="g" format="1">
  <advance width="600"/>
  <unicode hex="0067"/>
  <outline>
    <contour>
      <point x="339" y="426" type="curve" smooth="yes"/>
      <point x="427" y="426"/>
      <point x="514" y="426"/>
      <point x="602" y="426" type="curve" smooth="yes"/>
      <point x="608" y="426"/>
      <point x="614" y="431"/>
      <point x="615" y="437" type="curve" smooth="yes"/>
      <point x="625" y="475"/>
      <point x="634" y="512"/>
      <point x="644" y="550" type="curve"/>
      <point x="549" y="550"/>
      <point x="454" y="550"/>
      <point x="359" y="550" type="curve" smooth="yes"/>
      <point x="216" y="550"/>
      <point x="119" y="505"/>
      <point x="89" y="385" type="curve" smooth="yes"/>
      <point x="84" y="364" type="line" smooth="yes"/>
      <point x="56" y="253"/>
      <point x="126" y="177"/>
      <point x="281" y="175" type="curve"/>
      <point x="293" y="175"/>
      <point x="321" y="208"/>
      <point x="298" y="289" type="curve"/>
      <point x="255" y="289"/>
      <point x="219" y="307"/>
      <point x="228" y="343" type="curve" smooth="yes"/>
      <point x="234" y="368" type="line" smooth="yes"/>
      <point x="244" y="407"/>
      <point x="285" y="426"/>
    </contour>
    <contour>
      <point x="298" y="289" type="curve" smooth="yes"/>
      <point x="243" y="289"/>
      <point x="201" y="301"/>
      <point x="168" y="319" type="curve"/>
      <point x="133" y="278"/>
      <point x="158" y="175"/>
      <point x="281" y="175" type="curve" smooth="yes"/>
      <point x="407" y="175"/>
      <point x="505" y="227"/>
      <point x="528" y="320" type="curve" smooth="yes"/>
      <point x="532" y="336" type="line" smooth="yes"/>
      <point x="547" y="395"/>
      <point x="507" y="446"/>
      <point x="422" y="446" type="curve" smooth="yes"/>
      <point x="406" y="446"/>
      <point x="393" y="443"/>
      <point x="379" y="435" type="curve"/>
      <point x="395" y="413"/>
      <point x="397" y="392"/>
      <point x="390" y="365" type="curve" smooth="yes"/>
      <point x="384" y="342" type="line" smooth="yes"/>
      <point x="376" y="313"/>
      <point x="346" y="289"/>
    </contour>
    <contour>
      <point x="65" y="90" type="curve" smooth="yes"/>
      <point x="63" y="85" type="line" smooth="yes"/>
      <point x="47" y="21"/>
      <point x="92" y="-20"/>
      <point x="175" y="-20" type="curve" smooth="yes"/>
      <point x="294" y="-20" type="line" smooth="yes"/>
      <point x="334" y="-20"/>
      <point x="345" y="-34"/>
      <point x="336" y="-72" type="curve" smooth="yes"/>
      <point x="330" y="-95" type="line" smooth="yes"/>
      <point x="321" y="-131"/>
      <point x="291" y="-140"/>
      <point x="258" y="-140" type="curve"/>
      <point x="223" y="-238"/>
      <point x="225" y="-250"/>
      <point x="233" y="-250" type="curve" smooth="yes"/>
      <point x="352" y="-250"/>
      <point x="451" y="-220"/>
      <point x="487" y="-77" type="curve" smooth="yes"/>
      <point x="491" y="-61" type="line" smooth="yes"/>
      <point x="515" y="35"/>
      <point x="461" y="105"/>
      <point x="331" y="105" type="curve" smooth="yes"/>
      <point x="229" y="105" type="line" smooth="yes"/>
      <point x="216" y="105"/>
      <point x="213" y="109"/>
      <point x="217" y="122" type="curve" smooth="yes"/>
      <point x="220" y="136" type="line" smooth="yes"/>
      <point x="224" y="151"/>
      <point x="230" y="174"/>
      <point x="234" y="190" type="curve"/>
      <point x="234" y="193"/>
      <point x="237" y="204"/>
      <point x="238" y="207" type="curve" smooth="yes"/>
      <point x="143" y="207"/>
      <point x="78" y="144"/>
    </contour>
    <contour>
      <point x="346" y="-140" type="curve"/>
      <point x="320" y="-140"/>
      <point x="286" y="-140"/>
      <point x="258" y="-140" type="curve" smooth="yes"/>
      <point x="151" y="-140" type="line" smooth="yes"/>
      <point x="98" y="-140"/>
      <point x="90" y="-125"/>
      <point x="100" y="-85" type="curve" smooth="yes"/>
      <point x="106" y="-58" type="line" smooth="yes"/>
      <point x="112" y="-34"/>
      <point x="124" y="-16"/>
      <point x="152" y="1" type="curve"/>
      <point x="157" y="19"/>
      <point x="148" y="34"/>
      <point x="106" y="34" type="curve" smooth="yes"/>
      <point x="29" y="34"/>
      <point x="-40" y="-24"/>
      <point x="-56" y="-92" type="curve" smooth="yes"/>
      <point x="-59" y="-105" type="line" smooth="yes"/>
      <point x="-80" y="-196"/>
      <point x="-8" y="-250"/>
      <point x="91" y="-250" type="curve" smooth="yes"/>
      <point x="233" y="-250" type="line" smooth="yes"/>
      <point x="285" y="-250"/>
      <point x="326" y="-219"/>
    </contour>
  </outline>
</glyph>
<glyph name="i" format="1">
  <advance width="350"/>
  <unicode hex="0069"/>
  <outline>
    <contour>
      <point x="110" y="540" type="curve"/>
      <point x="101" y="500"/>
      <point x="91" y="443"/>
      <point x="81" y="403" type="curve" smooth="yes"/>
      <point x="79" y="397"/>
      <point x="83" y="392"/>
      <point x="89" y="392" type="curve" smooth="yes"/>
      <point x="129" y="392"/>
      <point x="171" y="392"/>
      <point x="211" y="392" type="curve"/>
      <point x="241" y="495"/>
      <point x="236" y="540"/>
      <point x="214" y="540" type="curve" smooth="yes"/>
      <point x="179" y="540"/>
      <point x="146" y="540"/>
    </contour>
    <contour>
      <point x="219" y="0" type="curve"/>
      <point x="228" y="40"/>
      <point x="235" y="80"/>
      <point x="246" y="120" type="curve" smooth="yes"/>
      <point x="352" y="529" type="line" smooth="yes"/>
      <point x="354" y="535"/>
      <point x="350" y="540"/>
      <point x="344" y="540" type="curve" smooth="yes"/>
      <point x="187" y="540" type="line"/>
      <point x="54" y="11" type="line" smooth="yes"/>
      <point x="52" y="5"/>
      <point x="56" y="0"/>
      <point x="62" y="0" type="curve" smooth="yes"/>
      <point x="124" y="0"/>
      <point x="164" y="0"/>
    </contour>
    <contour>
      <point x="392" y="642" type="curve"/>
      <point x="427" y="782" type="line" smooth="yes"/>
      <point x="428" y="788"/>
      <point x="425" y="793"/>
      <point x="419" y="793" type="curve" smooth="yes"/>
      <point x="363" y="793"/>
      <point x="289" y="793"/>
      <point x="233" y="793" type="curve"/>
      <point x="198" y="653" type="line" smooth="yes"/>
      <point x="196" y="647"/>
      <point x="200" y="642"/>
      <point x="206" y="642" type="curve" smooth="yes"/>
      <point x="262" y="642"/>
      <point x="336" y="642"/>
    </contour>
    <contour>
      <point x="390" y="-1" type="move" name="ogonek"/>
    </contour>
    <contour>
      <point x="240" y="-1" type="move" name="bottom"/>
    </contour>
  </outline>
</glyph>
<glyph name="j" format="1">
  <advance width="350"/>
  <unicode hex="006A"/>
  <outline>
    <contour>
      <point x="123" y="540" type="curve"/>
      <point x="112" y="496"/>
      <point x="103" y="441"/>
      <point x="91" y="397" type="curve" smooth="yes"/>
      <point x="90" y="391"/>
      <point x="94" y="386"/>
      <point x="100" y="386" type="curve" smooth="yes"/>
      <point x="179" y="386"/>
      <point x="199" y="386"/>
      <point x="278" y="386" type="curve"/>
      <point x="292" y="443"/>
      <point x="290" y="540"/>
      <point x="237" y="540" type="curve" smooth="yes"/>
      <point x="178" y="540"/>
      <point x="183" y="540"/>
    </contour>
    <contour>
      <point x="219" y="-30" type="curve" smooth="yes"/>
      <point x="360" y="529" type="line" smooth="yes"/>
      <point x="361" y="532"/>
      <point x="361" y="535"/>
      <point x="359" y="537" type="curve" smooth="yes"/>
      <point x="358" y="539"/>
      <point x="355" y="540"/>
      <point x="352" y="540" type="curve" smooth="yes"/>
      <point x="195" y="540" type="line"/>
      <point x="50" y="-33" type="line" smooth="yes"/>
      <point x="34" y="-96"/>
      <point x="17" y="-133"/>
      <point x="-20" y="-167" type="curve"/>
      <point x="64" y="-212"/>
      <point x="187" y="-157"/>
    </contour>
    <contour>
      <point x="-12" y="-96" type="curve" smooth="yes"/>
      <point x="-35" y="-96"/>
      <point x="-49" y="-92"/>
      <point x="-64" y="-83" type="curve"/>
      <point x="-84" y="-83" type="line"/>
      <point x="-94" y="-127"/>
      <point x="-103" y="-172"/>
      <point x="-114" y="-217" type="curve" smooth="yes"/>
      <point x="-115" y="-220"/>
      <point x="-114" y="-223"/>
      <point x="-112" y="-226" type="curve" smooth="yes"/>
      <point x="-108" y="-233"/>
      <point x="-82" y="-250"/>
      <point x="-30" y="-250" type="curve" smooth="yes"/>
      <point x="108" y="-250"/>
      <point x="178" y="-192"/>
      <point x="219" y="-30" type="curve" smooth="yes"/>
      <point x="223" y="-14"/>
      <point x="193" y="-6"/>
      <point x="122" y="-11" type="curve"/>
      <point x="76" y="-74"/>
      <point x="35" y="-96"/>
    </contour>
    <contour>
      <point x="406" y="642" type="curve"/>
      <point x="442" y="782" type="line" smooth="yes"/>
      <point x="443" y="788"/>
      <point x="440" y="793"/>
      <point x="434" y="793" type="curve" smooth="yes"/>
      <point x="378" y="793"/>
      <point x="304" y="793"/>
      <point x="248" y="793" type="curve"/>
      <point x="213" y="653" type="line" smooth="yes"/>
      <point x="211" y="647"/>
      <point x="215" y="642"/>
      <point x="221" y="642" type="curve" smooth="yes"/>
      <point x="277" y="642"/>
      <point x="350" y="642"/>
    </contour>
  </outline>
</glyph>
<glyph name="l" format="1">
  <advance width="300"/>
  <unicode hex="006C"/>
  <outline>
    <contour>
      <point x="152" y="639" type="curve"/>
      <point x="29" y="146" type="line" smooth="yes"/>
      <point x="10" y="74"/>
      <point x="65" y="18"/>
      <point x="159" y="67" type="curve"/>
      <point x="166" y="98"/>
      <point x="175" y="131"/>
      <point x="183" y="162" type="curve" smooth="yes"/>
      <point x="327" y="739" type="line" smooth="yes"/>
      <point x="328" y="742"/>
      <point x="327" y="745"/>
      <point x="326" y="747" type="curve" smooth="yes"/>
      <point x="324" y="749"/>
      <point x="322" y="750"/>
      <point x="319" y="750" type="curve" smooth="yes"/>
      <point x="273" y="750"/>
      <point x="226" y="750"/>
      <point x="180" y="750" type="curve"/>
      <point x="170" y="713"/>
      <point x="161" y="676"/>
    </contour>
    <contour>
      <point x="253" y="142" type="curve"/>
      <point x="233" y="142" type="line"/>
      <point x="220" y="142"/>
      <point x="208" y="142"/>
      <point x="196" y="142" type="curve" smooth="yes"/>
      <point x="185" y="142"/>
      <point x="179" y="148"/>
      <point x="183" y="162" type="curve"/>
      <point x="61" y="161"/>
      <point x="30" y="152"/>
      <point x="29" y="146" type="curve" smooth="yes"/>
      <point x="2" y="40"/>
      <point x="56" y="0"/>
      <point x="140" y="0" type="curve" smooth="yes"/>
      <point x="206" y="0" type="line" smooth="yes"/>
      <point x="209" y="0"/>
      <point x="212" y="1"/>
      <point x="215" y="3" type="curve" smooth="yes"/>
      <point x="217" y="5"/>
      <point x="219" y="8"/>
      <point x="220" y="11" type="curve" smooth="yes"/>
      <point x="231" y="57"/>
      <point x="241" y="96"/>
    </contour>
    <contour>
      <point x="432" y="711" type="move" name="caronslovak"/>
    </contour>
    <contour>
      <point x="252" y="730" type="move" name="top"/>
    </contour>
    <contour>
      <point x="354" y="400" type="move" name="dot"/>
    </contour>
    <contour>
      <point x="104" y="-1" type="move" name="bottom"/>
    </contour>
  </outline>
</glyph>
<glyph name="n" format="1">
  <advance width="600"/>
  <unicode hex="006E"/>
  <outline>
    <contour>
      <point x="162" y="0" type="curve"/>
      <point x="294" y="529" type="line" smooth="yes"/>
      <point x="295" y="532"/>
      <point x="295" y="535"/>
      <point x="293" y="537" type="curve" smooth="yes"/>
      <point x="292" y="539"/>
      <point x="289" y="540"/>
      <point x="286" y="540" type="curve" smooth="yes"/>
      <point x="241" y="540"/>
      <point x="192" y="540"/>
      <point x="137" y="540" type="curve"/>
      <point x="130" y="512"/>
      <point x="122" y="478"/>
      <point x="113" y="442" type="curve" smooth="yes"/>
      <point x="5" y="11" type="line" smooth="yes"/>
      <point x="3" y="5"/>
      <point x="7" y="0"/>
      <point x="13" y="0" type="curve" smooth="yes"/>
      <point x="63" y="0"/>
      <point x="112" y="0"/>
    </contour>
    <contour>
      <point x="461" y="552" type="curve" smooth="yes"/>
      <point x="400" y="552"/>
      <point x="343" y="526"/>
      <point x="269" y="446" type="curve" smooth="yes"/>
      <point x="237" y="412"/>
      <point x="200" y="364"/>
      <point x="212" y="291" type="curve"/>
      <point x="279" y="369"/>
      <point x="325" y="392"/>
      <point x="363" y="392" type="curve" smooth="yes"/>
      <point x="390" y="392"/>
      <point x="397" y="381"/>
      <point x="392" y="358" type="curve"/>
      <point x="529" y="358"/>
      <point x="554" y="373"/>
      <point x="559" y="393" type="curve" smooth="yes"/>
      <point x="580" y="475"/>
      <point x="550" y="552"/>
    </contour>
    <contour>
      <point x="461" y="0" type="curve"/>
      <point x="468" y="27"/>
      <point x="477" y="61"/>
      <point x="486" y="96" type="curve" smooth="yes"/>
      <point x="559" y="393" type="line"/>
      <point x="572" y="441"/>
      <point x="479" y="463"/>
      <point x="407" y="418" type="curve"/>
      <point x="403" y="402"/>
      <point x="398" y="384"/>
      <point x="392" y="358" type="curve" smooth="yes"/>
      <point x="305" y="11" type="line" smooth="yes"/>
      <point x="303" y="5"/>
      <point x="307" y="0"/>
      <point x="313" y="0" type="curve" smooth="yes"/>
      <point x="363" y="0"/>
      <point x="412" y="0"/>
    </contour>
    <contour>
      <point x="434" y="711" type="move" name="caronslovak"/>
    </contour>
    <contour>
      <point x="440" y="551" type="move" name="top"/>
    </contour>
    <contour>
      <point x="163" y="-1" type="move" name="bottom"/>
    </contour>
  </outline>
</glyph>
<glyph name="o" format="1">
  <advance width="600"/>
  <unicode hex="006F"/>
  <outline>
    <contour>
      <point x="356" y="552" type="curve" smooth="yes"/>
      <point x="201" y="552"/>
      <point x="108" y="471"/>
      <point x="69" y="317" type="curve" smooth="yes"/>
      <point x="54" y="261" type="line" smooth="yes"/>
      <point x="12" y="96"/>
      <point x="84" y="-12"/>
      <point x="241" y="-12" type="curve" smooth="yes"/>
      <point x="255" y="-12"/>
      <point x="262" y="1"/>
      <point x="269" y="128" type="curve"/>
      <point x="205" y="128"/>
      <point x="180" y="164"/>
      <point x="199" y="241" type="curve" smooth="yes"/>
      <point x="216" y="310" type="line" smooth="yes"/>
      <point x="233" y="377"/>
      <point x="272" y="415"/>
      <point x="336" y="415" type="curve" smooth="yes"/>
      <point x="384" y="415"/>
      <point x="415" y="402"/>
      <point x="438" y="374" type="curve"/>
      <point x="501" y="453"/>
      <point x="456" y="552"/>
    </contour>
    <contour>
      <point x="241" y="-12" type="curve" smooth="yes"/>
      <point x="392" y="-12"/>
      <point x="494" y="66"/>
      <point x="532" y="220" type="curve" smooth="yes"/>
      <point x="545" y="277" type="line" smooth="yes"/>
      <point x="585" y="442"/>
      <point x="500" y="552"/>
      <point x="356" y="552" type="curve" smooth="yes"/>
      <point x="349" y="552"/>
      <point x="332" y="544"/>
      <point x="336" y="415" type="curve"/>
      <point x="399" y="415"/>
      <point x="420" y="373"/>
      <point x="401" y="298" type="curve" smooth="yes"/>
      <point x="383" y="232" type="line" smooth="yes"/>
      <point x="367" y="167"/>
      <point x="332" y="128"/>
      <point x="269" y="128" type="curve" smooth="yes"/>
      <point x="221" y="128"/>
      <point x="183" y="138"/>
      <point x="160" y="166" type="curve"/>
      <point x="96" y="87"/>
      <point x="140" y="-12"/>
    </contour>
    <contour>
      <point x="440" y="551" type="move" name="top"/>
    </contour>
    <contour>
      <point x="242" y="-1" type="move" name="ogonek"/>
    </contour>
    <contour>
      <point x="163" y="-1" type="move" name="bottom"/>
    </contour>
  </outline>
</glyph>
<glyph name="p" format="1">
  <advance width="600"/>
  <unicode hex="0070"/>
  <outline>
    <contour>
      <point x="107" y="-200" type="curve"/>
      <point x="289" y="529" type="line" smooth="yes"/>
      <point x="290" y="532"/>
      <point x="290" y="535"/>
      <point x="288" y="537" type="curve" smooth="yes"/>
      <point x="287" y="539"/>
      <point x="284" y="540"/>
      <point x="281" y="540" type="curve"/>
      <point x="233" y="540"/>
      <point x="185" y="540"/>
      <point x="137" y="540" type="curve"/>
      <point x="130" y="511"/>
      <point x="122" y="478"/>
      <point x="112" y="439" type="curve" smooth="yes"/>
      <point x="-45" y="-189" type="line" smooth="yes"/>
      <point x="-47" y="-195"/>
      <point x="-43" y="-200"/>
      <point x="-37" y="-200" type="curve"/>
      <point x="11" y="-200"/>
      <point x="59" y="-200"/>
    </contour>
    <contour>
      <point x="430" y="552" type="curve" smooth="yes"/>
      <point x="378" y="552"/>
      <point x="323" y="526"/>
      <point x="270" y="474" type="curve" smooth="yes"/>
      <point x="210" y="415"/>
      <point x="182" y="373"/>
      <point x="194" y="341" type="curve"/>
      <point x="271" y="387"/>
      <point x="318" y="408"/>
      <point x="369" y="408" type="curve" smooth="yes"/>
      <point x="403" y="408"/>
      <point x="421" y="395"/>
      <point x="409" y="348" type="curve"/>
      <point x="539" y="330"/>
      <point x="560" y="332"/>
      <point x="563" y="343" type="curve" smooth="yes"/>
      <point x="591" y="456"/>
      <point x="541" y="552"/>
    </contour>
    <contour>
      <point x="313" y="-10" type="curve" smooth="yes"/>
      <point x="421" y="-10"/>
      <point x="492" y="56"/>
      <point x="529" y="206" type="curve" smooth="yes"/>
      <point x="563" y="343" type="line" smooth="yes"/>
      <point x="580" y="410"/>
      <point x="537" y="481"/>
      <point x="457" y="481" type="curve" smooth="yes"/>
      <point x="424" y="481"/>
      <point x="402" y="467"/>
      <point x="396" y="442" type="curve"/>
      <point x="413" y="412"/>
      <point x="425" y="405"/>
      <point x="409" y="348" type="curve" smooth="yes"/>
      <point x="374" y="205" type="line" smooth="yes"/>
      <point x="361" y="154"/>
      <point x="333" y="130"/>
      <point x="292" y="130" type="curve" smooth="yes"/>
      <point x="252" y="130"/>
      <point x="213" y="141"/>
      <point x="169" y="195" type="curve"/>
      <point x="150" y="173"/>
      <point x="143" y="153"/>
      <point x="140" y="142" type="curve" smooth="yes"/>
      <point x="126" y="92"/>
      <point x="200" y="-10"/>
    </contour>
  </outline>
</glyph>
<glyph name="s" format="1">
  <advance width="550"/>
  <unicode hex="0073"/>
  <outline>
    <contour>
      <point x="385" y="552" type="curve" smooth="yes"/>
      <point x="378" y="552" type="line" smooth="yes"/>
      <point x="235" y="552"/>
      <point x="126" y="505"/>
      <point x="97" y="390" type="curve" smooth="yes"/>
      <point x="85" y="344"/>
      <point x="136" y="299"/>
      <point x="228" y="299" type="curve"/>
      <point x="231" y="313"/>
      <point x="243" y="355"/>
      <point x="248" y="372" type="curve" smooth="yes"/>
      <point x="254" y="395"/>
      <point x="286" y="404"/>
      <point x="355" y="404" type="curve" smooth="yes"/>
      <point x="419" y="404"/>
      <point x="458" y="394"/>
      <point x="508" y="374" type="curve"/>
      <point x="529" y="374" type="line"/>
      <point x="539" y="420"/>
      <point x="550" y="461"/>
      <point x="560" y="506" type="curve"/>
      <point x="562" y="511"/>
      <point x="561" y="514"/>
      <point x="560" y="516" type="curve" smooth="yes"/>
      <point x="551" y="527"/>
      <point x="485" y="552"/>
    </contour>
    <contour>
      <point x="365" y="321" type="curve" smooth="yes"/>
      <point x="281" y="331" type="line" smooth="yes"/>
      <point x="248" y="335"/>
      <point x="243" y="354"/>
      <point x="248" y="372" type="curve" smooth="yes"/>
      <point x="254" y="396"/>
      <point x="260" y="422"/>
      <point x="268" y="454" type="curve"/>
      <point x="175" y="454"/>
      <point x="108" y="435"/>
      <point x="97" y="390" type="curve"/>
      <point x="76" y="304"/>
      <point x="119" y="239"/>
      <point x="230" y="225" type="curve" smooth="yes"/>
      <point x="308" y="214" type="line" smooth="yes"/>
      <point x="354" y="209"/>
      <point x="358" y="187"/>
      <point x="354" y="172" type="curve" smooth="yes"/>
      <point x="348" y="146"/>
      <point x="341" y="118"/>
      <point x="334" y="87" type="curve"/>
      <point x="432" y="89"/>
      <point x="490" y="99"/>
      <point x="503" y="152" type="curve" smooth="yes"/>
      <point x="521" y="229"/>
      <point x="478" y="308"/>
    </contour>
    <contour>
      <point x="253" y="137" type="curve" smooth="yes"/>
      <point x="158" y="137"/>
      <point x="111" y="150"/>
      <point x="51" y="178" type="curve"/>
      <point x="31" y="178" type="line"/>
      <point x="22" y="137"/>
      <point x="13" y="96"/>
      <point x="1" y="45" type="curve" smooth="yes"/>
      <point x="0" y="41"/>
      <point x="0" y="40"/>
      <point x="2" y="37" type="curve" smooth="yes"/>
      <point x="10" y="25"/>
      <point x="107" y="-12"/>
      <point x="215" y="-12" type="curve" smooth="yes"/>
      <point x="225" y="-12" type="line" smooth="yes"/>
      <point x="372" y="-12"/>
      <point x="471" y="26"/>
      <point x="503" y="152" type="curve" smooth="yes"/>
      <point x="517" y="214"/>
      <point x="460" y="255"/>
      <point x="374" y="255" type="curve"/>
      <point x="367" y="225"/>
      <point x="359" y="192"/>
      <point x="354" y="172" type="curve" smooth="yes"/>
      <point x="348" y="151"/>
      <point x="328" y="137"/>
    </contour>
    <contour>
      <point x="280" y="551" type="move" name="top"/>
    </contour>
    <contour>
      <point x="280" y="-1" type="move" name="bottom"/>
    </contour>
  </outline>
</glyph>
<glyph name="t" format="1">
  <advance width="500"/>
  <unicode hex="0074"/>
  <outline>
    <contour>
      <point x="223" y="700" type="curve"/>
      <point x="104" y="226" type="line" smooth="yes"/>
      <point x="78" y="123"/>
      <point x="129" y="44"/>
      <point x="275" y="66" type="curve"/>
      <point x="241" y="112"/>
      <point x="233" y="155"/>
      <point x="251" y="226" type="curve" smooth="yes"/>
      <point x="369" y="689" type="line" smooth="yes"/>
      <point x="371" y="695"/>
      <point x="367" y="700"/>
      <point x="361" y="700" type="curve" smooth="yes"/>
      <point x="317" y="700"/>
      <point x="270" y="700"/>
    </contour>
    <contour>
      <point x="408" y="143" type="curve"/>
      <point x="388" y="143" type="line"/>
      <point x="350" y="143"/>
      <point x="364" y="143"/>
      <point x="317" y="143" type="curve" smooth="yes"/>
      <point x="257" y="143"/>
      <point x="234" y="155"/>
      <point x="251" y="226" type="curve"/>
      <point x="137" y="252"/>
      <point x="109" y="245"/>
      <point x="104" y="226" type="curve" smooth="yes"/>
      <point x="67" y="75"/>
      <point x="140" y="0"/>
      <point x="285" y="0" type="curve" smooth="yes"/>
      <point x="361" y="0" type="line" smooth="yes"/>
      <point x="364" y="0"/>
      <point x="367" y="1"/>
      <point x="370" y="3" type="curve" smooth="yes"/>
      <point x="372" y="5"/>
      <point x="374" y="8"/>
      <point x="375" y="11" type="curve" smooth="yes"/>
      <point x="386" y="57"/>
      <point x="396" y="97"/>
    </contour>
    <contour>
      <point x="107" y="540" type="line"/>
      <point x="96" y="494"/>
      <point x="86" y="457"/>
      <point x="75" y="411" type="curve" smooth="yes"/>
      <point x="74" y="408"/>
      <point x="74" y="405"/>
      <point x="76" y="403" type="curve" smooth="yes"/>
      <point x="77" y="401"/>
      <point x="80" y="400"/>
      <point x="83" y="400" type="curve"/>
      <point x="472" y="400" type="line"/>
      <point x="484" y="446"/>
      <point x="493" y="483"/>
      <point x="504" y="529" type="curve" smooth="yes"/>
      <point x="506" y="535"/>
      <point x="502" y="540"/>
      <point x="496" y="540" type="curve"/>
    </contour>
    <contour>
      <point x="505" y="711" type="move" name="caronslovak"/>
    </contour>
    <contour>
      <point x="217" y="-1" type="move" name="bottom"/>
    </contour>
  </outline>
</glyph>
<glyph name="w" format="1">
  <advance width="800"/>
  <unicode hex="0077"/>
  <outline>
    <contour>
      <point x="111" y="540" type="curve"/>
      <point x="100" y="365"/>
      <point x="89" y="191"/>
      <point x="78" y="15" type="curve"/>
      <point x="77" y="4"/>
      <point x="84" y="0"/>
      <point x="94" y="0" type="curve"/>
      <point x="152" y="0" type="line" smooth="yes"/>
      <point x="206" y="25"/>
      <point x="205" y="42"/>
      <point x="211" y="57" type="curve"/>
      <point x="229" y="213"/>
      <point x="247" y="369"/>
      <point x="265" y="525" type="curve"/>
      <point x="266" y="531"/>
      <point x="266" y="535"/>
      <point x="263" y="538" type="curve" smooth="yes"/>
      <point x="261" y="540"/>
      <point x="258" y="540"/>
      <point x="253" y="540" type="curve"/>
      <point x="203" y="540"/>
      <point x="160" y="540"/>
    </contour>
    <contour>
      <point x="411" y="540" type="curve"/>
      <point x="341" y="393"/>
      <point x="272" y="248"/>
      <point x="202" y="101" type="curve"/>
      <point x="169" y="38"/>
      <point x="156" y="24"/>
      <point x="125" y="0" type="curve"/>
      <point x="274" y="0" type="line"/>
      <point x="354" y="159"/>
      <point x="431" y="315"/>
      <point x="514" y="487" type="curve"/>
      <point x="530" y="524"/>
      <point x="531" y="532"/>
      <point x="531" y="540" type="curve" smooth="yes"/>
      <point x="495" y="540"/>
      <point x="448" y="540"/>
    </contour>
    <contour>
      <point x="425" y="473" type="curve"/>
      <point x="423" y="320"/>
      <point x="421" y="168"/>
      <point x="419" y="15" type="curve"/>
      <point x="419" y="4"/>
      <point x="425" y="0"/>
      <point x="435" y="0" type="curve"/>
      <point x="496" y="0" type="line" smooth="yes"/>
      <point x="533" y="31"/>
      <point x="536" y="40"/>
      <point x="537" y="48" type="curve"/>
      <point x="540" y="207"/>
      <point x="543" y="364"/>
      <point x="545" y="524" type="curve"/>
      <point x="546" y="533"/>
      <point x="542" y="540"/>
      <point x="531" y="540" type="curve" smooth="yes"/>
      <point x="512" y="540"/>
      <point x="497" y="530"/>
    </contour>
    <contour>
      <point x="692" y="540" type="curve"/>
      <point x="637" y="396"/>
      <point x="582" y="253"/>
      <point x="527" y="109" type="curve"/>
      <point x="503" y="51"/>
      <point x="481" y="32"/>
      <point x="458" y="0" type="curve"/>
      <point x="616" y="0" type="line"/>
      <point x="692" y="173"/>
      <point x="769" y="343"/>
      <point x="844" y="514" type="curve"/>
      <point x="851" y="529"/>
      <point x="848" y="536"/>
      <point x="846" y="538" type="curve" smooth="yes"/>
      <point x="844" y="540"/>
      <point x="842" y="540"/>
      <point x="839" y="540" type="curve"/>
      <point x="788" y="540"/>
      <point x="742" y="540"/>
    </contour>
    <contour>
      <point x="463" y="551" type="move" name="top"/>
    </contour>
  </outline>
</glyph>
<glyph name="y" format="1">
  <advance width="600"/>
  <unicode hex="0079"/>
  <outline>
    <contour>
      <point x="616" y="540" type="curve" smooth="yes"/>
      <point x="565" y="540"/>
      <point x="513" y="539"/>
      <point x="471" y="539" type="curve"/>
      <point x="379" y="343"/>
      <point x="238" y="39"/>
      <point x="198" y="-43" type="curve" smooth="yes"/>
      <point x="175" y="-91"/>
      <point x="139" y="-113"/>
      <point x="94" y="-113" type="curve" smooth="yes"/>
      <point x="-7" y="-113" type="line"/>
      <point x="-38" y="-239" type="line" smooth="yes"/>
      <point x="-39" y="-246"/>
      <point x="-37" y="-250"/>
      <point x="-30" y="-250" type="curve" smooth="yes"/>
      <point x="85" y="-250" type="line" smooth="yes"/>
      <point x="202" y="-250"/>
      <point x="266" y="-203"/>
      <point x="330" y="-74" type="curve" smooth="yes"/>
      <point x="441" y="152"/>
      <point x="532" y="337"/>
      <point x="624" y="524" type="curve" smooth="yes"/>
      <point x="629" y="534"/>
      <point x="623" y="540"/>
    </contour>
    <contour>
      <point x="248" y="540" type="curve" smooth="yes"/>
      <point x="196" y="540"/>
      <point x="154" y="540"/>
      <point x="108" y="540" type="curve"/>
      <point x="113" y="364"/>
      <point x="125" y="22"/>
      <point x="125" y="11" type="curve" smooth="yes"/>
      <point x="125" y="4"/>
      <point x="128" y="0"/>
      <point x="135" y="0" type="curve" smooth="yes"/>
      <point x="273" y="0" type="line" smooth="yes"/>
      <point x="299" y="0"/>
      <point x="323" y="28"/>
      <point x="348" y="120" type="curve"/>
      <point x="267" y="120" type="line"/>
      <point x="263" y="120"/>
      <point x="260" y="122"/>
      <point x="261" y="127" type="curve" smooth="yes"/>
      <point x="260" y="141"/>
      <point x="263" y="393"/>
      <point x="264" y="526" type="curve" smooth="yes"/>
      <point x="264" y="537"/>
      <point x="261" y="540"/>
    </contour>
    <contour>
      <point x="293" y="551" type="move" name="top"/>
    </contour>
  </outline>
</glyph>
<glyph name="braceleft" format="1">
  <advance width="500"/>
  <unicode hex="007B"/>
  <outline>
    <contour>
      <point x="438" y="618" type="curve" smooth="yes"/>
      <point x="510" y="618"/>
      <point x="479" y="618"/>
      <point x="537" y="618" type="curve"/>
      <point x="557" y="618" type="line"/>
      <point x="568" y="662"/>
      <point x="579" y="705"/>
      <point x="590" y="749" type="curve"/>
      <point x="592" y="756"/>
      <point x="589" y="760"/>
      <point x="582" y="760" type="curve" smooth="yes"/>
      <point x="405" y="760" type="line" smooth="yes"/>
      <point x="321" y="760"/>
      <point x="276" y="696"/>
      <point x="266" y="657" type="curve" smooth="yes"/>
      <point x="265" y="653" type="line" smooth="yes"/>
      <point x="263" y="645"/>
      <point x="268" y="638"/>
      <point x="399" y="590" type="curve"/>
      <point x="405" y="613"/>
      <point x="414" y="618"/>
    </contour>
    <contour>
      <point x="413" y="442" type="curve" smooth="yes"/>
      <point x="434" y="525"/>
      <point x="390" y="553"/>
      <point x="399" y="590" type="curve" smooth="yes"/>
      <point x="399" y="591"/>
      <point x="414" y="648"/>
      <point x="418" y="667" type="curve"/>
      <point x="272" y="667"/>
      <point x="267" y="663"/>
      <point x="266" y="657" type="curve" smooth="yes"/>
      <point x="256" y="616" type="line" smooth="yes"/>
      <point x="232" y="520"/>
      <point x="279" y="504"/>
      <point x="264" y="444" type="curve" smooth="yes"/>
      <point x="251" y="395"/>
      <point x="192" y="371"/>
      <point x="87" y="371" type="curve" smooth="yes"/>
      <point x="55" y="371" type="line"/>
      <point x="32" y="278" type="line" smooth="yes"/>
      <point x="30" y="270"/>
      <point x="33" y="267"/>
      <point x="40" y="267" type="curve" smooth="yes"/>
      <point x="61" y="267" type="line" smooth="yes"/>
      <point x="295" y="267"/>
      <point x="390" y="348"/>
    </contour>
    <contour>
      <point x="342" y="157" type="curve" smooth="yes"/>
      <point x="366" y="256"/>
      <point x="312" y="333"/>
      <point x="78" y="333" type="curve" smooth="yes"/>
      <point x="67" y="333"/>
      <point x="57" y="333"/>
      <point x="46" y="333" type="curve"/>
      <point x="22" y="240" type="line" smooth="yes"/>
      <point x="21" y="233"/>
      <point x="24" y="229"/>
      <point x="31" y="229" type="curve" smooth="yes"/>
      <point x="52" y="229" type="line" smooth="yes"/>
      <point x="157" y="229"/>
      <point x="203" y="201"/>
      <point x="191" y="155" type="curve" smooth="yes"/>
      <point x="176" y="95"/>
      <point x="121" y="79"/>
      <point x="97" y="-17" type="curve" smooth="yes"/>
      <point x="87" y="-58" type="line" smooth="yes"/>
      <point x="85" y="-64"/>
      <point x="88" y="-68"/>
      <point x="234" y="-68" type="curve"/>
      <point x="241" y="-42"/>
      <point x="247" y="-17"/>
      <point x="254" y="9" type="curve" smooth="yes"/>
      <point x="263" y="46"/>
      <point x="321" y="74"/>
    </contour>
    <contour>
      <point x="279" y="-19" type="curve" smooth="yes"/>
      <point x="255" y="-19"/>
      <point x="248" y="-14"/>
      <point x="254" y="9" type="curve"/>
      <point x="101" y="-39"/>
      <point x="90" y="-46"/>
      <point x="88" y="-54" type="curve" smooth="yes"/>
      <point x="87" y="-58" type="line" smooth="yes"/>
      <point x="77" y="-97"/>
      <point x="90" y="-161"/>
      <point x="174" y="-161" type="curve" smooth="yes"/>
      <point x="351" y="-161" type="line" smooth="yes"/>
      <point x="358" y="-161"/>
      <point x="363" y="-157"/>
      <point x="365" y="-150" type="curve"/>
      <point x="398" y="-19" type="line"/>
      <point x="378" y="-19" type="line"/>
      <point x="320" y="-19"/>
      <point x="351" y="-19"/>
    </contour>
  </outline>
</glyph>
<glyph name="bar" format="1">
  <advance width="300"/>
  <unicode hex="007C"/>
  <outline>
    <contour>
      <point x="193" y="760" type="curve"/>
      <point x="184" y="724"/>
      <point x="175" y="689"/>
      <point x="166" y="653" type="curve" smooth="yes"/>
      <point x="-35" y="-149" type="line" smooth="yes"/>
      <point x="-36" y="-155"/>
      <point x="-33" y="-160"/>
      <point x="-27" y="-160" type="curve" smooth="yes"/>
      <point x="23" y="-160"/>
      <point x="72" y="-160"/>
      <point x="122" y="-160" type="curve"/>
      <point x="350" y="749" type="line" smooth="yes"/>
      <point x="351" y="752"/>
      <point x="350" y="755"/>
      <point x="349" y="757" type="curve" smooth="yes"/>
      <point x="347" y="759"/>
      <point x="345" y="760"/>
      <point x="342" y="760" type="curve" smooth="yes"/>
      <point x="292" y="760"/>
      <point x="243" y="760"/>
    </contour>
  </outline>
</glyph>
<glyph name="braceright" format="1">
  <advance width="500"/>
  <unicode hex="007D"/>
  <outline>
    <contour>
      <point x="87" y="21" type="curve" smooth="yes"/>
      <point x="15" y="21"/>
      <point x="46" y="21"/>
      <point x="-12" y="21" type="curve"/>
      <point x="-32" y="21" type="line"/>
      <point x="-43" y="-23"/>
      <point x="-54" y="-66"/>
      <point x="-65" y="-110" type="curve"/>
      <point x="-67" y="-117"/>
      <point x="-64" y="-121"/>
      <point x="-57" y="-121" type="curve" smooth="yes"/>
      <point x="120" y="-121" type="line" smooth="yes"/>
      <point x="204" y="-121"/>
      <point x="249" y="-57"/>
      <point x="259" y="-18" type="curve" smooth="yes"/>
      <point x="260" y="-14" type="line" smooth="yes"/>
      <point x="262" y="-6"/>
      <point x="257" y="1"/>
      <point x="126" y="49" type="curve"/>
      <point x="120" y="26"/>
      <point x="111" y="21"/>
    </contour>
    <contour>
      <point x="112" y="197" type="curve" smooth="yes"/>
      <point x="91" y="114"/>
      <point x="135" y="86"/>
      <point x="126" y="49" type="curve" smooth="yes"/>
      <point x="125" y="48"/>
      <point x="111" y="-9"/>
      <point x="106" y="-28" type="curve"/>
      <point x="252" y="-28"/>
      <point x="257" y="-24"/>
      <point x="259" y="-18" type="curve" smooth="yes"/>
      <point x="269" y="23" type="line" smooth="yes"/>
      <point x="293" y="119"/>
      <point x="246" y="135"/>
      <point x="261" y="195" type="curve" smooth="yes"/>
      <point x="273" y="244"/>
      <point x="332" y="268"/>
      <point x="437" y="268" type="curve" smooth="yes"/>
      <point x="469" y="268" type="line"/>
      <point x="493" y="361" type="line" smooth="yes"/>
      <point x="495" y="369"/>
      <point x="492" y="372"/>
      <point x="485" y="372" type="curve" smooth="yes"/>
      <point x="464" y="372" type="line" smooth="yes"/>
      <point x="230" y="372"/>
      <point x="135" y="291"/>
    </contour>
    <contour>
      <point x="183" y="482" type="curve" smooth="yes"/>
      <point x="158" y="383"/>
      <point x="213" y="306"/>
      <point x="447" y="306" type="curve" smooth="yes"/>
      <point x="458" y="306"/>
      <point x="468" y="306"/>
      <point x="479" y="306" type="curve"/>
      <point x="502" y="399" type="line" smooth="yes"/>
      <point x="504" y="406"/>
      <point x="501" y="410"/>
      <point x="494" y="410" type="curve" smooth="yes"/>
      <point x="473" y="410" type="line" smooth="yes"/>
      <point x="368" y="410"/>
      <point x="322" y="438"/>
      <point x="334" y="484" type="curve" smooth="yes"/>
      <point x="349" y="544"/>
      <point x="404" y="560"/>
      <point x="428" y="656" type="curve" smooth="yes"/>
      <point x="438" y="697" type="line" smooth="yes"/>
      <point x="439" y="703"/>
      <point x="436" y="707"/>
      <point x="290" y="707" type="curve"/>
      <point x="284" y="681"/>
      <point x="278" y="656"/>
      <point x="271" y="630" type="curve" smooth="yes"/>
      <point x="262" y="593"/>
      <point x="204" y="565"/>
    </contour>
    <contour>
      <point x="246" y="658" type="curve" smooth="yes"/>
      <point x="270" y="658"/>
      <point x="277" y="653"/>
      <point x="271" y="630" type="curve"/>
      <point x="424" y="678"/>
      <point x="435" y="685"/>
      <point x="437" y="693" type="curve" smooth="yes"/>
      <point x="438" y="697" type="line" smooth="yes"/>
      <point x="448" y="736"/>
      <point x="435" y="800"/>
      <point x="351" y="800" type="curve" smooth="yes"/>
      <point x="174" y="800" type="line" smooth="yes"/>
      <point x="167" y="800"/>
      <point x="162" y="796"/>
      <point x="160" y="789" type="curve"/>
      <point x="127" y="658" type="line"/>
      <point x="147" y="658" type="line"/>
      <point x="205" y="658"/>
      <point x="174" y="658"/>
    </contour>
  </outline>
</glyph>
<glyph name="exclamdown" format="1">
  <advance width="400"/>
  <unicode hex="00A1"/>
  <outline>
    <contour>
      <point x="141" y="250" type="line"/>
      <point x="111" y="179"/>
      <point x="82" y="109"/>
      <point x="52" y="38" type="curve"/>
      <point x="5" y="-149" type="line" smooth="yes"/>
      <point x="3" y="-156"/>
      <point x="7" y="-160"/>
      <point x="13" y="-160" type="curve" smooth="yes"/>
      <point x="85" y="-160"/>
      <point x="141" y="-160"/>
      <point x="182" y="-160" type="curve"/>
      <point x="192" y="-122"/>
      <point x="201" y="-87"/>
      <point x="210" y="-50" type="curve" smooth="yes"/>
      <point x="232" y="38" type="line"/>
      <point x="250" y="241"/>
      <point x="249" y="243"/>
      <point x="246" y="247" type="curve" smooth="yes"/>
      <point x="245" y="249"/>
      <point x="243" y="250"/>
      <point x="239" y="250" type="curve"/>
    </contour>
    <contour>
      <point x="170" y="550" type="curve"/>
      <point x="123" y="361" type="line" smooth="yes"/>
      <point x="121" y="355"/>
      <point x="125" y="350"/>
      <point x="131" y="350" type="curve" smooth="yes"/>
      <point x="194" y="350"/>
      <point x="257" y="350"/>
      <point x="320" y="350" type="curve"/>
      <point x="367" y="539" type="line" smooth="yes"/>
      <point x="369" y="545"/>
      <point x="365" y="550"/>
      <point x="359" y="550" type="curve" smooth="yes"/>
      <point x="296" y="550"/>
      <point x="233" y="550"/>
    </contour>
  </outline>
</glyph>
<glyph name="sterling" format="1">
  <advance width="600"/>
  <unicode hex="00A3"/>
  <outline>
    <contour>
      <point x="462" y="570" type="curve" smooth="yes"/>
      <point x="508" y="570"/>
      <point x="538" y="562"/>
      <point x="579" y="545" type="curve"/>
      <point x="599" y="545" type="line"/>
      <point x="608" y="580"/>
      <point x="619" y="627"/>
      <point x="633" y="680" type="curve" smooth="yes"/>
      <point x="633" y="683"/>
      <point x="634" y="685"/>
      <point x="632" y="687" type="curve" smooth="yes"/>
      <point x="625" y="696"/>
      <point x="579" y="720"/>
      <point x="498" y="720" type="curve" smooth="yes"/>
      <point x="340" y="720"/>
      <point x="230" y="648"/>
      <point x="201" y="533" type="curve" smooth="yes"/>
      <point x="194" y="506" type="line" smooth="yes"/>
      <point x="191" y="494"/>
      <point x="197" y="489"/>
      <point x="343" y="500" type="curve"/>
      <point x="356" y="554"/>
      <point x="388" y="570"/>
    </contour>
    <contour>
      <point x="194" y="506" type="curve" smooth="yes"/>
      <point x="170" y="408"/>
      <point x="150" y="329"/>
      <point x="124" y="225" type="curve" smooth="yes"/>
      <point x="110" y="171"/>
      <point x="75" y="142"/>
      <point x="33" y="142" type="curve" smooth="yes"/>
      <point x="26" y="142"/>
      <point x="19" y="142"/>
      <point x="12" y="142" type="curve"/>
      <point x="8" y="142" type="line"/>
      <point x="-3" y="98"/>
      <point x="-12" y="63"/>
      <point x="-25" y="11" type="curve" smooth="yes"/>
      <point x="-27" y="3"/>
      <point x="-24" y="0"/>
      <point x="-17" y="0" type="curve" smooth="yes"/>
      <point x="-12" y="0" type="line" smooth="yes"/>
      <point x="121" y="0"/>
      <point x="233" y="64"/>
      <point x="279" y="248" type="curve" smooth="yes"/>
      <point x="301" y="333"/>
      <point x="321" y="415"/>
      <point x="343" y="500" type="curve" smooth="yes"/>
      <point x="353" y="541"/>
      <point x="362" y="579"/>
      <point x="372" y="618" type="curve"/>
      <point x="288" y="618"/>
      <point x="212" y="577"/>
    </contour>
    <contour>
      <point x="-12" y="0" type="curve"/>
      <point x="167" y="0"/>
      <point x="271" y="0"/>
      <point x="406" y="0" type="curve" smooth="yes"/>
      <point x="471" y="0" type="line" smooth="yes"/>
      <point x="479" y="0"/>
      <point x="483" y="3"/>
      <point x="485" y="11" type="curve"/>
      <point x="496" y="55"/>
      <point x="507" y="98"/>
      <point x="518" y="142" type="curve"/>
      <point x="498" y="142" type="line"/>
      <point x="472" y="142"/>
      <point x="452" y="142"/>
      <point x="419" y="142" type="curve" smooth="yes"/>
      <point x="323" y="142"/>
      <point x="248" y="142"/>
      <point x="95" y="142" type="curve"/>
      <point x="-22" y="9"/>
      <point x="-19" y="0"/>
    </contour>
    <contour>
      <point x="95" y="410" type="line"/>
      <point x="84" y="364"/>
      <point x="82" y="357"/>
      <point x="70" y="311" type="curve" smooth="yes"/>
      <point x="70" y="308"/>
      <point x="70" y="305"/>
      <point x="71" y="303" type="curve" smooth="yes"/>
      <point x="73" y="301"/>
      <point x="76" y="300"/>
      <point x="79" y="300" type="curve" smooth="yes"/>
      <point x="458" y="300" type="line"/>
      <point x="469" y="346"/>
      <point x="471" y="353"/>
      <point x="482" y="399" type="curve" smooth="yes"/>
      <point x="484" y="405"/>
      <point x="480" y="410"/>
      <point x="474" y="410" type="curve" smooth="yes"/>
    </contour>
  </outline>
</glyph>
<glyph name="yen" format="1">
  <advance width="600"/>
  <unicode hex="00A5"/>
  <outline>
    <contour>
      <point x="60" y="468" type="line"/>
      <point x="48" y="422"/>
      <point x="46" y="415"/>
      <point x="35" y="369" type="curve" smooth="yes"/>
      <point x="34" y="366"/>
      <point x="34" y="363"/>
      <point x="36" y="361" type="curve" smooth="yes"/>
      <point x="37" y="359"/>
      <point x="40" y="358"/>
      <point x="43" y="358" type="curve"/>
      <point x="232" y="358" type="line"/>
      <point x="244" y="404"/>
      <point x="245" y="411"/>
      <point x="257" y="457" type="curve" smooth="yes"/>
      <point x="258" y="463"/>
      <point x="255" y="468"/>
      <point x="249" y="468" type="curve"/>
    </contour>
    <contour>
      <point x="440" y="468" type="line"/>
      <point x="428" y="422"/>
      <point x="426" y="415"/>
      <point x="415" y="369" type="curve" smooth="yes"/>
      <point x="413" y="363"/>
      <point x="417" y="358"/>
      <point x="423" y="358" type="curve"/>
      <point x="612" y="358" type="line"/>
      <point x="624" y="404"/>
      <point x="625" y="411"/>
      <point x="637" y="457" type="curve" smooth="yes"/>
      <point x="638" y="463"/>
      <point x="635" y="468"/>
      <point x="629" y="468" type="curve"/>
    </contour>
    <contour>
      <point x="555" y="130" type="line"/>
      <point x="566" y="176"/>
      <point x="568" y="183"/>
      <point x="580" y="229" type="curve" smooth="yes"/>
      <point x="580" y="232"/>
      <point x="580" y="235"/>
      <point x="579" y="237" type="curve" smooth="yes"/>
      <point x="577" y="239"/>
      <point x="574" y="240"/>
      <point x="571" y="240" type="curve"/>
      <point x="2" y="240" type="line"/>
      <point x="-9" y="194"/>
      <point x="-11" y="187"/>
      <point x="-22" y="141" type="curve" smooth="yes"/>
      <point x="-24" y="135"/>
      <point x="-20" y="130"/>
      <point x="-14" y="130" type="curve"/>
    </contour>
    <contour>
      <point x="123" y="700" type="line"/>
      <point x="154" y="547"/>
      <point x="190" y="393"/>
      <point x="220" y="239" type="curve"/>
      <point x="222" y="229"/>
      <point x="228" y="225"/>
      <point x="238" y="225" type="curve"/>
      <point x="303" y="225"/>
      <point x="353" y="302"/>
      <point x="343" y="335" type="curve"/>
      <point x="326" y="451"/>
      <point x="308" y="567"/>
      <point x="292" y="683" type="curve"/>
      <point x="292" y="694"/>
      <point x="289" y="700"/>
      <point x="280" y="700" type="curve" smooth="yes"/>
    </contour>
    <contour>
      <point x="525" y="700" type="line"/>
      <point x="449" y="578"/>
      <point x="374" y="457"/>
      <point x="298" y="335" type="curve"/>
      <point x="258" y="274"/>
      <point x="254" y="251"/>
      <point x="238" y="225" type="curve"/>
      <point x="354" y="225" type="line"/>
      <point x="463" y="377"/>
      <point x="572" y="529"/>
      <point x="681" y="681" type="curve"/>
      <point x="686" y="691"/>
      <point x="684" y="700"/>
      <point x="673" y="700" type="curve"/>
    </contour>
    <contour>
      <point x="312" y="0" type="curve"/>
      <point x="321" y="33"/>
      <point x="329" y="67"/>
      <point x="337" y="100" type="curve" smooth="yes"/>
      <point x="385" y="289" type="line" smooth="yes"/>
      <point x="386" y="295"/>
      <point x="383" y="300"/>
      <point x="228" y="300" type="curve"/>
      <point x="155" y="11" type="line" smooth="yes"/>
      <point x="154" y="8"/>
      <point x="155" y="5"/>
      <point x="156" y="3" type="curve" smooth="yes"/>
      <point x="158" y="1"/>
      <point x="160" y="0"/>
      <point x="163" y="0" type="curve" smooth="yes"/>
      <point x="213" y="0"/>
      <point x="262" y="0"/>
    </contour>
  </outline>
</glyph>
<glyph name="brokenbar" format="1">
  <advance width="300"/>
  <unicode hex="00A6"/>
  <outline>
    <contour>
      <point x="193" y="760" type="curve"/>
      <point x="184" y="727"/>
      <point x="176" y="694"/>
      <point x="168" y="661" type="curve" smooth="yes"/>
      <point x="98" y="380" type="line" smooth="yes"/>
      <point x="96" y="374"/>
      <point x="100" y="369"/>
      <point x="106" y="369" type="curve" smooth="yes"/>
      <point x="155" y="369"/>
      <point x="204" y="369"/>
      <point x="255" y="369" type="curve"/>
      <point x="350" y="749" type="line" smooth="yes"/>
      <point x="351" y="752"/>
      <point x="350" y="755"/>
      <point x="349" y="757" type="curve" smooth="yes"/>
      <point x="347" y="759"/>
      <point x="345" y="760"/>
      <point x="342" y="760" type="curve" smooth="yes"/>
      <point x="291" y="760"/>
      <point x="242" y="760"/>
    </contour>
    <contour>
      <point x="60" y="231" type="curve"/>
      <point x="-35" y="-149" type="line"/>
      <point x="-36" y="-155"/>
      <point x="-33" y="-160"/>
      <point x="-27" y="-160" type="curve" smooth="yes"/>
      <point x="22" y="-160"/>
      <point x="71" y="-160"/>
      <point x="122" y="-160" type="curve"/>
      <point x="217" y="220" type="line" smooth="yes"/>
      <point x="219" y="227"/>
      <point x="216" y="231"/>
      <point x="209" y="231" type="curve" smooth="yes"/>
      <point x="158" y="231"/>
      <point x="109" y="231"/>
    </contour>
  </outline>
</glyph>
<glyph name="dieresis" format="1">
  <advance width="600"/>
  <unicode hex="00A8"/>
  <outline>
    <contour>
      <point x="353" y="611" type="curve"/>
      <point x="390" y="757" type="line" smooth="yes"/>
      <point x="391" y="763"/>
      <point x="388" y="768"/>
      <point x="382" y="768" type="curve" smooth="yes"/>
      <point x="334" y="768"/>
      <point x="285" y="768"/>
      <point x="237" y="768" type="curve"/>
      <point x="200" y="622" type="line" smooth="yes"/>
      <point x="199" y="616"/>
      <point x="202" y="611"/>
      <point x="208" y="611" type="curve" smooth="yes"/>
      <point x="256" y="611"/>
      <point x="305" y="611"/>
    </contour>
    <contour>
      <point x="573" y="611" type="curve"/>
      <point x="610" y="757" type="line" smooth="yes"/>
      <point x="611" y="763"/>
      <point x="608" y="768"/>
      <point x="602" y="768" type="curve" smooth="yes"/>
      <point x="554" y="768"/>
      <point x="505" y="768"/>
      <point x="457" y="768" type="curve"/>
      <point x="420" y="622" type="line" smooth="yes"/>
      <point x="419" y="616"/>
      <point x="422" y="611"/>
      <point x="428" y="611" type="curve" smooth="yes"/>
      <point x="476" y="611"/>
      <point x="525" y="611"/>
    </contour>
  </outline>
</glyph>
<glyph name="copyright" format="1">
  <advance width="600"/>
  <unicode hex="00A9"/>
  <outline>
    <contour>
      <point x="411" y="715" type="curve" smooth="yes"/>
      <point x="245" y="715"/>
      <point x="100" y="617"/>
      <point x="53" y="428" type="curve" smooth="yes"/>
      <point x="13" y="271" type="line" smooth="yes"/>
      <point x="-34" y="83"/>
      <point x="55" y="-15"/>
      <point x="229" y="-15" type="curve" smooth="yes"/>
      <point x="229" y="-15"/>
      <point x="258" y="17"/>
      <point x="244" y="47" type="curve"/>
      <point x="107" y="47"/>
      <point x="44" y="130"/>
      <point x="75" y="255" type="curve" smooth="yes"/>
      <point x="123" y="446" type="line" smooth="yes"/>
      <point x="154" y="571"/>
      <point x="259" y="653"/>
      <point x="396" y="653" type="curve" smooth="yes"/>
      <point x="464" y="653"/>
      <point x="503" y="645"/>
      <point x="554" y="619" type="curve"/>
      <point x="596" y="664"/>
      <point x="530" y="715"/>
    </contour>
    <contour>
      <point x="229" y="-15" type="curve" smooth="yes"/>
      <point x="395" y="-15"/>
      <point x="540" y="83"/>
      <point x="588" y="272" type="curve" smooth="yes"/>
      <point x="627" y="429" type="line" smooth="yes"/>
      <point x="674" y="617"/>
      <point x="585" y="715"/>
      <point x="411" y="715" type="curve" smooth="yes"/>
      <point x="411" y="715"/>
      <point x="382" y="683"/>
      <point x="396" y="653" type="curve"/>
      <point x="533" y="653"/>
      <point x="596" y="570"/>
      <point x="565" y="445" type="curve" smooth="yes"/>
      <point x="517" y="254" type="line" smooth="yes"/>
      <point x="486" y="129"/>
      <point x="381" y="47"/>
      <point x="244" y="47" type="curve" smooth="yes"/>
      <point x="176" y="47"/>
      <point x="137" y="55"/>
      <point x="86" y="81" type="curve"/>
      <point x="44" y="36"/>
      <point x="110" y="-15"/>
    </contour>
    <contour>
      <point x="362" y="485" type="curve" smooth="yes"/>
      <point x="395" y="485"/>
      <point x="404" y="470"/>
      <point x="415" y="446" type="curve"/>
      <point x="472" y="494"/>
      <point x="480" y="504"/>
      <point x="481" y="511" type="curve" smooth="yes"/>
      <point x="483" y="516"/>
      <point x="482" y="518"/>
      <point x="479" y="522" type="curve" smooth="yes"/>
      <point x="462" y="549"/>
      <point x="430" y="566"/>
      <point x="382" y="566" type="curve" smooth="yes"/>
      <point x="293" y="566"/>
      <point x="228" y="515"/>
      <point x="206" y="427" type="curve" smooth="yes"/>
      <point x="168" y="273" type="line" smooth="yes"/>
      <point x="160" y="244"/>
      <point x="188" y="211"/>
      <point x="243" y="211" type="curve"/>
      <point x="249" y="234"/>
      <point x="253" y="252"/>
      <point x="260" y="277" type="curve" smooth="yes"/>
      <point x="298" y="428" type="line" smooth="yes"/>
      <point x="307" y="464"/>
      <point x="328" y="485"/>
    </contour>
    <contour>
      <point x="273" y="134" type="curve" smooth="yes"/>
      <point x="320" y="134"/>
      <point x="367" y="149"/>
      <point x="393" y="174" type="curve"/>
      <point x="397" y="178"/>
      <point x="398" y="179"/>
      <point x="400" y="185" type="curve" smooth="yes"/>
      <point x="406" y="210"/>
      <point x="412" y="235"/>
      <point x="420" y="265" type="curve"/>
      <point x="409" y="265" type="line"/>
      <point x="373" y="234"/>
      <point x="343" y="219"/>
      <point x="301" y="219" type="curve" smooth="yes"/>
      <point x="262" y="219"/>
      <point x="249" y="235"/>
      <point x="260" y="277" type="curve"/>
      <point x="189" y="290"/>
      <point x="170" y="282"/>
      <point x="168" y="273" type="curve" smooth="yes"/>
      <point x="146" y="188"/>
      <point x="177" y="134"/>
    </contour>
    <contour>
      <point x="458" y="419" type="curve"/>
      <point x="481" y="511" type="line" smooth="yes"/>
      <point x="483" y="519"/>
      <point x="465" y="522"/>
      <point x="401" y="522" type="curve"/>
      <point x="399" y="515"/>
      <point x="398" y="511"/>
      <point x="397" y="506" type="curve" smooth="yes"/>
      <point x="378" y="430" type="line" smooth="yes"/>
      <point x="376" y="423"/>
      <point x="378" y="419"/>
      <point x="386" y="419" type="curve" smooth="yes"/>
      <point x="411" y="419"/>
      <point x="430" y="419"/>
    </contour>
  </outline>
</glyph>
<glyph name="guillemotleft" format="1">
  <advance width="600"/>
  <unicode hex="00AB"/>
  <outline>
    <contour>
      <point x="400" y="522" type="line"/>
      <point x="356" y="522"/>
      <point x="324" y="522"/>
      <point x="290" y="522" type="curve" smooth="yes"/>
      <point x="278" y="522"/>
      <point x="273" y="521"/>
      <point x="262" y="512" type="curve" smooth="yes"/>
      <point x="225" y="482"/>
      <point x="116" y="391"/>
      <point x="38" y="325" type="curve"/>
      <point x="33" y="305" type="line"/>
      <point x="30" y="292"/>
      <point x="37" y="289"/>
      <point x="103" y="257" type="curve"/>
      <point x="202" y="340"/>
      <point x="271" y="398"/>
      <point x="395" y="501" type="curve"/>
    </contour>
    <contour>
      <point x="294" y="99" type="line"/>
      <point x="221" y="202"/>
      <point x="185" y="253"/>
      <point x="138" y="322" type="curve"/>
      <point x="49" y="322"/>
      <point x="37" y="320"/>
      <point x="34" y="309" type="curve"/>
      <point x="28" y="285" type="line" smooth="yes"/>
      <point x="26" y="277"/>
      <point x="26" y="273"/>
      <point x="32" y="263" type="curve" smooth="yes"/>
      <point x="47" y="242"/>
      <point x="144" y="105"/>
      <point x="154" y="90" type="curve"/>
      <point x="162" y="79"/>
      <point x="164" y="78"/>
      <point x="177" y="78" type="curve" smooth="yes"/>
      <point x="232" y="78"/>
      <point x="259" y="78"/>
      <point x="289" y="78" type="curve"/>
    </contour>
    <contour>
      <point x="630" y="522" type="line"/>
      <point x="586" y="522"/>
      <point x="554" y="522"/>
      <point x="520" y="522" type="curve" smooth="yes"/>
      <point x="508" y="522"/>
      <point x="503" y="521"/>
      <point x="492" y="512" type="curve" smooth="yes"/>
      <point x="455" y="482"/>
      <point x="346" y="391"/>
      <point x="268" y="325" type="curve"/>
      <point x="263" y="305" type="line"/>
      <point x="260" y="292"/>
      <point x="267" y="289"/>
      <point x="333" y="257" type="curve"/>
      <point x="432" y="340"/>
      <point x="501" y="398"/>
      <point x="625" y="501" type="curve"/>
    </contour>
    <contour>
      <point x="524" y="99" type="line"/>
      <point x="451" y="202"/>
      <point x="415" y="253"/>
      <point x="368" y="322" type="curve"/>
      <point x="279" y="322"/>
      <point x="267" y="320"/>
      <point x="264" y="309" type="curve"/>
      <point x="258" y="285" type="line" smooth="yes"/>
      <point x="256" y="277"/>
      <point x="256" y="273"/>
      <point x="262" y="263" type="curve" smooth="yes"/>
      <point x="277" y="242"/>
      <point x="374" y="105"/>
      <point x="384" y="90" type="curve"/>
      <point x="392" y="79"/>
      <point x="394" y="78"/>
      <point x="407" y="78" type="curve" smooth="yes"/>
      <point x="462" y="78"/>
      <point x="489" y="78"/>
      <point x="519" y="78" type="curve"/>
    </contour>
  </outline>
</glyph>
<glyph name="logicalnot" format="1">
  <advance width="600"/>
  <unicode hex="00AC"/>
  <outline>
    <contour>
      <point x="108" y="460" type="line"/>
      <point x="96" y="414"/>
      <point x="88" y="381"/>
      <point x="76" y="335" type="curve" smooth="yes"/>
      <point x="76" y="332"/>
      <point x="76" y="329"/>
      <point x="77" y="327" type="curve" smooth="yes"/>
      <point x="79" y="325"/>
      <point x="82" y="324"/>
      <point x="85" y="324" type="curve"/>
      <point x="554" y="324" type="line"/>
      <point x="585" y="449" type="line"/>
      <point x="586" y="455"/>
      <point x="583" y="460"/>
      <point x="577" y="460" type="curve"/>
    </contour>
    <contour>
      <point x="508" y="141" type="curve"/>
      <point x="571" y="394" type="line" smooth="yes"/>
      <point x="573" y="400"/>
      <point x="569" y="405"/>
      <point x="563" y="405" type="curve"/>
      <point x="424" y="405" type="line"/>
      <point x="360" y="152" type="line" smooth="yes"/>
      <point x="359" y="146"/>
      <point x="363" y="141"/>
      <point x="369" y="141" type="curve" smooth="yes"/>
      <point x="419" y="141"/>
      <point x="458" y="141"/>
    </contour>
  </outline>
</glyph>
<glyph name="uni00AD" format="1">
  <advance width="600"/>
  <unicode hex="00AD"/>
  <outline>
    <contour>
      <point x="135" y="371" type="line"/>
      <point x="124" y="325"/>
      <point x="114" y="285"/>
      <point x="102" y="239" type="curve" smooth="yes"/>
      <point x="101" y="236"/>
      <point x="102" y="233"/>
      <point x="103" y="231" type="curve" smooth="yes"/>
      <point x="105" y="229"/>
      <point x="107" y="228"/>
      <point x="110" y="228" type="curve"/>
      <point x="479" y="228" type="line"/>
      <point x="491" y="274"/>
      <point x="501" y="314"/>
      <point x="513" y="360" type="curve" smooth="yes"/>
      <point x="514" y="366"/>
      <point x="510" y="371"/>
      <point x="504" y="371" type="curve"/>
    </contour>
  </outline>
</glyph>
<glyph name="registered" format="1">
  <advance width="600"/>
  <unicode hex="00AE"/>
  <outline>
    <contour>
      <point x="284" y="327" type="curve"/>
      <point x="291" y="352"/>
      <point x="297" y="376"/>
      <point x="303" y="401" type="curve"/>
      <point x="353" y="602" type="line"/>
      <point x="353" y="603"/>
      <point x="355" y="608"/>
      <point x="273" y="608" type="curve"/>
      <point x="205" y="338" type="line" smooth="yes"/>
      <point x="203" y="331"/>
      <point x="206" y="327"/>
      <point x="213" y="327" type="curve" smooth="yes"/>
      <point x="237" y="327"/>
      <point x="260" y="327"/>
    </contour>
    <contour>
      <point x="259" y="635" type="curve"/>
      <point x="254" y="614"/>
      <point x="250" y="597"/>
      <point x="245" y="576" type="curve"/>
      <point x="243" y="569"/>
      <point x="246" y="565"/>
      <point x="253" y="565" type="curve"/>
      <point x="259" y="565"/>
      <point x="269" y="565"/>
      <point x="275" y="565" type="curve" smooth="yes"/>
      <point x="311" y="565"/>
      <point x="359" y="565"/>
      <point x="395" y="565" type="curve" smooth="yes"/>
      <point x="430" y="565"/>
      <point x="448" y="565"/>
      <point x="467" y="565" type="curve"/>
      <point x="478" y="608"/>
      <point x="458" y="635"/>
      <point x="415" y="635" type="curve" smooth="yes"/>
      <point x="370" y="635"/>
      <point x="304" y="635"/>
    </contour>
    <contour>
      <point x="488" y="510" type="curve" smooth="yes"/>
      <point x="497" y="545" type="line" smooth="yes"/>
      <point x="511" y="600"/>
      <point x="485" y="635"/>
      <point x="415" y="635" type="curve"/>
      <point x="410" y="635"/>
      <point x="402" y="631"/>
      <point x="395" y="565" type="curve"/>
      <point x="413" y="565"/>
      <point x="420" y="558"/>
      <point x="416" y="541" type="curve" smooth="yes"/>
      <point x="410" y="517" type="line" smooth="yes"/>
      <point x="406" y="503"/>
      <point x="392" y="493"/>
      <point x="377" y="493" type="curve" smooth="yes"/>
      <point x="357" y="493"/>
      <point x="310" y="493"/>
      <point x="295" y="493" type="curve"/>
      <point x="290" y="473"/>
      <point x="285" y="455"/>
      <point x="279" y="431" type="curve" smooth="yes"/>
      <point x="279" y="428"/>
      <point x="281" y="425"/>
      <point x="284" y="425" type="curve" smooth="yes"/>
      <point x="383" y="425" type="line" smooth="yes"/>
      <point x="436" y="425"/>
      <point x="476" y="461"/>
    </contour>
    <contour>
      <point x="418" y="477" type="line"/>
      <point x="373" y="477"/>
      <point x="343" y="448"/>
      <point x="345" y="434" type="curve" smooth="yes"/>
      <point x="353" y="372" type="line" smooth="yes"/>
      <point x="357" y="336"/>
      <point x="377" y="324"/>
      <point x="421" y="324" type="curve" smooth="yes"/>
      <point x="432" y="324" type="line" smooth="yes"/>
      <point x="440" y="324"/>
      <point x="444" y="328"/>
      <point x="445" y="335" type="curve"/>
      <point x="449" y="351"/>
      <point x="456" y="379"/>
      <point x="462" y="401" type="curve"/>
      <point x="459" y="401" type="line"/>
      <point x="454" y="401"/>
      <point x="449" y="401"/>
      <point x="443" y="401" type="curve"/>
      <point x="431" y="401"/>
      <point x="428" y="403"/>
      <point x="427" y="413" type="curve" smooth="yes"/>
    </contour>
    <contour>
      <point x="423" y="760" type="curve" smooth="yes"/>
      <point x="264" y="760"/>
      <point x="147" y="685"/>
      <point x="111" y="543" type="curve" smooth="yes"/>
      <point x="80" y="417" type="line" smooth="yes"/>
      <point x="44" y="275"/>
      <point x="123" y="200"/>
      <point x="282" y="200" type="curve" smooth="yes"/>
      <point x="282" y="200"/>
      <point x="300" y="211"/>
      <point x="298" y="262" type="curve"/>
      <point x="170" y="262"/>
      <point x="122" y="321"/>
      <point x="144" y="411" type="curve" smooth="yes"/>
      <point x="179" y="551" type="line" smooth="yes"/>
      <point x="202" y="640"/>
      <point x="279" y="698"/>
      <point x="407" y="698" type="curve" smooth="yes"/>
      <point x="454" y="698"/>
      <point x="483" y="698"/>
      <point x="524" y="698" type="curve"/>
      <point x="532" y="731"/>
      <point x="509" y="760"/>
    </contour>
    <contour>
      <point x="282" y="200" type="curve" smooth="yes"/>
      <point x="447" y="200"/>
      <point x="558" y="275"/>
      <point x="594" y="417" type="curve" smooth="yes"/>
      <point x="625" y="543" type="line" smooth="yes"/>
      <point x="661" y="685"/>
      <point x="588" y="760"/>
      <point x="423" y="760" type="curve" smooth="yes"/>
      <point x="423" y="760"/>
      <point x="405" y="749"/>
      <point x="407" y="698" type="curve"/>
      <point x="541" y="698"/>
      <point x="583" y="639"/>
      <point x="561" y="549" type="curve" smooth="yes"/>
      <point x="526" y="409" type="line" smooth="yes"/>
      <point x="504" y="320"/>
      <point x="432" y="262"/>
      <point x="298" y="262" type="curve" smooth="yes"/>
      <point x="251" y="262"/>
      <point x="222" y="262"/>
      <point x="181" y="262" type="curve"/>
      <point x="173" y="229"/>
      <point x="196" y="200"/>
    </contour>
  </outline>
</glyph>
<glyph name="macron" format="1">
  <advance width="600"/>
  <unicode hex="00AF"/>
  <outline>
    <contour>
      <point x="246" y="773" type="line"/>
      <point x="236" y="734"/>
      <point x="228" y="700"/>
      <point x="218" y="661" type="curve" smooth="yes"/>
      <point x="216" y="654"/>
      <point x="219" y="650"/>
      <point x="226" y="650" type="curve"/>
      <point x="575" y="650" type="line"/>
      <point x="585" y="689"/>
      <point x="593" y="723"/>
      <point x="603" y="762" type="curve" smooth="yes"/>
      <point x="605" y="768"/>
      <point x="601" y="773"/>
      <point x="595" y="773" type="curve"/>
    </contour>
  </outline>
</glyph>
<glyph name="degree" format="1">
  <advance width="600"/>
  <unicode hex="00B0"/>
  <outline>
    <contour>
      <point x="347" y="456" type="curve"/>
      <point x="299" y="456"/>
      <point x="277" y="477"/>
      <point x="286" y="513" type="curve" smooth="yes"/>
      <point x="297" y="556" type="line" smooth="yes"/>
      <point x="306" y="593"/>
      <point x="339" y="613"/>
      <point x="386" y="613" type="curve" smooth="yes"/>
      <point x="416" y="613"/>
      <point x="432" y="613"/>
      <point x="452" y="613" type="curve"/>
      <point x="467" y="672"/>
      <point x="474" y="710"/>
      <point x="410" y="710" type="curve"/>
      <point x="303" y="710"/>
      <point x="221" y="654"/>
      <point x="199" y="566" type="curve" smooth="yes"/>
      <point x="184" y="504" type="line" smooth="yes"/>
      <point x="161" y="415"/>
      <point x="215" y="359"/>
      <point x="322" y="359" type="curve"/>
      <point x="331" y="359"/>
      <point x="349" y="430"/>
    </contour>
    <contour>
      <point x="386" y="613" type="curve"/>
      <point x="434" y="613"/>
      <point x="456" y="593"/>
      <point x="447" y="556" type="curve" smooth="yes"/>
      <point x="436" y="513" type="line" smooth="yes"/>
      <point x="427" y="477"/>
      <point x="394" y="456"/>
      <point x="347" y="456" type="curve" smooth="yes"/>
      <point x="317" y="456"/>
      <point x="302" y="456"/>
      <point x="281" y="456" type="curve"/>
      <point x="266" y="399"/>
      <point x="258" y="359"/>
      <point x="322" y="359" type="curve"/>
      <point x="429" y="359"/>
      <point x="511" y="415"/>
      <point x="534" y="504" type="curve" smooth="yes"/>
      <point x="549" y="566" type="line" smooth="yes"/>
      <point x="571" y="654"/>
      <point x="517" y="710"/>
      <point x="410" y="710" type="curve"/>
      <point x="397" y="710"/>
      <point x="383" y="642"/>
    </contour>
  </outline>
</glyph>
<glyph name="twosuperior" format="1">
  <advance width="600"/>
  <unicode hex="00B2"/>
  <outline>
    <contour>
      <point x="376" y="618" type="curve" smooth="yes"/>
      <point x="412" y="618"/>
      <point x="417" y="611"/>
      <point x="415" y="602" type="curve"/>
      <point x="462" y="602"/>
      <point x="514" y="612"/>
      <point x="515" y="617" type="curve" smooth="yes"/>
      <point x="530" y="679"/>
      <point x="478" y="710"/>
      <point x="401" y="710" type="curve" smooth="yes"/>
      <point x="351" y="710"/>
      <point x="303" y="700"/>
      <point x="286" y="687" type="curve" smooth="yes"/>
      <point x="280" y="682"/>
      <point x="279" y="679"/>
      <point x="278" y="673" type="curve" smooth="yes"/>
      <point x="271" y="647"/>
      <point x="265" y="623"/>
      <point x="260" y="600" type="curve"/>
      <point x="272" y="600" type="line"/>
      <point x="314" y="614"/>
      <point x="338" y="618"/>
    </contour>
    <contour>
      <point x="431" y="664" type="curve"/>
      <point x="425" y="642"/>
      <point x="419" y="616"/>
      <point x="415" y="602" type="curve" smooth="yes"/>
      <point x="412" y="590"/>
      <point x="408" y="586"/>
      <point x="344" y="567" type="curve" smooth="yes"/>
      <point x="255" y="542"/>
      <point x="225" y="502"/>
      <point x="212" y="451" type="curve" smooth="yes"/>
      <point x="211" y="445"/>
      <point x="266" y="446"/>
      <point x="307" y="446" type="curve"/>
      <point x="315" y="476"/>
      <point x="324" y="483"/>
      <point x="398" y="505" type="curve" smooth="yes"/>
      <point x="472" y="527"/>
      <point x="499" y="554"/>
      <point x="513" y="608" type="curve" smooth="yes"/>
      <point x="515" y="617" type="line" smooth="yes"/>
      <point x="521" y="641"/>
      <point x="467" y="664"/>
    </contour>
    <contour>
      <point x="457" y="369" type="line"/>
      <point x="464" y="397"/>
      <point x="469" y="417"/>
      <point x="476" y="445" type="curve" smooth="yes"/>
      <point x="478" y="452"/>
      <point x="475" y="456"/>
      <point x="468" y="456" type="curve" smooth="yes"/>
      <point x="261" y="456" type="line" smooth="yes"/>
      <point x="247" y="456"/>
      <point x="231" y="454"/>
      <point x="212" y="451" type="curve"/>
      <point x="207" y="428"/>
      <point x="200" y="403"/>
      <point x="195" y="380" type="curve" smooth="yes"/>
      <point x="193" y="373"/>
      <point x="196" y="369"/>
      <point x="203" y="369" type="curve" smooth="yes"/>
    </contour>
  </outline>
</glyph>
<glyph name="acute" format="1">
  <advance width="600"/>
  <unicode hex="00B4"/>
  <outline>
    <contour>
      <point x="437" y="617" type="curve" smooth="yes"/>
      <point x="445" y="617"/>
      <point x="452" y="621"/>
      <point x="456" y="625" type="curve" smooth="yes"/>
      <point x="531" y="690"/>
      <point x="581" y="733"/>
      <point x="646" y="790" type="curve"/>
      <point x="654" y="797"/>
      <point x="651" y="805"/>
      <point x="643" y="805" type="curve" smooth="yes"/>
      <point x="582" y="805"/>
      <point x="535" y="805"/>
      <point x="472" y="805" type="curve"/>
      <point x="420" y="741"/>
      <point x="369" y="679"/>
      <point x="319" y="617" type="curve"/>
      <point x="357" y="617"/>
      <point x="394" y="617"/>
    </contour>
  </outline>
</glyph>
<glyph name="uni00B5" format="1">
  <advance width="600"/>
  <unicode hex="00B5"/>
  <outline>
    <contour>
      <point x="138" y="540" type="curve"/>
      <point x="131" y="512"/>
      <point x="122" y="478"/>
      <point x="113" y="442" type="curve" smooth="yes"/>
      <point x="37" y="139" type="line"/>
      <point x="25" y="90"/>
      <point x="121" y="77"/>
      <point x="193" y="122" type="curve"/>
      <point x="197" y="138"/>
      <point x="201" y="156"/>
      <point x="208" y="182" type="curve" smooth="yes"/>
      <point x="295" y="529" type="line" smooth="yes"/>
      <point x="296" y="535"/>
      <point x="293" y="540"/>
      <point x="287" y="540" type="curve" smooth="yes"/>
      <point x="237" y="540"/>
      <point x="188" y="540"/>
    </contour>
    <contour>
      <point x="154" y="-12" type="curve" smooth="yes"/>
      <point x="204" y="-12"/>
      <point x="255" y="8"/>
      <point x="329" y="91" type="curve" smooth="yes"/>
      <point x="361" y="126"/>
      <point x="410" y="187"/>
      <point x="399" y="251" type="curve"/>
      <point x="319" y="171"/>
      <point x="274" y="148"/>
      <point x="231" y="148" type="curve" smooth="yes"/>
      <point x="209" y="148"/>
      <point x="202" y="159"/>
      <point x="208" y="182" type="curve"/>
      <point x="71" y="182"/>
      <point x="42" y="160"/>
      <point x="37" y="139" type="curve" smooth="yes"/>
      <point x="16" y="56"/>
      <point x="71" y="-12"/>
    </contour>
    <contour>
      <point x="598" y="540" type="line"/>
      <point x="550" y="540"/>
      <point x="497" y="540"/>
      <point x="449" y="540" type="curve" smooth="yes"/>
      <point x="443" y="540"/>
      <point x="436" y="535"/>
      <point x="435" y="529" type="curve" smooth="yes"/>
      <point x="333" y="121" type="line" smooth="yes"/>
      <point x="317" y="59"/>
      <point x="372" y="20"/>
      <point x="467" y="20" type="curve"/>
      <point x="476" y="54"/>
      <point x="485" y="89"/>
      <point x="493" y="123" type="curve"/>
    </contour>
    <contour>
      <point x="545" y="132" type="line"/>
      <point x="525" y="132" type="line"/>
      <point x="522" y="132"/>
      <point x="520" y="132"/>
      <point x="516" y="132" type="curve" smooth="yes"/>
      <point x="503" y="132"/>
      <point x="497" y="139"/>
      <point x="501" y="154" type="curve"/>
      <point x="340" y="149"/>
      <point x="336" y="135"/>
      <point x="333" y="121" type="curve" smooth="yes"/>
      <point x="316" y="53"/>
      <point x="349" y="-10"/>
      <point x="450" y="-10" type="curve" smooth="yes"/>
      <point x="499" y="-10" type="line" smooth="yes"/>
      <point x="506" y="-10"/>
      <point x="511" y="-6"/>
      <point x="513" y="1" type="curve"/>
    </contour>
    <contour>
      <point x="42" y="157" type="line"/>
      <point x="12" y="38"/>
      <point x="-15" y="-71"/>
      <point x="-45" y="-189" type="curve" smooth="yes"/>
      <point x="-47" y="-197"/>
      <point x="-44" y="-200"/>
      <point x="-37" y="-200" type="curve" smooth="yes"/>
      <point x="18" y="-200"/>
      <point x="80" y="-200"/>
      <point x="112" y="-200" type="curve"/>
      <point x="120" y="-169"/>
      <point x="121" y="-164"/>
      <point x="129" y="-135" type="curve" smooth="yes"/>
      <point x="130" y="-129"/>
      <point x="95" y="157"/>
      <point x="91" y="157" type="curve" smooth="yes"/>
    </contour>
  </outline>
</glyph>
<glyph name="paragraph" format="1">
  <advance width="600"/>
  <unicode hex="00B6"/>
  <outline>
    <contour>
      <point x="225" y="-150" type="curve"/>
      <point x="417" y="619" type="line"/>
      <point x="419" y="625"/>
      <point x="415" y="630"/>
      <point x="409" y="630" type="curve" smooth="yes"/>
      <point x="372" y="630"/>
      <point x="337" y="630"/>
      <point x="300" y="630" type="curve"/>
      <point x="108" y="-139" type="line" smooth="yes"/>
      <point x="106" y="-146"/>
      <point x="109" y="-150"/>
      <point x="116" y="-150" type="curve" smooth="yes"/>
      <point x="153" y="-150"/>
      <point x="188" y="-150"/>
    </contour>
    <contour>
      <point x="425" y="-150" type="curve"/>
      <point x="433" y="-118"/>
      <point x="442" y="-80"/>
      <point x="452" y="-40" type="curve" smooth="yes"/>
      <point x="617" y="619" type="line" smooth="yes"/>
      <point x="619" y="625"/>
      <point x="615" y="630"/>
      <point x="609" y="630" type="curve" smooth="yes"/>
      <point x="572" y="630"/>
      <point x="537" y="630"/>
      <point x="500" y="630" type="curve"/>
      <point x="308" y="-139" type="line" smooth="yes"/>
      <point x="306" y="-146"/>
      <point x="309" y="-150"/>
      <point x="316" y="-150" type="curve" smooth="yes"/>
      <point x="353" y="-150"/>
      <point x="388" y="-150"/>
    </contour>
    <contour>
      <point x="366" y="700" type="line" smooth="yes"/>
      <point x="232" y="700"/>
      <point x="121" y="631"/>
      <point x="86" y="488" type="curve" smooth="yes"/>
      <point x="64" y="402" type="line" smooth="yes"/>
      <point x="37" y="294"/>
      <point x="85" y="218"/>
      <point x="186" y="218" type="curve" smooth="yes"/>
      <point x="296" y="218" type="line" smooth="yes"/>
      <point x="304" y="218"/>
      <point x="313" y="225"/>
      <point x="339" y="330" type="curve"/>
      <point x="330" y="330" type="line" smooth="yes"/>
      <point x="308" y="330"/>
      <point x="289" y="346"/>
      <point x="301" y="395" type="curve" smooth="yes"/>
      <point x="326" y="492" type="line" smooth="yes"/>
      <point x="338" y="541"/>
      <point x="367" y="563"/>
      <point x="402" y="563" type="curve" smooth="yes"/>
      <point x="483" y="563"/>
      <point x="574" y="563"/>
      <point x="641" y="563" type="curve"/>
      <point x="652" y="563" type="line"/>
      <point x="657" y="583"/>
      <point x="661" y="598"/>
      <point x="684" y="689" type="curve" smooth="yes"/>
      <point x="685" y="692"/>
      <point x="684" y="695"/>
      <point x="683" y="697" type="curve" smooth="yes"/>
      <point x="681" y="699"/>
      <point x="679" y="700"/>
      <point x="676" y="700" type="curve" smooth="yes"/>
    </contour>
  </outline>
</glyph>
<glyph name="periodcentered" format="1">
  <advance width="300"/>
  <unicode hex="00B7"/>
  <outline>
    <contour>
      <point x="238" y="224" type="curve"/>
      <point x="286" y="413" type="line" smooth="yes"/>
      <point x="287" y="419"/>
      <point x="284" y="424"/>
      <point x="278" y="424" type="curve" smooth="yes"/>
      <point x="215" y="424"/>
      <point x="152" y="424"/>
      <point x="89" y="424" type="curve"/>
      <point x="41" y="235" type="line" smooth="yes"/>
      <point x="40" y="229"/>
      <point x="43" y="224"/>
      <point x="49" y="224" type="curve" smooth="yes"/>
      <point x="112" y="224"/>
      <point x="175" y="224"/>
    </contour>
  </outline>
</glyph>
<glyph name="guillemotright" format="1">
  <advance width="600"/>
  <unicode hex="00BB"/>
  <outline>
    <contour>
      <point x="216" y="78" type="line"/>
      <point x="260" y="78"/>
      <point x="292" y="78"/>
      <point x="326" y="78" type="curve" smooth="yes"/>
      <point x="338" y="78"/>
      <point x="343" y="79"/>
      <point x="354" y="88" type="curve" smooth="yes"/>
      <point x="391" y="118"/>
      <point x="500" y="209"/>
      <point x="578" y="275" type="curve"/>
      <point x="583" y="295" type="line"/>
      <point x="587" y="308"/>
      <point x="579" y="311"/>
      <point x="513" y="343" type="curve"/>
      <point x="414" y="260"/>
      <point x="345" y="202"/>
      <point x="221" y="99" type="curve"/>
    </contour>
    <contour>
      <point x="322" y="501" type="line"/>
      <point x="395" y="398"/>
      <point x="431" y="347"/>
      <point x="478" y="278" type="curve"/>
      <point x="567" y="278"/>
      <point x="580" y="280"/>
      <point x="582" y="291" type="curve"/>
      <point x="588" y="315" type="line" smooth="yes"/>
      <point x="590" y="323"/>
      <point x="590" y="327"/>
      <point x="584" y="337" type="curve" smooth="yes"/>
      <point x="569" y="358"/>
      <point x="472" y="495"/>
      <point x="462" y="510" type="curve"/>
      <point x="454" y="521"/>
      <point x="452" y="522"/>
      <point x="439" y="522" type="curve" smooth="yes"/>
      <point x="384" y="522"/>
      <point x="357" y="522"/>
      <point x="327" y="522" type="curve"/>
    </contour>
    <contour>
      <point x="-14" y="78" type="line"/>
      <point x="30" y="78"/>
      <point x="62" y="78"/>
      <point x="96" y="78" type="curve" smooth="yes"/>
      <point x="108" y="78"/>
      <point x="113" y="79"/>
      <point x="124" y="88" type="curve" smooth="yes"/>
      <point x="161" y="118"/>
      <point x="270" y="209"/>
      <point x="348" y="275" type="curve"/>
      <point x="353" y="295" type="line"/>
      <point x="357" y="308"/>
      <point x="349" y="311"/>
      <point x="283" y="343" type="curve"/>
      <point x="184" y="260"/>
      <point x="115" y="202"/>
      <point x="-9" y="99" type="curve"/>
    </contour>
    <contour>
      <point x="92" y="501" type="line"/>
      <point x="165" y="398"/>
      <point x="201" y="347"/>
      <point x="248" y="278" type="curve"/>
      <point x="337" y="278"/>
      <point x="350" y="280"/>
      <point x="352" y="291" type="curve"/>
      <point x="358" y="315" type="line" smooth="yes"/>
      <point x="360" y="323"/>
      <point x="360" y="327"/>
      <point x="354" y="337" type="curve" smooth="yes"/>
      <point x="339" y="358"/>
      <point x="242" y="495"/>
      <point x="232" y="510" type="curve"/>
      <point x="224" y="521"/>
      <point x="222" y="522"/>
      <point x="209" y="522" type="curve" smooth="yes"/>
      <point x="154" y="522"/>
      <point x="127" y="522"/>
      <point x="97" y="522" type="curve"/>
    </contour>
  </outline>
</glyph>
<glyph name="onequarter" format="1">
  <advance width="600"/>
  <unicode hex="00BC"/>
  <outline>
    <contour>
      <point x="270" y="391" type="curve"/>
      <point x="296" y="494"/>
      <point x="322" y="597"/>
      <point x="347" y="699" type="curve" smooth="yes"/>
      <point x="349" y="706"/>
      <point x="346" y="710"/>
      <point x="339" y="710" type="curve" smooth="yes"/>
      <point x="254" y="710" type="line"/>
      <point x="229" y="609"/>
      <point x="203" y="506"/>
      <point x="178" y="404" type="curve" smooth="yes"/>
      <point x="175" y="395"/>
      <point x="226" y="391"/>
    </contour>
    <contour>
      <point x="83" y="459" type="line"/>
      <point x="78" y="438"/>
      <point x="72" y="413"/>
      <point x="63" y="377" type="curve" smooth="yes"/>
      <point x="61" y="369"/>
      <point x="64" y="366"/>
      <point x="71" y="366" type="curve" smooth="yes"/>
      <point x="328" y="366" type="line"/>
      <point x="333" y="387"/>
      <point x="344" y="428"/>
      <point x="349" y="448" type="curve" smooth="yes"/>
      <point x="350" y="455"/>
      <point x="347" y="459"/>
      <point x="340" y="459" type="curve" smooth="yes"/>
    </contour>
    <contour>
      <point x="115" y="528" type="curve" smooth="yes"/>
      <point x="122" y="528"/>
      <point x="127" y="531"/>
      <point x="280" y="640" type="curve" smooth="yes"/>
      <point x="325" y="675"/>
      <point x="311" y="710"/>
      <point x="283" y="710" type="curve"/>
      <point x="246" y="710" type="line"/>
      <point x="208" y="682"/>
      <point x="171" y="655"/>
      <point x="133" y="627" type="curve"/>
      <point x="110" y="534" type="line" smooth="yes"/>
      <point x="109" y="530"/>
      <point x="111" y="528"/>
    </contour>
    <contour>
      <point x="296" y="106" type="curve"/>
      <point x="366" y="183"/>
      <point x="433" y="257"/>
      <point x="505" y="335" type="curve"/>
      <point x="507" y="342" type="line"/>
      <point x="480" y="342"/>
      <point x="438" y="342"/>
      <point x="406" y="342" type="curve" smooth="yes"/>
      <point x="401" y="342"/>
      <point x="397" y="341"/>
      <point x="390" y="334" type="curve" smooth="yes"/>
      <point x="365" y="306"/>
      <point x="221" y="148"/>
      <point x="221" y="146" type="curve" smooth="yes"/>
      <point x="215" y="124"/>
      <point x="262" y="106"/>
    </contour>
    <contour>
      <point x="529" y="68" type="line"/>
      <point x="536" y="93"/>
      <point x="544" y="125"/>
      <point x="550" y="150" type="curve" smooth="yes"/>
      <point x="552" y="157"/>
      <point x="549" y="161"/>
      <point x="542" y="161" type="curve" smooth="yes"/>
      <point x="328" y="161" type="line" smooth="yes"/>
      <point x="308" y="161"/>
      <point x="286" y="158"/>
      <point x="221" y="146" type="curve"/>
      <point x="204" y="79" type="line" smooth="yes"/>
      <point x="203" y="73"/>
      <point x="205" y="68"/>
      <point x="212" y="68" type="curve" smooth="yes"/>
    </contour>
    <contour>
      <point x="471" y="0" type="curve"/>
      <point x="477" y="21"/>
      <point x="479" y="32"/>
      <point x="484" y="52" type="curve" smooth="yes"/>
      <point x="525" y="216" type="line" smooth="yes"/>
      <point x="527" y="223"/>
      <point x="525" y="227"/>
      <point x="517" y="227" type="curve" smooth="yes"/>
      <point x="462" y="227" type="line"/>
      <point x="439" y="193"/>
      <point x="415" y="159"/>
      <point x="414" y="153" type="curve" smooth="yes"/>
      <point x="378" y="11" type="line" smooth="yes"/>
      <point x="376" y="3"/>
      <point x="379" y="0"/>
      <point x="386" y="0" type="curve" smooth="yes"/>
      <point x="414" y="0"/>
      <point x="443" y="0"/>
    </contour>
    <contour>
      <point x="391" y="405" type="curve"/>
      <point x="413" y="405"/>
      <point x="438" y="405"/>
      <point x="475" y="405" type="curve" smooth="yes"/>
      <point x="480" y="405"/>
      <point x="482" y="406"/>
      <point x="487" y="412" type="curve" smooth="yes"/>
      <point x="554" y="507"/>
      <point x="622" y="602"/>
      <point x="690" y="697" type="curve" smooth="yes"/>
      <point x="696" y="705"/>
      <point x="693" y="710"/>
      <point x="685" y="710" type="curve" smooth="yes"/>
      <point x="636" y="710"/>
      <point x="607" y="710"/>
      <point x="549" y="710" type="curve"/>
      <point x="497" y="608"/>
      <point x="443" y="507"/>
    </contour>
    <contour>
      <point x="250" y="296" type="curve"/>
      <point x="228" y="296"/>
      <point x="203" y="296"/>
      <point x="166" y="296" type="curve" smooth="yes"/>
      <point x="161" y="296"/>
      <point x="158" y="295"/>
      <point x="154" y="289" type="curve" smooth="yes"/>
      <point x="86" y="194"/>
      <point x="18" y="99"/>
      <point x="-50" y="4" type="curve" smooth="yes"/>
      <point x="-56" y="-4"/>
      <point x="-53" y="-9"/>
      <point x="-45" y="-9" type="curve" smooth="yes"/>
      <point x="4" y="-9"/>
      <point x="33" y="-9"/>
      <point x="91" y="-9" type="curve"/>
      <point x="144" y="93"/>
      <point x="197" y="194"/>
    </contour>
  </outline>
</glyph>
<glyph name="Agrave" format="1">
  <advance width="600"/>
  <unicode hex="00C0"/>
  <outline>
    <contour>
      <point x="118" y="0" type="curve"/>
      <point x="307" y="433"/>
      <point x="340" y="511"/>
      <point x="392" y="628" type="curve"/>
      <point x="406" y="660"/>
      <point x="432" y="681"/>
      <point x="529" y="700" type="curve"/>
      <point x="277" y="700" type="line"/>
      <point x="231" y="596"/>
      <point x="124" y="355"/>
      <point x="-27" y="13" type="curve"/>
      <point x="-32" y="3"/>
      <point x="-27" y="0"/>
      <point x="-23" y="0" type="curve" smooth="yes"/>
      <point x="24" y="0"/>
      <point x="71" y="0"/>
    </contour>
    <contour>
      <point x="498" y="0" type="curve"/>
      <point x="514" y="277"/>
      <point x="528" y="515"/>
      <point x="538" y="689" type="curve"/>
      <point x="538" y="694"/>
      <point x="537" y="695"/>
      <point x="536" y="697" type="curve" smooth="yes"/>
      <point x="534" y="700"/>
      <point x="533" y="700"/>
      <point x="529" y="700" type="curve"/>
      <point x="385" y="700"/>
      <point x="362" y="689"/>
      <point x="329" y="556" type="curve"/>
      <point x="345" y="556"/>
      <point x="366" y="556"/>
      <point x="378" y="556" type="curve" smooth="yes"/>
      <point x="382" y="556"/>
      <point x="384" y="555"/>
      <point x="384" y="550" type="curve"/>
      <point x="376" y="432"/>
      <point x="368" y="304"/>
      <point x="347" y="11" type="curve"/>
      <point x="347" y="6"/>
      <point x="347" y="4"/>
      <point x="348" y="3" type="curve" smooth="yes"/>
      <point x="350" y="1"/>
      <point x="351" y="0"/>
      <point x="355" y="0" type="curve" smooth="yes"/>
      <point x="403" y="0"/>
      <point x="450" y="0"/>
    </contour>
    <contour>
      <point x="153" y="292" type="line"/>
      <point x="120" y="161" type="line" smooth="yes"/>
      <point x="119" y="158"/>
      <point x="119" y="155"/>
      <point x="121" y="153" type="curve" smooth="yes"/>
      <point x="122" y="151"/>
      <point x="125" y="150"/>
      <point x="128" y="150" type="curve"/>
      <point x="437" y="150" type="line"/>
      <point x="472" y="288"/>
      <point x="468" y="292"/>
      <point x="462" y="292" type="curve" smooth="yes"/>
    </contour>
    <contour>
      <point x="491" y="775" type="curve"/>
      <point x="472" y="836"/>
      <point x="451" y="896"/>
      <point x="431" y="957" type="curve"/>
      <point x="348" y="957"/>
      <point x="330" y="957"/>
      <point x="259" y="957" type="curve" smooth="yes"/>
      <point x="251" y="957"/>
      <point x="246" y="949"/>
      <point x="249" y="943" type="curve" smooth="yes"/>
      <point x="286" y="887"/>
      <point x="304" y="858"/>
      <point x="357" y="781" type="curve" smooth="yes"/>
      <point x="359" y="778"/>
      <point x="363" y="775"/>
      <point x="371" y="775" type="curve" smooth="yes"/>
      <point x="434" y="775"/>
      <point x="453" y="775"/>
    </contour>
  </outline>
</glyph>
<glyph name="Acircumflex" format="1">
  <advance width="600"/>
  <unicode hex="00C2"/>
  <outline>
    <contour>
      <point x="118" y="0" type="curve"/>
      <point x="307" y="433"/>
      <point x="340" y="511"/>
      <point x="392" y="628" type="curve"/>
      <point x="406" y="660"/>
      <point x="432" y="681"/>
      <point x="529" y="700" type="curve"/>
      <point x="277" y="700" type="line"/>
      <point x="231" y="596"/>
      <point x="124" y="355"/>
      <point x="-27" y="13" type="curve"/>
      <point x="-32" y="3"/>
      <point x="-27" y="0"/>
      <point x="-23" y="0" type="curve" smooth="yes"/>
      <point x="24" y="0"/>
      <point x="71" y="0"/>
    </contour>
    <contour>
      <point x="498" y="0" type="curve"/>
      <point x="514" y="277"/>
      <point x="528" y="515"/>
      <point x="538" y="689" type="curve"/>
      <point x="538" y="694"/>
      <point x="537" y="695"/>
      <point x="536" y="697" type="curve" smooth="yes"/>
      <point x="534" y="700"/>
      <point x="533" y="700"/>
      <point x="529" y="700" type="curve"/>
      <point x="385" y="700"/>
      <point x="362" y="689"/>
      <point x="329" y="556" type="curve"/>
      <point x="345" y="556"/>
      <point x="366" y="556"/>
      <point x="378" y="556" type="curve" smooth="yes"/>
      <point x="382" y="556"/>
      <point x="384" y="555"/>
      <point x="384" y="550" type="curve"/>
      <point x="376" y="432"/>
      <point x="368" y="304"/>
      <point x="347" y="11" type="curve"/>
      <point x="347" y="6"/>
      <point x="347" y="4"/>
      <point x="348" y="3" type="curve" smooth="yes"/>
      <point x="350" y="1"/>
      <point x="351" y="0"/>
      <point x="355" y="0" type="curve" smooth="yes"/>
      <point x="403" y="0"/>
      <point x="450" y="0"/>
    </contour>
    <contour>
      <point x="153" y="292" type="line"/>
      <point x="120" y="161" type="line" smooth="yes"/>
      <point x="119" y="158"/>
      <point x="119" y="155"/>
      <point x="121" y="153" type="curve" smooth="yes"/>
      <point x="122" y="151"/>
      <point x="125" y="150"/>
      <point x="128" y="150" type="curve"/>
      <point x="437" y="150" type="line"/>
      <point x="472" y="288"/>
      <point x="468" y="292"/>
      <point x="462" y="292" type="curve" smooth="yes"/>
    </contour>
    <contour>
      <point x="329" y="775" type="line"/>
      <point x="384" y="813"/>
      <point x="441" y="852"/>
      <point x="517" y="905" type="curve"/>
      <point x="476" y="946"/>
      <point x="464" y="947"/>
      <point x="456" y="947" type="curve"/>
      <point x="387" y="947" type="line"/>
      <point x="355" y="920"/>
      <point x="254" y="837"/>
      <point x="217" y="807" type="curve" smooth="yes"/>
      <point x="197" y="790"/>
      <point x="195" y="788"/>
      <point x="193" y="783" type="curve" smooth="yes"/>
      <point x="192" y="779"/>
      <point x="194" y="775"/>
      <point x="202" y="775" type="curve"/>
    </contour>
    <contour>
      <point x="675" y="775" type="curve"/>
      <point x="641" y="825"/>
      <point x="581" y="909"/>
      <point x="567" y="928" type="curve" smooth="yes"/>
      <point x="555" y="944"/>
      <point x="551" y="947"/>
      <point x="541" y="947" type="curve" smooth="yes"/>
      <point x="453" y="947" type="line"/>
      <point x="448" y="947"/>
      <point x="441" y="944"/>
      <point x="404" y="905" type="curve"/>
      <point x="454" y="851"/>
      <point x="500" y="802"/>
      <point x="517" y="785" type="curve" smooth="yes"/>
      <point x="524" y="777"/>
      <point x="528" y="775"/>
      <point x="543" y="775" type="curve" smooth="yes"/>
      <point x="595" y="775"/>
      <point x="647" y="775"/>
    </contour>
  </outline>
</glyph>
<glyph name="Atilde" format="1">
  <advance width="600"/>
  <unicode hex="00C3"/>
  <outline>
    <contour>
      <point x="118" y="0" type="curve"/>
      <point x="307" y="433"/>
      <point x="340" y="511"/>
      <point x="392" y="628" type="curve"/>
      <point x="406" y="660"/>
      <point x="432" y="681"/>
      <point x="529" y="700" type="curve"/>
      <point x="277" y="700" type="line"/>
      <point x="231" y="596"/>
      <point x="124" y="355"/>
      <point x="-27" y="13" type="curve"/>
      <point x="-32" y="3"/>
      <point x="-27" y="0"/>
      <point x="-23" y="0" type="curve" smooth="yes"/>
      <point x="24" y="0"/>
      <point x="71" y="0"/>
    </contour>
    <contour>
      <point x="498" y="0" type="curve"/>
      <point x="514" y="277"/>
      <point x="528" y="515"/>
      <point x="538" y="689" type="curve"/>
      <point x="538" y="694"/>
      <point x="537" y="695"/>
      <point x="536" y="697" type="curve" smooth="yes"/>
      <point x="534" y="700"/>
      <point x="533" y="700"/>
      <point x="529" y="700" type="curve"/>
      <point x="385" y="700"/>
      <point x="362" y="689"/>
      <point x="329" y="556" type="curve"/>
      <point x="345" y="556"/>
      <point x="366" y="556"/>
      <point x="378" y="556" type="curve" smooth="yes"/>
      <point x="382" y="556"/>
      <point x="384" y="555"/>
      <point x="384" y="550" type="curve"/>
      <point x="376" y="432"/>
      <point x="368" y="304"/>
      <point x="347" y="11" type="curve"/>
      <point x="347" y="6"/>
      <point x="347" y="4"/>
      <point x="348" y="3" type="curve" smooth="yes"/>
      <point x="350" y="1"/>
      <point x="351" y="0"/>
      <point x="355" y="0" type="curve" smooth="yes"/>
      <point x="403" y="0"/>
      <point x="450" y="0"/>
    </contour>
    <contour>
      <point x="153" y="292" type="line"/>
      <point x="120" y="161" type="line" smooth="yes"/>
      <point x="119" y="158"/>
      <point x="119" y="155"/>
      <point x="121" y="153" type="curve" smooth="yes"/>
      <point x="122" y="151"/>
      <point x="125" y="150"/>
      <point x="128" y="150" type="curve"/>
      <point x="437" y="150" type="line"/>
      <point x="472" y="288"/>
      <point x="468" y="292"/>
      <point x="462" y="292" type="curve" smooth="yes"/>
    </contour>
    <contour>
      <point x="569" y="907" type="curve" smooth="yes"/>
      <point x="496" y="907"/>
      <point x="459" y="962"/>
      <point x="369" y="962" type="curve" smooth="yes"/>
      <point x="324" y="962"/>
      <point x="291" y="948"/>
      <point x="264" y="925" type="curve" smooth="yes"/>
      <point x="255" y="917"/>
      <point x="254" y="913"/>
      <point x="251" y="902" type="curve" smooth="yes"/>
      <point x="244" y="873"/>
      <point x="230" y="817"/>
      <point x="221" y="780" type="curve"/>
      <point x="241" y="780" type="line"/>
      <point x="268" y="808"/>
      <point x="297" y="820"/>
      <point x="328" y="820" type="curve" smooth="yes"/>
      <point x="401" y="820"/>
      <point x="438" y="765"/>
      <point x="528" y="765" type="curve" smooth="yes"/>
      <point x="573" y="765"/>
      <point x="606" y="779"/>
      <point x="633" y="802" type="curve" smooth="yes"/>
      <point x="642" y="809"/>
      <point x="643" y="813"/>
      <point x="646" y="825" type="curve" smooth="yes"/>
      <point x="653" y="853"/>
      <point x="667" y="910"/>
      <point x="676" y="947" type="curve"/>
      <point x="656" y="947" type="line"/>
      <point x="629" y="918"/>
      <point x="600" y="907"/>
    </contour>
  </outline>
</glyph>
<glyph name="Edieresis" format="1">
  <advance width="550"/>
  <unicode hex="00CB"/>
  <outline>
    <contour>
      <point x="138" y="700" type="line"/>
      <point x="127" y="657"/>
      <point x="116" y="612"/>
      <point x="105" y="569" type="curve" smooth="yes"/>
      <point x="104" y="566"/>
      <point x="104" y="563"/>
      <point x="106" y="561" type="curve" smooth="yes"/>
      <point x="107" y="559"/>
      <point x="110" y="558"/>
      <point x="113" y="558" type="curve" smooth="yes"/>
      <point x="572" y="558" type="line"/>
      <point x="583" y="601"/>
      <point x="594" y="646"/>
      <point x="605" y="689" type="curve" smooth="yes"/>
      <point x="606" y="692"/>
      <point x="605" y="695"/>
      <point x="604" y="697" type="curve" smooth="yes"/>
      <point x="602" y="699"/>
      <point x="600" y="700"/>
      <point x="597" y="700" type="curve" smooth="yes"/>
    </contour>
    <contour>
      <point x="192" y="100" type="curve"/>
      <point x="327" y="639" type="line" smooth="yes"/>
      <point x="329" y="645"/>
      <point x="325" y="650"/>
      <point x="170" y="650" type="curve"/>
      <point x="35" y="111" type="line"/>
      <point x="34" y="105"/>
      <point x="37" y="100"/>
    </contour>
    <contour>
      <point x="43" y="142" type="line"/>
      <point x="10" y="11" type="line" smooth="yes"/>
      <point x="9" y="5"/>
      <point x="12" y="0"/>
      <point x="18" y="0" type="curve" smooth="yes"/>
      <point x="432" y="0" type="line"/>
      <point x="443" y="43"/>
      <point x="454" y="88"/>
      <point x="465" y="131" type="curve" smooth="yes"/>
      <point x="467" y="137"/>
      <point x="463" y="142"/>
      <point x="457" y="142" type="curve" smooth="yes"/>
    </contour>
    <contour>
      <point x="183" y="420" type="line"/>
      <point x="150" y="291"/>
      <point x="153" y="282"/>
      <point x="159" y="282" type="curve" smooth="yes"/>
      <point x="443" y="282" type="line"/>
      <point x="453" y="320"/>
      <point x="463" y="363"/>
      <point x="475" y="409" type="curve" smooth="yes"/>
      <point x="476" y="412"/>
      <point x="475" y="415"/>
      <point x="474" y="417" type="curve" smooth="yes"/>
      <point x="472" y="419"/>
      <point x="470" y="420"/>
      <point x="467" y="420" type="curve" smooth="yes"/>
    </contour>
    <contour>
      <point x="358" y="788" type="curve"/>
      <point x="392" y="924" type="line" smooth="yes"/>
      <point x="393" y="930"/>
      <point x="389" y="935"/>
      <point x="383" y="935" type="curve" smooth="yes"/>
      <point x="335" y="935"/>
      <point x="286" y="935"/>
      <point x="238" y="935" type="curve"/>
      <point x="204" y="799" type="line" smooth="yes"/>
      <point x="203" y="793"/>
      <point x="207" y="788"/>
      <point x="213" y="788" type="curve" smooth="yes"/>
      <point x="261" y="788"/>
      <point x="310" y="788"/>
    </contour>
    <contour>
      <point x="578" y="788" type="curve"/>
      <point x="612" y="924" type="line" smooth="yes"/>
      <point x="613" y="930"/>
      <point x="609" y="935"/>
      <point x="603" y="935" type="curve" smooth="yes"/>
      <point x="555" y="935"/>
      <point x="506" y="935"/>
      <point x="458" y="935" type="curve"/>
      <point x="424" y="799" type="line" smooth="yes"/>
      <point x="423" y="793"/>
      <point x="427" y="788"/>
      <point x="433" y="788" type="curve" smooth="yes"/>
      <point x="481" y="788"/>
      <point x="530" y="788"/>
    </contour>
  </outline>
</glyph>
<glyph name="Igrave" format="1">
  <advance width="500"/>
  <unicode hex="00CC"/>
  <outline>
    <contour>
      <point x="275" y="50" type="curve"/>
      <point x="422" y="639" type="line" smooth="yes"/>
      <point x="424" y="645"/>
      <point x="420" y="650"/>
      <point x="265" y="650" type="curve"/>
      <point x="118" y="61" type="line" smooth="yes"/>
      <point x="116" y="55"/>
      <point x="120" y="50"/>
    </contour>
    <contour>
      <point x="178" y="700" type="line"/>
      <point x="167" y="657"/>
      <point x="156" y="612"/>
      <point x="145" y="569" type="curve"/>
      <point x="144" y="566"/>
      <point x="144" y="563"/>
      <point x="146" y="561" type="curve" smooth="yes"/>
      <point x="147" y="559"/>
      <point x="150" y="558"/>
      <point x="153" y="558" type="curve" smooth="yes"/>
      <point x="502" y="558" type="line"/>
      <point x="513" y="601"/>
      <point x="524" y="646"/>
      <point x="535" y="689" type="curve" smooth="yes"/>
      <point x="536" y="695"/>
      <point x="533" y="700"/>
      <point x="527" y="700" type="curve" smooth="yes"/>
    </contour>
    <contour>
      <point x="38" y="142" type="line"/>
      <point x="27" y="99"/>
      <point x="16" y="54"/>
      <point x="5" y="11" type="curve"/>
      <point x="4" y="8"/>
      <point x="5" y="5"/>
      <point x="6" y="3" type="curve" smooth="yes"/>
      <point x="8" y="1"/>
      <point x="10" y="0"/>
      <point x="13" y="0" type="curve" smooth="yes"/>
      <point x="362" y="0" type="line"/>
      <point x="373" y="43"/>
      <point x="384" y="88"/>
      <point x="395" y="131" type="curve" smooth="yes"/>
      <point x="397" y="137"/>
      <point x="393" y="142"/>
      <point x="387" y="142" type="curve" smooth="yes"/>
    </contour>
    <contour>
      <point x="441" y="775" type="curve"/>
      <point x="422" y="836"/>
      <point x="401" y="896"/>
      <point x="381" y="957" type="curve"/>
      <point x="298" y="957"/>
      <point x="280" y="957"/>
      <point x="209" y="957" type="curve" smooth="yes"/>
      <point x="201" y="957"/>
      <point x="196" y="949"/>
      <point x="199" y="943" type="curve" smooth="yes"/>
      <point x="236" y="887"/>
      <point x="254" y="858"/>
      <point x="307" y="781" type="curve" smooth="yes"/>
      <point x="309" y="778"/>
      <point x="313" y="775"/>
      <point x="321" y="775" type="curve" smooth="yes"/>
      <point x="384" y="775"/>
      <point x="403" y="775"/>
    </contour>
  </outline>
</glyph>
<glyph name="Icircumflex" format="1">
  <advance width="500"/>
  <unicode hex="00CE"/>
  <outline>
    <contour>
      <point x="275" y="50" type="curve"/>
      <point x="422" y="639" type="line" smooth="yes"/>
      <point x="424" y="645"/>
      <point x="420" y="650"/>
      <point x="265" y="650" type="curve"/>
      <point x="118" y="61" type="line" smooth="yes"/>
      <point x="116" y="55"/>
      <point x="120" y="50"/>
    </contour>
    <contour>
      <point x="178" y="700" type="line"/>
      <point x="167" y="657"/>
      <point x="156" y="612"/>
      <point x="145" y="569" type="curve"/>
      <point x="144" y="566"/>
      <point x="144" y="563"/>
      <point x="146" y="561" type="curve" smooth="yes"/>
      <point x="147" y="559"/>
      <point x="150" y="558"/>
      <point x="153" y="558" type="curve" smooth="yes"/>
      <point x="502" y="558" type="line"/>
      <point x="513" y="601"/>
      <point x="524" y="646"/>
      <point x="535" y="689" type="curve" smooth="yes"/>
      <point x="536" y="695"/>
      <point x="533" y="700"/>
      <point x="527" y="700" type="curve" smooth="yes"/>
    </contour>
    <contour>
      <point x="38" y="142" type="line"/>
      <point x="27" y="99"/>
      <point x="16" y="54"/>
      <point x="5" y="11" type="curve"/>
      <point x="4" y="8"/>
      <point x="5" y="5"/>
      <point x="6" y="3" type="curve" smooth="yes"/>
      <point x="8" y="1"/>
      <point x="10" y="0"/>
      <point x="13" y="0" type="curve" smooth="yes"/>
      <point x="362" y="0" type="line"/>
      <point x="373" y="43"/>
      <point x="384" y="88"/>
      <point x="395" y="131" type="curve" smooth="yes"/>
      <point x="397" y="137"/>
      <point x="393" y="142"/>
      <point x="387" y="142" type="curve" smooth="yes"/>
    </contour>
    <contour>
      <point x="279" y="775" type="line"/>
      <point x="334" y="813"/>
      <point x="391" y="852"/>
      <point x="467" y="905" type="curve"/>
      <point x="426" y="946"/>
      <point x="414" y="947"/>
      <point x="406" y="947" type="curve"/>
      <point x="337" y="947" type="line"/>
      <point x="305" y="920"/>
      <point x="204" y="837"/>
      <point x="167" y="807" type="curve" smooth="yes"/>
      <point x="147" y="790"/>
      <point x="145" y="788"/>
      <point x="143" y="783" type="curve" smooth="yes"/>
      <point x="142" y="779"/>
      <point x="144" y="775"/>
      <point x="152" y="775" type="curve"/>
    </contour>
    <contour>
      <point x="625" y="775" type="curve"/>
      <point x="591" y="825"/>
      <point x="531" y="909"/>
      <point x="517" y="928" type="curve" smooth="yes"/>
      <point x="505" y="944"/>
      <point x="501" y="947"/>
      <point x="491" y="947" type="curve" smooth="yes"/>
      <point x="403" y="947" type="line"/>
      <point x="398" y="947"/>
      <point x="391" y="944"/>
      <point x="354" y="905" type="curve"/>
      <point x="404" y="851"/>
      <point x="450" y="802"/>
      <point x="467" y="785" type="curve" smooth="yes"/>
      <point x="474" y="777"/>
      <point x="478" y="775"/>
      <point x="493" y="775" type="curve" smooth="yes"/>
      <point x="545" y="775"/>
      <point x="597" y="775"/>
    </contour>
  </outline>
</glyph>
<glyph name="Idieresis" format="1">
  <advance width="500"/>
  <unicode hex="00CF"/>
  <outline>
    <contour>
      <point x="275" y="50" type="curve"/>
      <point x="422" y="639" type="line" smooth="yes"/>
      <point x="424" y="645"/>
      <point x="420" y="650"/>
      <point x="265" y="650" type="curve"/>
      <point x="118" y="61" type="line" smooth="yes"/>
      <point x="116" y="55"/>
      <point x="120" y="50"/>
    </contour>
    <contour>
      <point x="178" y="700" type="line"/>
      <point x="167" y="657"/>
      <point x="156" y="612"/>
      <point x="145" y="569" type="curve"/>
      <point x="144" y="566"/>
      <point x="144" y="563"/>
      <point x="146" y="561" type="curve" smooth="yes"/>
      <point x="147" y="559"/>
      <point x="150" y="558"/>
      <point x="153" y="558" type="curve" smooth="yes"/>
      <point x="502" y="558" type="line"/>
      <point x="513" y="601"/>
      <point x="524" y="646"/>
      <point x="535" y="689" type="curve" smooth="yes"/>
      <point x="536" y="695"/>
      <point x="533" y="700"/>
      <point x="527" y="700" type="curve" smooth="yes"/>
    </contour>
    <contour>
      <point x="38" y="142" type="line"/>
      <point x="27" y="99"/>
      <point x="16" y="54"/>
      <point x="5" y="11" type="curve"/>
      <point x="4" y="8"/>
      <point x="5" y="5"/>
      <point x="6" y="3" type="curve" smooth="yes"/>
      <point x="8" y="1"/>
      <point x="10" y="0"/>
      <point x="13" y="0" type="curve" smooth="yes"/>
      <point x="362" y="0" type="line"/>
      <point x="373" y="43"/>
      <point x="384" y="88"/>
      <point x="395" y="131" type="curve" smooth="yes"/>
      <point x="397" y="137"/>
      <point x="393" y="142"/>
      <point x="387" y="142" type="curve" smooth="yes"/>
    </contour>
    <contour>
      <point x="348" y="788" type="curve"/>
      <point x="382" y="924" type="line" smooth="yes"/>
      <point x="383" y="930"/>
      <point x="379" y="935"/>
      <point x="373" y="935" type="curve" smooth="yes"/>
      <point x="325" y="935"/>
      <point x="276" y="935"/>
      <point x="228" y="935" type="curve"/>
      <point x="194" y="799" type="line" smooth="yes"/>
      <point x="193" y="793"/>
      <point x="197" y="788"/>
      <point x="203" y="788" type="curve" smooth="yes"/>
      <point x="251" y="788"/>
      <point x="300" y="788"/>
    </contour>
    <contour>
      <point x="568" y="788" type="curve"/>
      <point x="602" y="924" type="line" smooth="yes"/>
      <point x="603" y="930"/>
      <point x="599" y="935"/>
      <point x="593" y="935" type="curve" smooth="yes"/>
      <point x="545" y="935"/>
      <point x="496" y="935"/>
      <point x="448" y="935" type="curve"/>
      <point x="414" y="799" type="line" smooth="yes"/>
      <point x="413" y="793"/>
      <point x="417" y="788"/>
      <point x="423" y="788" type="curve" smooth="yes"/>
      <point x="471" y="788"/>
      <point x="520" y="788"/>
    </contour>
  </outline>
</glyph>
<glyph name="Ntilde" format="1">
  <advance width="700"/>
  <unicode hex="00D1"/>
  <outline>
    <contour>
      <point x="152" y="0" type="curve"/>
      <point x="193" y="163" type="line"/>
      <point x="268" y="534"/>
      <point x="298" y="692"/>
      <point x="294" y="697" type="curve" smooth="yes"/>
      <point x="292" y="699"/>
      <point x="290" y="700"/>
      <point x="287" y="700" type="curve"/>
      <point x="254" y="700"/>
      <point x="183" y="700"/>
      <point x="178" y="700" type="curve"/>
      <point x="166" y="653"/>
      <point x="154" y="607"/>
      <point x="143" y="560" type="curve" smooth="yes"/>
      <point x="5" y="11" type="line"/>
      <point x="4" y="5"/>
      <point x="7" y="0"/>
      <point x="13" y="0" type="curve"/>
      <point x="59" y="0"/>
      <point x="106" y="0"/>
    </contour>
    <contour>
      <point x="562" y="0" type="line"/>
      <point x="735" y="689" type="line"/>
      <point x="736" y="695"/>
      <point x="733" y="700"/>
      <point x="727" y="700" type="curve"/>
      <point x="588" y="700" type="line"/>
      <point x="536" y="494" type="line"/>
      <point x="483" y="194"/>
      <point x="453" y="5"/>
      <point x="454" y="3" type="curve" smooth="yes"/>
      <point x="456" y="1"/>
      <point x="458" y="0"/>
      <point x="461" y="0" type="curve"/>
    </contour>
    <contour>
      <point x="277" y="700" type="line"/>
      <point x="266" y="700"/>
      <point x="260" y="697"/>
      <point x="183" y="626" type="curve"/>
      <point x="264" y="420"/>
      <point x="343" y="214"/>
      <point x="423" y="8" type="curve"/>
      <point x="425" y="1"/>
      <point x="429" y="0"/>
      <point x="433" y="0" type="curve" smooth="yes"/>
      <point x="437" y="0"/>
      <point x="469" y="0"/>
      <point x="472" y="0" type="curve"/>
      <point x="487" y="0"/>
      <point x="527" y="100"/>
      <point x="541" y="155" type="curve"/>
      <point x="472" y="333"/>
      <point x="402" y="512"/>
      <point x="332" y="690" type="curve"/>
      <point x="329" y="699"/>
      <point x="328" y="700"/>
      <point x="317" y="700" type="curve"/>
    </contour>
    <contour>
      <point x="619" y="907" type="curve" smooth="yes"/>
      <point x="546" y="907"/>
      <point x="509" y="962"/>
      <point x="419" y="962" type="curve" smooth="yes"/>
      <point x="374" y="962"/>
      <point x="341" y="948"/>
      <point x="314" y="925" type="curve" smooth="yes"/>
      <point x="305" y="917"/>
      <point x="304" y="913"/>
      <point x="301" y="902" type="curve" smooth="yes"/>
      <point x="294" y="873"/>
      <point x="280" y="817"/>
      <point x="271" y="780" type="curve"/>
      <point x="291" y="780" type="line"/>
      <point x="318" y="808"/>
      <point x="347" y="820"/>
      <point x="378" y="820" type="curve" smooth="yes"/>
      <point x="451" y="820"/>
      <point x="488" y="765"/>
      <point x="578" y="765" type="curve" smooth="yes"/>
      <point x="623" y="765"/>
      <point x="656" y="779"/>
      <point x="683" y="802" type="curve" smooth="yes"/>
      <point x="692" y="809"/>
      <point x="693" y="813"/>
      <point x="696" y="825" type="curve" smooth="yes"/>
      <point x="703" y="853"/>
      <point x="717" y="910"/>
      <point x="726" y="947" type="curve"/>
      <point x="706" y="947" type="line"/>
      <point x="679" y="918"/>
      <point x="650" y="907"/>
    </contour>
  </outline>
</glyph>
